<svg width="27" height="23" viewBox="0 0 27 23" fill="none" xmlns="http://www.w3.org/2000/svg">
<path d="M22.8683 6.05263V9.6721C22.8683 9.6721 20.4594 9.68421 20.4473 9.6721V6.05263H16.8157C16.8157 6.05263 16.8278 3.64368 16.8157 3.63158H20.4473V0H22.8683V3.63158H26.4999V6.05263H22.8683ZM19.2368 10.8947V7.26316H15.6052V3.63158H2.42105C1.08947 3.63158 0 4.72105 0 6.05263V20.5789C0 21.9105 1.08947 23 2.42105 23H20.4473C21.7789 23 22.8683 21.9105 22.8683 20.5789V10.8947H19.2368ZM2.42105 20.5789L8 15.5L11.9736 19.3684L15.6052 14.5263L20.4473 20.5789H2.42105Z" fill="url(#paint0_linear)"/>
<defs>
<linearGradient id="paint0_linear" x1="-3.16847" y1="-3.53846" x2="38.2118" y2="-0.202433" gradientUnits="userSpaceOnUse">
<stop stop-color="#133983"/>
<stop offset="1" stop-color="#71BC6F"/>
</linearGradient>
</defs>
</svg>
