<svg width="25" height="24" viewBox="0 0 25 24" fill="none" xmlns="http://www.w3.org/2000/svg">
<path d="M4.9653 4.91553C2.22294 4.91553 0 7.12047 0 9.84062C0 12.5608 2.22294 14.7657 4.9653 14.7657C5.18015 14.7654 5.38783 14.689 5.55089 14.5502C5.71394 14.4114 5.82166 14.2195 5.85461 14.0089H5.8689V5.81214C5.8689 5.5744 5.77371 5.3464 5.60427 5.17826C5.43482 5.01012 5.20498 4.91562 4.9653 4.91553Z" fill="url(#paint0_linear)"/>
<path d="M25 0.89628C24.9999 0.658598 24.9047 0.430677 24.7352 0.262611C24.5658 0.0945446 24.336 8.73669e-05 24.0964 0C23.8894 0 23.7009 0.0718606 23.5487 0.187892L15.5975 4.74148H8.42982C8.19017 4.74148 7.96034 4.83591 7.79088 5.004C7.62142 5.17208 7.52622 5.40006 7.52622 5.63776V14.1453H7.53752C7.56403 14.3617 7.66938 14.561 7.83373 14.7057C7.99808 14.8504 8.21008 14.9304 8.42982 14.9309H14.7899L23.4836 19.9094C23.6448 20.0577 23.8591 20.1503 24.0964 20.1503C24.336 20.1502 24.5658 20.0558 24.7352 19.8877C24.9047 19.7196 24.9999 19.4917 25 19.254C25 19.2201 24.9937 19.1878 24.99 19.1548H25V0.948363H24.9947C24.9957 0.930892 25 0.91441 25 0.89628Z" fill="url(#paint1_linear)"/>
<path d="M14.5643 21.7484L14.5516 21.7266C14.5473 21.7187 14.5453 21.7105 14.5407 21.7026C14.536 21.6947 14.53 21.6887 14.5254 21.6815L11.7654 16.9403L11.7551 16.9463C11.6828 16.8472 11.5906 16.764 11.4845 16.7019C11.3783 16.6397 11.2603 16.5999 11.138 16.585V16.5751H8.73789V16.581C8.60515 16.5909 8.47629 16.6299 8.36069 16.6954C8.25791 16.7542 8.16783 16.8326 8.09558 16.9259C8.02333 17.0193 7.97034 17.1259 7.93963 17.2396C7.90892 17.3533 7.9011 17.4719 7.91661 17.5885C7.93212 17.7052 7.97066 17.8178 8.03003 17.9197C8.0513 17.9559 8.07722 17.9876 8.10281 18.0196L8.09218 18.0258L11.3084 23.5518L11.3091 23.5535C11.3094 23.554 11.3097 23.5544 11.3101 23.5548L11.3423 23.6102L11.348 23.6069C11.4754 23.7939 11.6695 23.9261 11.8912 23.977C12.1129 24.0279 12.3458 23.9936 12.543 23.8811C12.5912 23.8535 12.6348 23.8208 12.6756 23.7865L12.6839 23.8007L14.3399 22.8527L14.3323 22.8395C14.4894 22.7105 14.5977 22.5325 14.6394 22.3345C14.6811 22.1365 14.6538 21.9303 14.5619 21.7497L14.5643 21.7484Z" fill="url(#paint2_linear)"/>
<defs>
<linearGradient id="paint0_linear" x1="-2.98913" y1="-3.6923" x2="36.0951" y2="-0.843588" gradientUnits="userSpaceOnUse">
<stop stop-color="#133983"/>
<stop offset="1" stop-color="#71BC6F"/>
</linearGradient>
<linearGradient id="paint1_linear" x1="-2.98913" y1="-3.6923" x2="36.0951" y2="-0.843588" gradientUnits="userSpaceOnUse">
<stop stop-color="#133983"/>
<stop offset="1" stop-color="#71BC6F"/>
</linearGradient>
<linearGradient id="paint2_linear" x1="-2.98913" y1="-3.6923" x2="36.0951" y2="-0.843588" gradientUnits="userSpaceOnUse">
<stop stop-color="#133983"/>
<stop offset="1" stop-color="#71BC6F"/>
</linearGradient>
</defs>
</svg>
