<svg width="25" height="25" viewBox="0 0 25 25" fill="none" xmlns="http://www.w3.org/2000/svg">
<path d="M14.7058 4.38823H11.4838L12.2777 2.79875L17.1137 1.41557L16.7097 0L11.2516 1.56117L9.83967 4.38823H0V8.06872H14.7058V4.38823Z" fill="#8597D8"/>
<path d="M10.2942 19.8465H23.5294V21.3187H10.2942V19.8465Z" fill="#8597D8"/>
<path d="M7.3528 18.375C7.3528 14.7434 9.75352 11.6625 13.0496 10.6393L13.1297 9.54185H1.6011L3.00487 24.9999H7.74848C7.49736 24.5665 7.3528 24.0638 7.3528 23.5277V18.375Z" fill="#8597D8"/>
<path d="M8.82358 18.3737H25C25 14.7207 22.0314 11.7488 18.3824 11.7488H15.4412C11.7922 11.7488 8.82358 14.7207 8.82358 18.3737Z" fill="#8597D8"/>
<path d="M8.82358 23.5259C8.82358 24.3377 9.48329 24.998 10.2942 24.998H23.5279C24.3388 24.998 24.9985 24.3377 24.9985 23.5259V22.7898H8.82358V23.5259Z" fill="#8597D8"/>
</svg>
