<svg width="11" height="20" viewBox="0 0 11 20" fill="none" xmlns="http://www.w3.org/2000/svg">
<path d="M2.22176 19.1923C1.83123 19.5828 1.19807 19.5828 0.807543 19.1923C0.417019 18.8018 0.417019 18.1686 0.807543 17.7781L9.29282 9.29282C9.68335 8.9023 10.3165 8.9023 10.707 9.29282C11.0976 9.68335 11.0976 10.3165 10.707 10.707L2.22176 19.1923Z" fill="#559575"/>
<path d="M0.807542 2.22176C0.417017 1.83123 0.417017 1.19807 0.807541 0.807542C1.19807 0.417017 1.83123 0.417017 2.22175 0.807542L10.707 9.29282C11.0976 9.68335 11.0976 10.3165 10.707 10.707C10.3165 11.0976 9.68335 11.0976 9.29282 10.707L0.807542 2.22176Z" fill="#559575"/>
</svg>
