<svg width="139" height="25" viewBox="0 0 139 25" fill="none" xmlns="http://www.w3.org/2000/svg">
<path d="M4.92368 14.1666V10.8334C4.92368 10.3729 4.55629 9.99985 4.10325 9.99985C3.64984 9.99985 3.28245 10.3729 3.28245 10.8334V14.1666C3.28245 14.6271 3.64984 15.0002 4.10325 15.0002C4.55629 15.0002 4.92368 14.6271 4.92368 14.1666Z" fill="white"/>
<path d="M1.64122 15.8333V9.16672C1.64122 8.70628 1.27384 8.33321 0.820423 8.33321C0.367386 8.33321 0 8.70628 0 9.16672V15.8333C0 16.2937 0.367386 16.6668 0.820423 16.6668C1.27384 16.6668 1.64122 16.2937 1.64122 15.8333Z" fill="white"/>
<path d="M8.20613 17.4999V7.50008C8.20613 7.03964 7.83874 6.66656 7.3857 6.66656C6.93229 6.66656 6.5649 7.03964 6.5649 7.50008V17.4999C6.5649 17.9604 6.93229 18.3334 7.3857 18.3334C7.83874 18.3334 8.20613 17.9604 8.20613 17.4999Z" fill="white"/>
<path d="M11.4886 19.1666V5.83344C11.4886 5.373 11.1212 4.99992 10.6682 4.99992C10.2147 4.99992 9.84736 5.373 9.84736 5.83344V19.1666C9.84736 19.627 10.2147 20.0001 10.6682 20.0001C11.1212 20.0001 11.4886 19.627 11.4886 19.1666Z" fill="white"/>
<path d="M14.771 24.1665V0.833511C14.771 0.373077 14.4036 0 13.9506 0C13.4972 0 13.1298 0.373077 13.1298 0.833511V24.1665C13.1298 24.6269 13.4972 25 13.9506 25C14.4036 25 14.771 24.6269 14.771 24.1665Z" fill="white"/>
<path d="M39.3898 10.8334C38.9368 10.8334 38.5694 11.2064 38.5694 11.6665V13.3335C38.5694 13.7936 38.9368 14.1666 39.3898 14.1666C39.8432 14.1666 40.2106 13.7936 40.2106 13.3335V11.6665C40.2106 11.2064 39.8432 10.8334 39.3898 10.8334Z" fill="white"/>
<path d="M37.7486 14.1666V10.8334C37.7486 10.3729 37.3812 9.99985 36.9282 9.99985C36.4747 9.99985 36.1074 10.3729 36.1074 10.8334V14.1666C36.1074 14.6271 36.4747 15.0002 36.9282 15.0002C37.3812 15.0002 37.7486 14.6271 37.7486 14.1666Z" fill="white"/>
<path d="M27.9012 14.1666V10.8334C27.9012 10.3729 27.5338 9.99985 27.0804 9.99985C26.6274 9.99985 26.26 10.3729 26.26 10.8334V14.1666C26.26 14.6271 26.6274 15.0002 27.0804 15.0002C27.5338 15.0002 27.9012 14.6271 27.9012 14.1666Z" fill="white"/>
<path d="M34.4661 15.8333V9.16672C34.4661 8.70628 34.0987 8.33321 33.6457 8.33321C33.1923 8.33321 32.8249 8.70628 32.8249 9.16672V15.8333C32.8249 16.2937 33.1923 16.6668 33.6457 16.6668C34.0987 16.6668 34.4661 16.2937 34.4661 15.8333Z" fill="white"/>
<path d="M31.1837 15.8333V9.16672C31.1837 8.70628 30.8163 8.33321 30.3633 8.33321C29.9098 8.33321 29.5424 8.70628 29.5424 9.16672V15.8333C29.5424 16.2937 29.9098 16.6668 30.3633 16.6668C30.8163 16.6668 31.1837 16.2937 31.1837 15.8333Z" fill="white"/>
<path d="M24.6188 17.4999V7.50008C24.6188 7.03964 24.2514 6.66656 23.798 6.66656C23.3449 6.66656 22.9775 7.03964 22.9775 7.50008V17.4999C22.9775 17.9604 23.3449 18.3334 23.798 18.3334C24.2514 18.3334 24.6188 17.9604 24.6188 17.4999Z" fill="white"/>
<path d="M21.3363 19.1666V5.83344C21.3363 5.373 20.9689 4.99992 20.5155 4.99992C20.0625 4.99992 19.6951 5.373 19.6951 5.83344V19.1666C19.6951 19.627 20.0625 20.0001 20.5155 20.0001C20.9689 20.0001 21.3363 19.627 21.3363 19.1666Z" fill="white"/>
<path d="M18.0539 24.1665V0.833511C18.0539 0.373077 17.6865 0 17.2331 0C16.78 0 16.4126 0.373077 16.4126 0.833511V24.1665C16.4126 24.6269 16.78 25 17.2331 25C17.6865 25 18.0539 24.6269 18.0539 24.1665Z" fill="white"/>
<path d="M41.0409 14.1666C41.4993 14.1666 41.8709 13.7936 41.8709 13.3335V11.6665C41.8709 11.2064 41.4993 10.8334 41.0409 10.8334C40.5823 10.8334 40.2106 11.2064 40.2106 11.6665V13.3335C40.2106 13.7936 40.5823 14.1666 41.0409 14.1666Z" fill="white"/>
<path d="M44.3616 14.1666V10.8334C44.3616 10.3729 43.9899 9.99985 43.5312 9.99985C43.0729 9.99985 42.7013 10.3729 42.7013 10.8334V14.1666C42.7013 14.6271 43.0729 15.0002 43.5312 15.0002C43.9899 15.0002 44.3616 14.6271 44.3616 14.1666Z" fill="white"/>
<path d="M54.3234 14.1666V10.8334C54.3234 10.3729 53.9518 9.99985 53.4935 9.99985C53.0348 9.99985 52.6631 10.3729 52.6631 10.8334V14.1666C52.6631 14.6271 53.0348 15.0002 53.4935 15.0002C53.9518 15.0002 54.3234 14.6271 54.3234 14.1666Z" fill="white"/>
<path d="M47.6822 15.8333V9.16672C47.6822 8.70628 47.3105 8.33321 46.8518 8.33321C46.3935 8.33321 46.0219 8.70628 46.0219 9.16672V15.8333C46.0219 16.2937 46.3935 16.6668 46.8518 16.6668C47.3105 16.6668 47.6822 16.2937 47.6822 15.8333Z" fill="white"/>
<path d="M51.0028 15.8333V9.16672C51.0028 8.70628 50.6311 8.33321 50.1725 8.33321C49.7142 8.33321 49.3425 8.70628 49.3425 9.16672V15.8333C49.3425 16.2937 49.7142 16.6668 50.1725 16.6668C50.6311 16.6668 51.0028 16.2937 51.0028 15.8333Z" fill="white"/>
<path d="M57.6441 17.4999V7.50008C57.6441 7.03964 57.2724 6.66656 56.8141 6.66656C56.3554 6.66656 55.9837 7.03964 55.9837 7.50008V17.4999C55.9837 17.9604 56.3554 18.3334 56.8141 18.3334C57.2724 18.3334 57.6441 17.9604 57.6441 17.4999Z" fill="white"/>
<path d="M60.9647 19.1666V5.83344C60.9647 5.373 60.593 4.99992 60.1347 4.99992C59.676 4.99992 59.3044 5.373 59.3044 5.83344V19.1666C59.3044 19.627 59.676 20.0001 60.1347 20.0001C60.593 20.0001 60.9647 19.627 60.9647 19.1666Z" fill="white"/>
<path d="M64.2853 24.1665V0.833511C64.2853 0.373077 63.9136 0 63.4553 0C62.9966 0 62.625 0.373077 62.625 0.833511V24.1665C62.625 24.6269 62.9966 25 63.4553 25C63.9136 25 64.2853 24.6269 64.2853 24.1665Z" fill="white"/>
<path d="M89.1903 10.8334C88.732 10.8334 88.3604 11.2064 88.3604 11.6665V13.3335C88.3604 13.7936 88.732 14.1666 89.1903 14.1666C89.649 14.1666 90.0207 13.7936 90.0207 13.3335V11.6665C90.0207 11.2064 89.649 10.8334 89.1903 10.8334Z" fill="white"/>
<path d="M87.53 14.1666V10.8334C87.53 10.3729 87.1584 9.99985 86.7001 9.99985C86.2414 9.99985 85.8697 10.3729 85.8697 10.8334V14.1666C85.8697 14.6271 86.2414 15.0002 86.7001 15.0002C87.1584 15.0002 87.53 14.6271 87.53 14.1666Z" fill="white"/>
<path d="M77.5682 14.1666V10.8334C77.5682 10.3729 77.1965 9.99985 76.7378 9.99985C76.2795 9.99985 75.9078 10.3729 75.9078 10.8334V14.1666C75.9078 14.6271 76.2795 15.0002 76.7378 15.0002C77.1965 15.0002 77.5682 14.6271 77.5682 14.1666Z" fill="white"/>
<path d="M84.2094 15.8333V9.16672C84.2094 8.70628 83.8377 8.33321 83.3794 8.33321C82.9207 8.33321 82.5491 8.70628 82.5491 9.16672V15.8333C82.5491 16.2937 82.9207 16.6668 83.3794 16.6668C83.8377 16.6668 84.2094 16.2937 84.2094 15.8333Z" fill="white"/>
<path d="M80.8888 15.8333V9.16672C80.8888 8.70628 80.5171 8.33321 80.0588 8.33321C79.6001 8.33321 79.2285 8.70628 79.2285 9.16672V15.8333C79.2285 16.2937 79.6001 16.6668 80.0588 16.6668C80.5171 16.6668 80.8888 16.2937 80.8888 15.8333Z" fill="white"/>
<path d="M74.2475 17.4999V7.50008C74.2475 7.03964 73.8759 6.66656 73.4172 6.66656C72.9589 6.66656 72.5872 7.03964 72.5872 7.50008V17.4999C72.5872 17.9604 72.9589 18.3334 73.4172 18.3334C73.8759 18.3334 74.2475 17.9604 74.2475 17.4999Z" fill="white"/>
<path d="M70.9269 19.1666V5.83344C70.9269 5.373 70.5553 4.99992 70.0966 4.99992C69.6383 4.99992 69.2666 5.373 69.2666 5.83344V19.1666C69.2666 19.627 69.6383 20.0001 70.0966 20.0001C70.5553 20.0001 70.9269 19.627 70.9269 19.1666Z" fill="white"/>
<path d="M67.6063 24.1665V0.833511C67.6063 0.373077 67.2346 0 66.7759 0C66.3176 0 65.946 0.373077 65.946 0.833511V24.1665C65.946 24.6269 66.3176 25 66.7759 25C67.2346 25 67.6063 24.6269 67.6063 24.1665Z" fill="white"/>
<path d="M89.2945 14.1666C89.7528 14.1666 90.1244 13.7936 90.1244 13.3335V11.6665C90.1244 11.2064 89.7528 10.8334 89.2945 10.8334C88.8358 10.8334 88.4641 11.2064 88.4641 11.6665V13.3335C88.4641 13.7936 88.8358 14.1666 89.2945 14.1666Z" fill="white"/>
<path d="M92.6151 14.1666V10.8334C92.6151 10.3729 92.2434 9.99985 91.7847 9.99985C91.3264 9.99985 90.9548 10.3729 90.9548 10.8334V14.1666C90.9548 14.6271 91.3264 15.0002 91.7847 15.0002C92.2434 15.0002 92.6151 14.6271 92.6151 14.1666Z" fill="white"/>
<path d="M102.577 14.1666V10.8334C102.577 10.3729 102.205 9.99985 101.747 9.99985C101.288 9.99985 100.917 10.3729 100.917 10.8334V14.1666C100.917 14.6271 101.288 15.0002 101.747 15.0002C102.205 15.0002 102.577 14.6271 102.577 14.1666Z" fill="white"/>
<path d="M95.9357 15.8333V9.16672C95.9357 8.70628 95.564 8.33321 95.1054 8.33321C94.647 8.33321 94.2754 8.70628 94.2754 9.16672V15.8333C94.2754 16.2937 94.647 16.6668 95.1054 16.6668C95.564 16.6668 95.9357 16.2937 95.9357 15.8333Z" fill="white"/>
<path d="M99.2563 15.8333V9.16672C99.2563 8.70628 98.8847 8.33321 98.426 8.33321C97.9677 8.33321 97.596 8.70628 97.596 9.16672V15.8333C97.596 16.2937 97.9677 16.6668 98.426 16.6668C98.8847 16.6668 99.2563 16.2937 99.2563 15.8333Z" fill="white"/>
<path d="M105.898 17.4999V7.50008C105.898 7.03964 105.526 6.66656 105.068 6.66656C104.609 6.66656 104.237 7.03964 104.237 7.50008V17.4999C104.237 17.9604 104.609 18.3334 105.068 18.3334C105.526 18.3334 105.898 17.9604 105.898 17.4999Z" fill="white"/>
<path d="M109.218 19.1666V5.83344C109.218 5.373 108.847 4.99992 108.388 4.99992C107.93 4.99992 107.558 5.373 107.558 5.83344V19.1666C107.558 19.627 107.93 20.0001 108.388 20.0001C108.847 20.0001 109.218 19.627 109.218 19.1666Z" fill="white"/>
<path d="M112.539 24.1665V0.833511C112.539 0.373077 112.167 0 111.709 0C111.25 0 110.878 0.373077 110.878 0.833511V24.1665C110.878 24.6269 111.25 25 111.709 25C112.167 25 112.539 24.6269 112.539 24.1665Z" fill="white"/>
<path d="M137.444 10.8334C136.986 10.8334 136.614 11.2064 136.614 11.6665V13.3335C136.614 13.7936 136.986 14.1666 137.444 14.1666C137.903 14.1666 138.274 13.7936 138.274 13.3335V11.6665C138.274 11.2064 137.903 10.8334 137.444 10.8334Z" fill="white"/>
<path d="M135.784 14.1666V10.8334C135.784 10.3729 135.412 9.99985 134.954 9.99985C134.495 9.99985 134.123 10.3729 134.123 10.8334V14.1666C134.123 14.6271 134.495 15.0002 134.954 15.0002C135.412 15.0002 135.784 14.6271 135.784 14.1666Z" fill="white"/>
<path d="M125.822 14.1666V10.8334C125.822 10.3729 125.45 9.99985 124.991 9.99985C124.533 9.99985 124.161 10.3729 124.161 10.8334V14.1666C124.161 14.6271 124.533 15.0002 124.991 15.0002C125.45 15.0002 125.822 14.6271 125.822 14.1666Z" fill="white"/>
<path d="M132.463 15.8333V9.16672C132.463 8.70628 132.091 8.33321 131.633 8.33321C131.174 8.33321 130.803 8.70628 130.803 9.16672V15.8333C130.803 16.2937 131.174 16.6668 131.633 16.6668C132.091 16.6668 132.463 16.2937 132.463 15.8333Z" fill="white"/>
<path d="M129.142 15.8333V9.16672C129.142 8.70628 128.771 8.33321 128.312 8.33321C127.854 8.33321 127.482 8.70628 127.482 9.16672V15.8333C127.482 16.2937 127.854 16.6668 128.312 16.6668C128.771 16.6668 129.142 16.2937 129.142 15.8333Z" fill="white"/>
<path d="M122.501 17.4999V7.50008C122.501 7.03964 122.129 6.66656 121.671 6.66656C121.212 6.66656 120.841 7.03964 120.841 7.50008V17.4999C120.841 17.9604 121.212 18.3334 121.671 18.3334C122.129 18.3334 122.501 17.9604 122.501 17.4999Z" fill="white"/>
<path d="M119.18 19.1666V5.83344C119.18 5.373 118.809 4.99992 118.35 4.99992C117.892 4.99992 117.52 5.373 117.52 5.83344V19.1666C117.52 19.627 117.892 20.0001 118.35 20.0001C118.809 20.0001 119.18 19.627 119.18 19.1666Z" fill="white"/>
<path d="M115.86 24.1665V0.833511C115.86 0.373077 115.488 0 115.029 0C114.571 0 114.2 0.373077 114.2 0.833511V24.1665C114.2 24.6269 114.571 25 115.029 25C115.488 25 115.86 24.6269 115.86 24.1665Z" fill="white"/>
</svg>
