<svg width="28" height="26" viewBox="0 0 28 26" fill="none" xmlns="http://www.w3.org/2000/svg">
<path d="M17.9025 5.26332C16.418 2.11818 13.3128 0.0388184 9.82973 0.0388184C4.84584 0.0388184 0.791167 4.22222 0.791167 9.36429C0.791167 10.7617 1.0803 12.1011 1.65096 13.3499L0.806112 17.7337C0.698573 18.2917 1.173 18.785 1.71089 18.6746L5.98773 17.7972C6.56358 18.0806 7.1593 18.2962 7.77141 18.4447C6.39934 11.7015 11.3252 5.37192 17.9025 5.26332Z" fill="white"/>
<path d="M26.2254 20.1709C26.373 19.8479 26.5013 19.5188 26.6111 19.1843H26.5829C28.5061 13.327 24.4617 7.17091 18.491 6.87117L18.4907 6.87021C13.3533 6.62455 9.08508 10.8927 9.08508 16.1852C9.08508 21.323 13.1093 25.5031 18.0591 25.5105C19.4017 25.5087 20.6885 25.2088 21.8886 24.6181C26.5725 25.579 26.2073 25.5107 26.3148 25.5107C26.8016 25.5107 27.1653 25.0478 27.0702 24.5546L26.2254 20.1709Z" fill="white"/>
</svg>
