<svg width="30" height="31" viewBox="0 0 30 31" fill="none" xmlns="http://www.w3.org/2000/svg">
<path d="M0.712891 27.9677H29.5837V30.0384H0.712891V27.9677Z" fill="#9F654C"/>
<path d="M23.9126 10.3665H6.89949C6.35273 10.367 5.82852 10.5854 5.4419 10.9736C5.05528 11.3618 4.83784 11.8882 4.83729 12.4372V20.7201C4.83893 22.0926 5.38262 23.4084 6.34911 24.3789C7.3156 25.3494 8.62597 25.8953 9.99279 25.897H18.2416C19.6084 25.8953 20.9188 25.3494 21.8853 24.3789C22.8518 23.4084 23.3955 22.0926 23.3971 20.7201V19.6848H23.9126C25.1432 19.6848 26.3234 19.1939 27.1936 18.3201C28.0637 17.4464 28.5526 16.2613 28.5526 15.0256C28.5526 13.7899 28.0637 12.6049 27.1936 11.7311C26.3234 10.8574 25.1432 10.3665 23.9126 10.3665ZM21.3349 20.7201C21.3341 21.5437 21.0079 22.3333 20.428 22.9156C19.8481 23.4979 19.0617 23.8254 18.2416 23.8262H9.99279C9.17265 23.8254 8.38633 23.4979 7.8064 22.9156C7.22647 22.3333 6.90031 21.5437 6.89949 20.7201V12.4372H21.3349V20.7201ZM23.9126 17.614H23.3971V12.4372H23.9126C24.5963 12.4372 25.252 12.7099 25.7354 13.1953C26.2188 13.6808 26.4904 14.3391 26.4904 15.0256C26.4904 15.7121 26.2188 16.3705 25.7354 16.8559C25.252 17.3413 24.5963 17.614 23.9126 17.614Z" fill="#9F654C"/>
<path d="M21.3349 20.7201C21.3341 21.5437 21.0079 22.3333 20.428 22.9156C19.8481 23.4979 19.0617 23.8254 18.2416 23.8262H9.99279C9.17265 23.8254 8.38633 23.4979 7.8064 22.9156C7.22647 22.3333 6.90031 21.5437 6.89949 20.7201V12.4372H21.3349V20.7201Z" fill="#9F654C"/>
<path d="M18.2416 8.29575H16.1794V8.14459C16.1809 7.75976 16.075 7.38222 15.8736 7.05481C15.6722 6.7274 15.3834 6.46324 15.04 6.29232L12.2715 4.90389C11.585 4.56175 11.0077 4.03337 10.6049 3.37861C10.2022 2.72386 9.99012 1.96892 9.99279 1.19935V0.0128174H12.055V1.19935C12.0537 1.58412 12.1598 1.96157 12.3611 2.28893C12.5625 2.6163 12.8511 2.8805 13.1944 3.05162L15.9618 4.44004C16.6484 4.78213 17.2259 5.31048 17.6289 5.96522C18.0318 6.61996 18.244 7.37493 18.2416 8.14459V8.29575Z" fill="#9F654C"/>
</svg>
