<svg width="33" height="22" viewBox="0 0 33 22" fill="none" xmlns="http://www.w3.org/2000/svg">
<path d="M4.34367 7.79424L3.63391 8.49868C3.07092 7.93144 2.91144 7.20633 2.8601 6.63763C2.8249 6.24776 2.8357 5.79562 2.84411 5.44385C2.84722 5.31366 2.85 5.19722 2.85 5.10278C2.85 4.59356 2.43421 4.17778 1.925 4.17778C1.41578 4.17778 1 4.59356 1 5.10278C1 5.46508 1.21091 5.78353 1.52321 5.93539C2.01252 6.17332 2.25318 6.61995 2.34206 6.97701C2.34209 6.97713 2.34211 6.97724 2.34214 6.97735L4.343 15.0111H16.3779H16.3779H16.3779H16.378H16.378H16.378H16.378H16.378H16.378H16.3781H16.3781H16.3781H16.3781H16.3781H16.3782H16.3782H16.3782H16.3782H16.3782H16.3783H16.3783H16.3783H16.3783H16.3783H16.3783H16.3784H16.3784H16.3784H16.3784H16.3784H16.3785H16.3785H16.3785H16.3785H16.3785H16.3785H16.3786H16.3786H16.3786H16.3786H16.3786H16.3787H16.3787H16.3787H16.3787H16.3787H16.3787H16.3788H16.3788H16.3788H16.3788H16.3788H16.3789H16.3789H16.3789H16.3789H16.3789H16.3789H16.379H16.379H16.379H16.379H16.379H16.3791H16.3791H16.3791H16.3791H16.3791H16.3791H16.3792H16.3792H16.3792H16.3792H16.3792H16.3793H16.3793H16.3793H16.3793H16.3793H16.3793H16.3794H16.3794H16.3794H16.3794H16.3794H16.3794H16.3795H16.3795H16.3795H16.3795H16.3795H16.3796H16.3796H16.3796H16.3796H16.3796H16.3796H16.3797H16.3797H16.3797H16.3797H16.3797H16.3798H16.3798H16.3798H16.3798H16.3798H16.3798H16.3799H16.3799H16.3799H16.3799H16.3799H16.38H16.38H16.38H16.38H16.38H16.38H16.3801H16.3801H16.3801H16.3801H16.3801H16.3801H16.3802H16.3802H16.3802H16.3802H16.3802H16.3803H16.3803H16.3803H16.3803H16.3803H16.3803H16.3804H16.3804H16.3804H16.3804H16.3804H16.3805H16.3805H16.3805H16.3805H16.3805H16.3805H16.3806H16.3806H16.3806H16.3806H16.3806H16.3807H16.3807H16.3807H16.3807H16.3807H16.3807H16.3808H16.3808H16.3808H16.3808H16.3808H16.3808H16.3809H16.3809H16.3809H16.3809H16.3809H16.381H16.381H16.381H16.381H16.381H16.381H16.3811H16.3811H16.3811H16.3811H16.3811H16.3812H16.3812H16.3812H16.3812H16.3812H16.3812H16.3813H16.3813H16.3813H16.3813H16.3813H16.3814H16.3814H16.3814H16.3814H16.3814H16.3814H16.3815H16.3815H16.3815H16.3815H16.3815H16.3816H16.3816H16.3816H16.3816H16.3816H16.3816H16.3817H16.3817H16.3817H16.3817H16.3817H16.3818H16.3818H16.3818H16.3818H16.3818H16.3818H16.3819H16.3819H16.3819H16.3819H16.3819H16.382H16.382H16.382H16.382H16.382H16.382H16.3821H16.3821H16.3821H16.3821H16.3821H16.3822H16.3822H16.3822H16.3822H16.3822H16.3822H16.3823H16.3823H16.3823H16.3823H16.3823H16.3824H16.3824H16.3824H16.3824H16.3824H16.3825H16.3825H16.3825H16.3825H16.3825H16.3825L28.4127 14.9503L30.4134 6.94768C30.4991 6.60288 30.726 6.16695 31.1957 5.92104M4.34367 7.79424L31.1957 5.92104M4.34367 7.79424L3.63391 8.49869L4.96229 9.83709C4.9623 9.8371 4.96231 9.83712 4.96233 9.83713C5.78827 10.6694 6.9293 11.1443 8.10162 11.1443C9.48588 11.1443 10.8029 10.4889 11.6354 9.38578C11.6354 9.38577 11.6354 9.38575 11.6354 9.38574L14.8743 5.09421C15.3129 4.5131 15.4187 3.84937 15.4438 3.32154C15.4566 3.05324 15.4494 2.7887 15.4409 2.55772C15.4389 2.50515 15.437 2.45482 15.4351 2.4063C15.4282 2.22919 15.4222 2.07609 15.4222 1.925C15.4222 1.41578 15.838 1 16.3472 1C16.8564 1 17.2722 1.41578 17.2722 1.925C17.2722 2.16839 17.1771 2.39083 17.0164 2.56003L17.0162 2.56014C16.6193 2.97811 16.7085 3.52265 16.9191 3.8266L16.9292 3.84131L16.94 3.85566L21.0593 9.36884C21.0593 9.36885 21.0593 9.36885 21.0593 9.36886C21.891 10.4819 23.2129 11.1444 24.6025 11.1444C25.7818 11.1444 26.8959 10.6831 27.7299 9.84896C27.73 9.84894 27.73 9.84892 27.73 9.8489L29.0555 8.52344C29.6253 7.95356 29.785 7.22139 29.8359 6.6489C29.8706 6.2587 29.8594 5.80407 29.8507 5.45037C29.8474 5.31728 29.8444 5.19848 29.8444 5.10278C29.8444 4.59356 30.2602 4.17778 30.7694 4.17778C31.2787 4.17778 31.6944 4.59356 31.6944 5.10278C31.6944 5.4539 31.4957 5.76395 31.1957 5.92104M4.34367 7.79424L31.1957 5.92104M4.35875 15.0743L4.35872 15.0742L4.35875 15.0743ZM4.62597 18.9667H28.1704V21H4.62597V18.9667Z" fill="url(#paint0_linear)" stroke="url(#paint1_linear)" stroke-width="2"/>
<defs>
<linearGradient id="paint0_linear" x1="-3.90912" y1="-3.38461" x2="46.9262" y2="1.90149" gradientUnits="userSpaceOnUse">
<stop stop-color="#133983"/>
<stop offset="1" stop-color="#71BC6F"/>
</linearGradient>
<linearGradient id="paint1_linear" x1="-3.90912" y1="-3.38461" x2="46.9262" y2="1.90149" gradientUnits="userSpaceOnUse">
<stop stop-color="#133983"/>
<stop offset="1" stop-color="#71BC6F"/>
</linearGradient>
</defs>
</svg>
