<svg width="23" height="34" viewBox="0 0 23 34" fill="none" xmlns="http://www.w3.org/2000/svg">
<path d="M0.525613 10.2906L6.09612 14.3611L3.96787 20.948C3.58863 22.1266 4.93349 23.11 5.93039 22.3818L10.2251 19.2431V22.3852H9.46019C8.89753 22.3852 8.40116 22.7571 8.23882 23.2992C7.24499 26.6315 6.59113 29.8174 6.29841 33.5H16.7017C16.4062 29.7813 15.7476 26.614 14.7613 23.2992C14.5989 22.757 14.1026 22.3852 13.5399 22.3852H12.775V19.2431L17.0697 22.3818C18.0596 23.1049 19.4127 22.1304 19.0322 20.948L16.904 14.3611L22.4745 10.2906C23.4701 9.56177 22.9567 7.97013 21.7248 7.97013H14.8403L12.7129 1.38417C12.3321 0.204635 10.6675 0.205917 10.2872 1.38417L8.15978 7.97013H1.27526C0.0439509 7.97013 -0.470518 9.56134 0.525613 10.2906Z" fill="url(#paint0_linear)"/>
<defs>
<linearGradient id="paint0_linear" x1="-2.75" y1="-4.57691" x2="33.3127" y2="-2.81822" gradientUnits="userSpaceOnUse">
<stop stop-color="#133983"/>
<stop offset="1" stop-color="#71BC6F"/>
</linearGradient>
</defs>
</svg>
