<svg width="23" height="23" viewBox="0 0 23 23" fill="none" xmlns="http://www.w3.org/2000/svg">
<path d="M8.43862 10.7858C11.0968 10.7858 13.2517 8.63084 13.2517 5.97241C13.2517 3.31428 11.0968 1.1593 8.43862 1.1593C5.78034 1.1593 3.62537 3.31428 3.62537 5.97241C3.62793 8.6297 5.78134 10.7831 8.43862 10.7858ZM8.43862 2.07004C10.5937 2.07004 12.3411 3.8173 12.3411 5.97241C12.3411 8.12782 10.5937 9.87507 8.43862 9.87507C6.28336 9.87507 4.53611 8.12782 4.53611 5.97241C4.53867 3.8183 6.28436 2.07246 8.43862 2.07004Z" fill="url(#paint0_linear)"/>
<path d="M19.9594 11.7194C19.8742 11.634 19.7588 11.5862 19.6385 11.5862C19.5179 11.5862 19.4024 11.634 19.3173 11.7194L18.1288 12.9078L15.1963 15.8404C13.8268 13.3913 11.2402 11.8742 8.43421 11.8742C4.16742 11.8742 0.692993 15.3487 0.692993 19.6153C0.693705 19.8665 0.897137 20.07 1.14829 20.0707H12.446L12.0725 21.1863C12.0168 21.3493 12.0591 21.5298 12.1819 21.6508C12.2679 21.7358 12.384 21.7832 12.505 21.783C12.5545 21.7821 12.6035 21.7744 12.6508 21.7602L15.8884 20.6809C15.8931 20.6809 15.8931 20.6809 15.8975 20.6763C15.912 20.6723 15.9258 20.6661 15.9385 20.6581C15.9419 20.6577 15.9452 20.6561 15.9476 20.6535C15.9613 20.6446 15.9795 20.6353 15.9932 20.6262C16.0069 20.6172 16.0206 20.6034 16.0341 20.5944C16.0387 20.5897 16.0434 20.5897 16.0434 20.5853C16.0478 20.5807 16.0569 20.5762 16.0615 20.5669L20.9338 15.7084L22.1225 14.52C22.2077 14.4346 22.2556 14.3193 22.2556 14.1989C22.2556 14.0784 22.2077 13.9628 22.1225 13.8778L19.9594 11.7194ZM15.7517 19.6016L14.2354 18.0853L18.4475 13.8732L19.964 15.3895L15.7517 19.6016ZM1.62182 19.1553C1.85873 15.5991 4.82316 12.7803 8.43876 12.7803C11.0067 12.784 13.357 14.2238 14.5269 16.5098L13.2701 17.7665L13.2519 17.7849C13.2473 17.7893 13.2473 17.794 13.2429 17.794C13.2204 17.8226 13.2007 17.8529 13.1836 17.885C13.1831 17.8884 13.1815 17.8916 13.1789 17.894C13.1745 17.9078 13.1653 17.9215 13.1608 17.9351C13.1608 17.9396 13.1608 17.9396 13.1563 17.9443L12.751 19.16H1.62182V19.1553ZM13.7938 18.9277L14.9094 20.0433L13.2336 20.6034L13.7938 18.9277ZM20.6104 14.7429L19.0943 13.2266L19.636 12.6848L21.1525 14.2012L20.6104 14.7429Z" fill="url(#paint1_linear)"/>
<defs>
<linearGradient id="paint0_linear" x1="2.47439" y1="-0.321697" x2="17.5302" y2="0.731758" gradientUnits="userSpaceOnUse">
<stop stop-color="#133983"/>
<stop offset="1" stop-color="#71BC6F"/>
</linearGradient>
<linearGradient id="paint1_linear" x1="-1.88514" y1="10.0174" x2="31.2781" y2="14.9244" gradientUnits="userSpaceOnUse">
<stop stop-color="#133983"/>
<stop offset="1" stop-color="#71BC6F"/>
</linearGradient>
</defs>
</svg>
