<svg width="30" height="22" viewBox="0 0 30 22" fill="none" xmlns="http://www.w3.org/2000/svg">
<g clip-path="url(#clip0)">
<path fill-rule="evenodd" clip-rule="evenodd" d="M0 0H42.75V1.69297H0V0ZM0 3.38594H42.75V5.07891H0V3.38594ZM0 6.76758H42.75V8.46484H0V6.76758ZM0 10.1535H42.75V11.8465H0V10.1535ZM0 13.5395H42.75V15.2324H0V13.5395ZM0 16.9211H42.75V18.6141H0V16.9211ZM0 20.307H42.75V22H0V20.307Z" fill="#BD3D44"/>
<path fill-rule="evenodd" clip-rule="evenodd" d="M0 1.69312H42.75V3.38608H0V1.69312ZM0 5.07905H42.75V6.76772H0V5.07905ZM0 8.46069H42.75V10.1537H0V8.46069ZM0 11.8466H42.75V13.5396H0V11.8466ZM0 15.2326H42.75V16.9255H0V15.2326ZM0 18.6142H42.75V20.3072H0V18.6142Z" fill="white"/>
<path fill-rule="evenodd" clip-rule="evenodd" d="M0 0H17.0991V11.8465H0V0Z" fill="#192F5D"/>
<path fill-rule="evenodd" clip-rule="evenodd" d="M1.42383 0.506958L1.58203 0.975317H2.08301L1.67871 1.26321L1.83252 1.73586L1.42383 1.44368L1.01953 1.73157L1.17334 1.26321L0.764648 0.975317H1.27441L1.42383 0.506958ZM4.27588 0.506958L4.42969 0.975317H4.93506L4.52637 1.26321L4.68018 1.73586L4.27588 1.44368L3.86719 1.73157L4.021 1.26321L3.6167 0.975317H4.11768L4.27588 0.506958ZM7.12354 0.506958L7.28174 0.975317H7.77832L7.37402 1.26321L7.52783 1.73586L7.11914 1.44368L6.71485 1.73157L6.86865 1.26321L6.45996 0.975317H6.96533L7.12354 0.506958ZM9.97559 0.506958L10.1294 0.975317H10.6348L10.2261 1.26321L10.3843 1.73586L9.97559 1.44368L9.5669 1.73157L9.7251 1.26321L9.31641 0.975317H9.81738L9.97559 0.506958ZM12.8232 0.506958L12.9814 0.975317H13.4824L13.0781 1.26321L13.2319 1.73586L12.8232 1.44368L12.4189 1.73157L12.5728 1.26321L12.1685 0.975317H12.6694L12.8232 0.506958ZM15.6753 0.506958L15.8291 0.975317H16.3345L15.9258 1.26321L16.084 1.73586L15.6753 1.44368L15.2666 1.73157L15.4248 1.26321L15.0161 0.975317H15.5215L15.6753 0.506958ZM2.85205 1.69289L3.00586 2.16125H3.51123L3.10254 2.44914L3.25195 2.9175L2.85645 2.62961L2.44775 2.9175L2.59277 2.44914L2.19727 2.16125H2.69824L2.85205 1.69289ZM5.69971 1.69289L5.85791 2.16125H6.35889L5.9502 2.44914L6.1084 2.9175L5.69971 2.62961L5.29102 2.9175L5.44922 2.44914L5.04053 2.16125H5.5459L5.69971 1.69289ZM8.55176 1.69289L8.70557 2.16125H9.21094L8.80225 2.44914L8.95606 2.9175L8.55176 2.62961L8.14307 2.9175L8.29688 2.44914L7.89258 2.16125H8.39356L8.55176 1.69289ZM11.3994 1.69289L11.5576 2.16125H12.0586L11.6499 2.44914L11.8081 2.9175L11.3994 2.62961L10.9951 2.9175L11.1489 2.44914L10.7402 2.16125H11.25L11.3994 1.69289ZM14.2515 1.69289L14.4053 2.16125H14.9106L14.502 2.44914L14.6558 2.9175L14.2515 2.62961L13.8428 2.9175L13.9966 2.44914L13.5923 2.16125H14.0933L14.2515 1.69289ZM1.42383 2.87454L1.58203 3.35149H2.08301L1.67871 3.63938L1.83252 4.10774L1.42383 3.81555L1.01953 4.10774L1.17334 3.63508L0.764648 3.34719H1.27441L1.42383 2.87454ZM4.27588 2.87454L4.42969 3.34719H4.93506L4.52637 3.63508L4.68018 4.10344L4.27588 3.81125L3.86719 4.10344L4.021 3.63078L3.6167 3.34289H4.11768L4.27588 2.87454ZM7.12354 2.87454L7.28174 3.34719H7.77832L7.37402 3.63508L7.52783 4.10344L7.11914 3.81125L6.71485 4.10344L6.86865 3.63078L6.45996 3.34289H6.96533L7.12354 2.87454ZM9.97559 2.87454L10.1294 3.34719H10.6348L10.2261 3.63508L10.3843 4.10344L9.97559 3.81125L9.5669 4.10344L9.7251 3.63078L9.31641 3.34289H9.81738L9.97559 2.87454ZM12.8232 2.87454L12.9814 3.34719H13.4824L13.0781 3.63508L13.2319 4.10344L12.8232 3.81125L12.4189 4.10344L12.5728 3.63078L12.1685 3.34289H12.6694L12.8232 2.87454ZM15.6753 2.87454L15.8291 3.34719H16.3345L15.9258 3.63508L16.084 4.10344L15.6753 3.81125L15.2666 4.10344L15.4248 3.63078L15.0161 3.34289H15.5215L15.6753 2.87454ZM2.85205 4.06047L3.00586 4.52883H3.51123L3.10254 4.81672L3.25635 5.28938L2.85205 4.99719L2.44336 5.28508L2.59717 4.81672L2.19287 4.52883H2.69385L2.85205 4.06047ZM5.69971 4.06047L5.85791 4.52883H6.35889L5.9502 4.81672L6.1084 5.28938L5.69971 4.99719L5.29102 5.28508L5.44922 4.81672L5.04053 4.52883H5.5459L5.69971 4.06047ZM8.55176 4.06047L8.70557 4.52883H9.21094L8.80225 4.81672L8.95606 5.28938L8.55176 4.99719L8.14307 5.28508L8.29688 4.81672L7.89258 4.52883H8.39356L8.55176 4.06047ZM11.3994 4.06047L11.5576 4.52883H12.0586L11.6543 4.81672L11.8081 5.28938L11.3994 4.99719L10.9951 5.28508L11.1489 4.81672L10.7402 4.52883H11.25L11.3994 4.06047ZM14.2515 4.06047L14.4053 4.52883H14.9106L14.502 4.81672L14.6558 5.28938L14.2515 4.99719L13.8428 5.28508L13.9966 4.81672L13.5923 4.52883H14.0933L14.2515 4.06047ZM1.42383 5.24641L1.58203 5.71477H2.08301L1.67871 6.00266L1.83252 6.47531L1.42383 6.18313L1.01953 6.47102L1.17334 6.00266L0.764648 5.71477H1.27441L1.42383 5.24641ZM4.27588 5.24641L4.42969 5.71477H4.93506L4.52637 6.00266L4.68018 6.47102L4.27588 6.18313L3.86719 6.47102L4.021 6.00266L3.6167 5.71477H4.11768L4.27588 5.24641ZM7.12354 5.24641L7.28174 5.71477H7.77832L7.37402 6.00266L7.52783 6.47531L7.11914 6.18313L6.71485 6.47102L6.86865 6.00266L6.45996 5.71477H6.96533L7.12354 5.24641ZM9.97559 5.24641L10.1294 5.71477H10.6348L10.2261 6.00266L10.3843 6.47531L9.97559 6.18313L9.5669 6.47102L9.7251 6.00266L9.31641 5.71477H9.81738L9.97559 5.24641ZM12.8232 5.24641L12.9814 5.71477H13.4824L13.0781 6.00266L13.2319 6.47531L12.8232 6.18313L12.4189 6.47102L12.5728 6.00266L12.1685 5.71477H12.6694L12.8232 5.24641ZM15.6753 5.24641L15.8291 5.71477H16.3345L15.9258 6.00266L16.084 6.47531L15.6753 6.18313L15.2666 6.47102L15.4248 6.00266L15.0161 5.71477H15.5215L15.6753 5.24641ZM2.85205 6.43235L3.00586 6.9007H3.51123L3.10254 7.1886L3.25635 7.65695L2.85205 7.36477L2.44336 7.65695L2.59717 7.1843L2.19287 6.89641H2.69385L2.85205 6.43235ZM5.69971 6.43235L5.85791 6.9007H6.35889L5.9502 7.1886L6.1084 7.65695L5.69971 7.36477L5.29102 7.65695L5.44922 7.1843L5.04053 6.89641H5.5459L5.69971 6.43235ZM8.55176 6.43235L8.70557 6.9007H9.21094L8.80225 7.1886L8.95606 7.65695L8.55176 7.36477L8.14307 7.65695L8.29688 7.1843L7.89258 6.89641H8.39356L8.55176 6.43235ZM11.3994 6.43235L11.5576 6.9007H12.0586L11.6543 7.1886L11.8081 7.65695L11.3994 7.36477L10.9951 7.65695L11.1489 7.1843L10.7402 6.89641H11.25L11.3994 6.43235ZM14.2515 6.43235L14.4053 6.9007H14.9106L14.502 7.1886L14.6558 7.65695L14.2515 7.36477L13.8428 7.65695L13.9966 7.1843L13.5923 6.89641H14.0933L14.2515 6.43235ZM1.42383 7.61399L1.58203 8.08664H2.08301L1.67871 8.37453L1.83252 8.83859L1.42383 8.5507L1.01953 8.83859L1.17334 8.37023L0.764648 8.08235H1.27441L1.42383 7.61399ZM4.27588 7.61399L4.42969 8.08664H4.93506L4.52637 8.37453L4.68457 8.83859L4.27588 8.5507L3.86719 8.83859L4.02539 8.37023L3.6167 8.08235H4.11768L4.27588 7.61399ZM7.12354 7.61399L7.28174 8.08664H7.77832L7.37402 8.37453L7.52783 8.83859L7.11914 8.5507L6.71485 8.83859L6.86865 8.37023L6.45996 8.08235H6.96533L7.12354 7.61399ZM9.97559 7.61399L10.1294 8.08664H10.6348L10.2261 8.37453L10.3843 8.83859L9.97559 8.5507L9.5669 8.83859L9.7251 8.37023L9.31641 8.08235H9.81738L9.97559 7.61399ZM12.8232 7.61399L12.9814 8.08664H13.4824L13.0781 8.37453L13.2319 8.83859L12.8232 8.5507L12.4189 8.83859L12.5728 8.37023L12.1685 8.08235H12.6694L12.8232 7.61399ZM15.6753 7.61399L15.8291 8.08664H16.3345L15.9258 8.37453L16.084 8.83859L15.6753 8.5507L15.2666 8.83859L15.4248 8.37023L15.0161 8.08235H15.5215L15.6753 7.61399ZM2.85205 8.79992L3.00586 9.26828H3.51123L3.10254 9.55617L3.25635 10.0288L2.85205 9.73664L2.44336 10.0245L2.59717 9.55617L2.19287 9.26828H2.69385L2.85205 8.79992ZM5.69971 8.79992L5.85791 9.26828H6.35889L5.9502 9.55617L6.1084 10.0288L5.69971 9.73664L5.29102 10.0245L5.44922 9.55617L5.04053 9.26828H5.5459L5.69971 8.79992ZM8.55176 8.79992L8.70557 9.26828H9.21094L8.80225 9.55617L8.95606 10.0288L8.55176 9.73664L8.14307 10.0245L8.29688 9.55617L7.89258 9.26828H8.39356L8.55176 8.79992ZM11.3994 8.79992L11.5576 9.26828H12.0586L11.6543 9.55617L11.8081 10.0288L11.3994 9.73664L10.9951 10.0245L11.1489 9.55617L10.7402 9.26828H11.25L11.3994 8.79992ZM14.2515 8.79992L14.4053 9.26828H14.9106L14.502 9.55617L14.6558 10.0288L14.2515 9.73664L13.8428 10.0245L13.9966 9.55617L13.5923 9.26828H14.0933L14.2515 8.79992ZM1.42383 9.98586L1.58203 10.4542H2.08301L1.67871 10.7421L1.83252 11.2105L1.42383 10.9226L1.01953 11.2105L1.17334 10.7378L0.764648 10.4499H1.27441L1.42383 9.98586ZM4.27588 9.98586L4.42969 10.4542H4.93506L4.52637 10.7421L4.68457 11.2105L4.27588 10.9226L3.86719 11.2105L4.02539 10.7378L3.6167 10.4499H4.11768L4.27588 9.98586ZM7.12354 9.98586L7.28174 10.4542H7.77832L7.38281 10.7421L7.53662 11.2105L7.12793 10.9226L6.72363 11.2105L6.87744 10.7378L6.46875 10.4499H6.97412L7.12354 9.98586ZM9.97559 9.98586L10.1294 10.4542H10.6348L10.2261 10.7421L10.3843 11.2105L9.97559 10.9226L9.5669 11.2105L9.7251 10.7378L9.31641 10.4499H9.81738L9.97559 9.98586ZM12.8232 9.98586L12.9814 10.4542H13.4824L13.0781 10.7421L13.2319 11.2105L12.8232 10.9226L12.4189 11.2105L12.5728 10.7378L12.1685 10.4499H12.6694L12.8232 9.98586ZM15.6753 9.98586L15.8291 10.4542H16.3345L15.9258 10.7421L16.084 11.2105L15.6753 10.9226L15.2666 11.2105L15.4248 10.7378L15.0161 10.4499H15.5215L15.6753 9.98586Z" fill="white"/>
</g>
<defs>
<clipPath id="clip0">
<rect width="30" height="22" fill="white"/>
</clipPath>
</defs>
</svg>
