<svg width="26" height="26" viewBox="0 0 26 26" fill="none" xmlns="http://www.w3.org/2000/svg">
<path d="M13 0C5.81855 0 0 5.81855 0 13C0 20.1815 5.81855 26 13 26C20.1815 26 26 20.1815 26 13C26 5.81855 20.1815 0 13 0ZM17.1935 8.80645C18.1214 8.80645 18.871 9.55605 18.871 10.4839C18.871 11.4117 18.1214 12.1613 17.1935 12.1613C16.2657 12.1613 15.5161 11.4117 15.5161 10.4839C15.5161 9.55605 16.2657 8.80645 17.1935 8.80645ZM8.80645 8.80645C9.73427 8.80645 10.4839 9.55605 10.4839 10.4839C10.4839 11.4117 9.73427 12.1613 8.80645 12.1613C7.87863 12.1613 7.12903 11.4117 7.12903 10.4839C7.12903 9.55605 7.87863 8.80645 8.80645 8.80645ZM19.0177 17.7282C17.5238 19.521 15.3327 20.5484 13 20.5484C10.6673 20.5484 8.47621 19.521 6.98226 17.7282C6.26935 16.8738 7.55887 15.8044 8.27177 16.6536C9.44597 18.0637 11.1653 18.8657 13 18.8657C14.8347 18.8657 16.554 18.0585 17.7282 16.6536C18.4306 15.8044 19.7254 16.8738 19.0177 17.7282Z" fill="url(#paint0_linear)"/>
<defs>
<linearGradient id="paint0_linear" x1="-3.1087" y1="-3.99999" x2="37.5557" y2="-1.15466" gradientUnits="userSpaceOnUse">
<stop stop-color="#133983"/>
<stop offset="1" stop-color="#71BC6F"/>
</linearGradient>
</defs>
</svg>
