<svg width="32" height="32" viewBox="0 0 32 32" fill="none" xmlns="http://www.w3.org/2000/svg">
<path fill-rule="evenodd" clip-rule="evenodd" d="M24.4 16.125C24.4 17.1587 23.4578 18 22.3 18H9.4662L2 23V4.875C2 3.84125 2.9422 3 4.1 3H22.3C23.4578 3 24.4 3.84125 24.4 4.875V16.125ZM5.0156 17.855L4.8 17.875V18L5.0156 17.855ZM27.2 10.5H27.9C29.0578 10.5 30 11.3413 30 12.375V28L22.5338 23H12.5C11.3422 23 10.4 22.1588 10.4 21.125V20.5H24.414C25.9498 20.4925 27.2 19.3763 27.2 18.0013V10.5ZM9.25922 9.40997C9.59256 9.40997 9.89422 9.48831 10.1642 9.64497C10.4376 9.79831 10.6526 10.0133 10.8092 10.29C10.9659 10.5633 11.0442 10.8733 11.0442 11.22C11.0442 11.5666 10.9642 11.8783 10.8042 12.155C10.6476 12.4316 10.4326 12.6483 10.1592 12.805C9.88922 12.9583 9.58922 13.035 9.25922 13.035C8.92922 13.035 8.62756 12.9583 8.35422 12.805C8.08422 12.6483 7.86922 12.4316 7.70922 12.155C7.55256 11.8783 7.47422 11.5666 7.47422 11.22C7.47422 10.8733 7.55256 10.5633 7.70922 10.29C7.86922 10.0133 8.08422 9.79831 8.35422 9.64497C8.62756 9.48831 8.92922 9.40997 9.25922 9.40997ZM9.25922 10.205C8.97922 10.205 8.75589 10.2966 8.58922 10.48C8.42589 10.66 8.34422 10.9066 8.34422 11.22C8.34422 11.53 8.42589 11.7766 8.58922 11.96C8.75589 12.1433 8.97922 12.235 9.25922 12.235C9.53589 12.235 9.75756 12.1433 9.92422 11.96C10.0909 11.7766 10.1742 11.53 10.1742 11.22C10.1742 10.91 10.0909 10.6633 9.92422 10.48C9.76089 10.2966 9.53922 10.205 9.25922 10.205ZM7.14008 9.46497V10.145H5.69008V10.92H6.81008V11.57H5.69008V13H4.83508V9.46497H7.14008ZM12.5745 11.665L13.3395 13H14.2845L13.4445 11.61C13.7145 11.5433 13.9195 11.42 14.0595 11.24C14.2029 11.06 14.2745 10.8416 14.2745 10.585C14.2745 10.3683 14.2262 10.1766 14.1295 10.01C14.0329 9.83997 13.8879 9.70664 13.6945 9.60997C13.5012 9.51331 13.2645 9.46497 12.9845 9.46497H11.5245V13H12.3795V11.665H12.5745ZM12.9095 11.08H12.3795V10.185H12.9095C13.0762 10.185 13.1995 10.225 13.2795 10.305C13.3629 10.385 13.4045 10.495 13.4045 10.635C13.4045 10.7816 13.3645 10.8933 13.2845 10.97C13.2045 11.0433 13.0795 11.08 12.9095 11.08ZM15.5332 9.46497V11.505C15.5332 11.7383 15.5849 11.9166 15.6882 12.04C15.7949 12.1633 15.9482 12.225 16.1482 12.225C16.3482 12.225 16.4999 12.1633 16.6032 12.04C16.7099 11.9166 16.7632 11.7383 16.7632 11.505V9.46497H17.6182V11.505C17.6182 11.8383 17.5532 12.12 17.4232 12.35C17.2932 12.5766 17.1149 12.7483 16.8882 12.865C16.6649 12.9783 16.4116 13.035 16.1282 13.035C15.8449 13.035 15.5949 12.9783 15.3782 12.865C15.1616 12.7516 14.9916 12.58 14.8682 12.35C14.7449 12.12 14.6832 11.8383 14.6832 11.505V9.46497H15.5332ZM22.1646 13V9.48997H21.1246L20.1896 11.935L19.2346 9.48997H18.1896V13H19.0446V10.8L19.8096 13H20.5496L21.3096 10.805V13H22.1646Z" fill="url(#paint0_linear)"/>
<defs>
<linearGradient id="paint0_linear" x1="-1.34783" y1="-0.846147" x2="42.3904" y2="2.58151" gradientUnits="userSpaceOnUse">
<stop stop-color="#133983"/>
<stop offset="1" stop-color="#71BC6F"/>
</linearGradient>
</defs>
</svg>
