<svg width="26" height="19" viewBox="0 0 26 19" fill="none" xmlns="http://www.w3.org/2000/svg">
<path d="M17.3331 9.49999C16.2195 9.49999 15.1426 9.00448 14.2998 8.10522C13.4803 7.22809 12.9798 6.0584 12.8915 4.81261C12.7972 3.48369 13.204 2.26165 14.0366 1.37102C14.8691 0.480397 16.0331 0 17.3331 0C18.6239 0 19.7912 0.489033 20.621 1.3775C21.459 2.2746 21.8668 3.49448 21.7726 4.81207C21.6821 6.05948 21.1822 7.22863 20.3643 8.10468C19.5236 9.00448 18.4473 9.49999 17.3331 9.49999Z" fill="url(#paint0_linear)"/>
<path d="M24.4739 19H10.193C9.96339 19.0012 9.73656 18.9499 9.52997 18.8501C9.32338 18.7502 9.14252 18.6045 9.00133 18.424C8.85156 18.2284 8.74814 18.0016 8.6988 17.7605C8.64946 17.5195 8.65548 17.2704 8.71642 17.032C9.1725 15.207 10.3024 13.6935 11.9837 12.6555C13.476 11.7346 15.3756 11.2273 17.3332 11.2273C19.3292 11.2273 21.179 11.7131 22.6799 12.6334C24.3651 13.6659 25.4966 15.1881 25.9505 17.0352C26.0107 17.2738 26.0161 17.5229 25.9662 17.7638C25.9163 18.0048 25.8124 18.2314 25.6623 18.4267C25.5213 18.6063 25.3409 18.7514 25.1349 18.8507C24.9289 18.9501 24.7028 19.0012 24.4739 19Z" fill="url(#paint1_linear)"/>
<path d="M7.09575 9.7159C5.18964 9.7159 3.51374 7.94976 3.35828 5.77934C3.28136 4.66741 3.62911 3.63914 4.33327 2.88508C5.02985 2.13858 6.01243 1.72727 7.09575 1.72727C8.17908 1.72727 9.15407 2.14074 9.85444 2.89156C10.564 3.65156 10.9107 4.67766 10.8294 5.78042C10.674 7.9503 8.99862 9.7159 7.09575 9.7159Z" fill="url(#paint2_linear)"/>
<path d="M10.6523 11.4134C9.6995 10.9492 8.46288 10.7171 7.09626 10.7171C5.50052 10.7171 3.95083 11.1317 2.73209 11.8841C1.3503 12.7386 0.42081 13.9827 0.0454381 15.4849C-0.00949461 15.701 -0.0146903 15.9266 0.0302398 16.145C0.0751698 16.3634 0.169062 16.5688 0.304895 16.7458C0.433782 16.9107 0.598901 17.044 0.787552 17.1353C0.976204 17.2266 1.18336 17.2736 1.3931 17.2727H7.40555C7.50703 17.2726 7.60529 17.2371 7.68319 17.1723C7.7611 17.1075 7.8137 17.0175 7.83184 16.918C7.8378 16.884 7.84538 16.85 7.85405 16.8166C8.31338 14.9781 9.38967 13.4246 10.98 12.2922C11.0385 12.2502 11.0855 12.1943 11.1169 12.1295C11.1482 12.0648 11.1628 11.9934 11.1595 11.9216C11.1561 11.8498 11.1348 11.78 11.0975 11.7185C11.0602 11.657 11.0081 11.6058 10.9459 11.5694C10.8608 11.5198 10.7633 11.4674 10.6523 11.4134Z" fill="url(#paint3_linear)"/>
<defs>
<linearGradient id="paint0_linear" x1="-3.1087" y1="-2.92307" x2="37.3836" y2="0.95406" gradientUnits="userSpaceOnUse">
<stop stop-color="#133983"/>
<stop offset="1" stop-color="#71BC6F"/>
</linearGradient>
<linearGradient id="paint1_linear" x1="-3.1087" y1="-2.92307" x2="37.3836" y2="0.95406" gradientUnits="userSpaceOnUse">
<stop stop-color="#133983"/>
<stop offset="1" stop-color="#71BC6F"/>
</linearGradient>
<linearGradient id="paint2_linear" x1="-3.1087" y1="-2.92307" x2="37.3836" y2="0.95406" gradientUnits="userSpaceOnUse">
<stop stop-color="#133983"/>
<stop offset="1" stop-color="#71BC6F"/>
</linearGradient>
<linearGradient id="paint3_linear" x1="-3.1087" y1="-2.92307" x2="37.3836" y2="0.95406" gradientUnits="userSpaceOnUse">
<stop stop-color="#133983"/>
<stop offset="1" stop-color="#71BC6F"/>
</linearGradient>
</defs>
</svg>
