<svg width="75" height="75"  fill="none" xmlns="http://www.w3.org/2000/svg">

<path fill-rule="evenodd" clip-rule="evenodd" d="M37.4653 12.9363C41.324 7.34406 47.6122 4.01055 54.3247 4C65.3021 4 74.9306 14.3991 74.9306 26.2523C74.9306 37.8044 68.5242 49.7023 56.3968 60.6609C51.4378 65.1364 46.054 69.096 40.327 72.4816C45.6012 64.8288 56.004 48.7347 56.004 40.8458C56.004 30.2779 47.6462 21.711 37.3363 21.711C27.0264 21.711 18.6686 30.2779 18.6686 40.8458C18.6686 48.6469 28.8411 64.4716 34.1676 72.223C28.6009 68.895 23.3625 65.0234 18.5278 60.6609C6.40642 49.7023 0 37.8044 0 26.2523C0 14.3991 9.62854 4 20.6059 4C27.3185 4.01055 33.6066 7.34406 37.4653 12.9363Z" fill="url(#paint7_linear)"/>
<path d="M44.2123 40.2832C44.2123 44.0816 41.1331 47.1608 37.3347 47.1608C33.5363 47.1608 30.4572 44.0816 30.4572 40.2832C30.4572 36.4849 33.5363 33.4057 37.3347 33.4057C41.1331 33.4057 44.2123 36.4849 44.2123 40.2832Z" fill="url(#paint8_linear)"/>

<defs>
<linearGradient id="paint7_linear" x1="-8.9591" y1="-6.53563" x2="108.121" y2="2.42807" gradientUnits="userSpaceOnUse">
<stop stop-color="#133983"/>
<stop offset="1" stop-color="#71BC6F"/>
</linearGradient>
<linearGradient id="paint8_linear" x1="28.8125" y1="31.2896" x2="50.3258" y2="32.7949" gradientUnits="userSpaceOnUse">
<stop stop-color="#133983"/>
<stop offset="1" stop-color="#71BC6F"/>
</linearGradient>
</defs>
</svg>
