<svg width="118" height="25" viewBox="0 0 118 25" fill="none" xmlns="http://www.w3.org/2000/svg">
<path fill-rule="evenodd" clip-rule="evenodd" d="M98.9076 19.2946L98.638 19.0641C97.9847 18.5071 97.8698 17.4883 98.4653 16.8352L105.459 8.84299C106.017 8.19065 107.036 8.07502 107.689 8.67112L107.958 8.9008C108.612 9.45862 108.727 10.4766 108.13 11.1297L101.136 19.1219C100.579 19.7742 99.5992 19.8516 98.9076 19.2938V19.2946Z" fill="white"/>
<path fill-rule="evenodd" clip-rule="evenodd" d="M104.519 10.2267L104.384 10.0728L103.308 11.3024L103.423 11.4368C105.267 13.2813 104.48 15.1446 104.058 15.7978L104.211 15.6251C104.461 15.3368 104.845 14.8954 105.248 14.4142C105.671 13.6845 106.267 11.9556 104.519 10.2267Z" fill="white"/>
<path fill-rule="evenodd" clip-rule="evenodd" d="M106.825 12.6282L107.113 12.3017C107.132 12.2626 107.17 12.2251 107.19 12.186C106.882 12.5321 106.555 12.897 106.248 13.2618C106.479 13.0118 106.671 12.8009 106.825 12.6282Z" fill="white"/>
<path fill-rule="evenodd" clip-rule="evenodd" d="M108.17 9.0937L101.176 1.10152C100.617 0.448391 99.5991 0.332766 98.9458 0.92886L98.6762 1.15933C98.0237 1.71636 97.9088 2.73433 98.505 3.38745L104.403 10.0726L104.538 10.2265C106.287 11.975 105.691 13.7039 105.249 14.4335C105.595 14.0304 105.941 13.6273 106.268 13.2617C106.575 12.8968 106.902 12.532 107.21 12.1859C107.517 11.8406 107.805 11.514 107.997 11.3031C108.669 10.6492 108.766 9.74605 108.17 9.09292V9.0937Z" fill="white"/>
<path fill-rule="evenodd" clip-rule="evenodd" d="M107.785 19.2946L107.515 19.0641C106.862 18.5071 106.747 17.4883 107.343 16.8352L114.337 8.84299C114.895 8.19065 115.913 8.07502 116.566 8.67112L116.836 8.9008C117.489 9.45862 117.604 10.4766 117.008 11.1297L110.014 19.1219C109.456 19.7742 108.476 19.8516 107.785 19.2938V19.2946Z" fill="white"/>
<path fill-rule="evenodd" clip-rule="evenodd" d="M113.472 10.15L113.338 9.99609L112.262 11.2258L112.377 11.3602C114.222 13.2039 113.434 15.068 113.011 15.7211L113.165 15.5484C113.415 15.2594 113.799 14.818 114.203 14.3375C114.625 13.6078 115.221 11.8789 113.472 10.15Z" fill="white"/>
<path opacity="0.4" fill-rule="evenodd" clip-rule="evenodd" d="M115.682 12.6282L115.972 12.3017C115.99 12.2626 116.029 12.2251 116.048 12.186C115.74 12.5321 115.414 12.897 115.106 13.2618C115.337 13.0118 115.548 12.8009 115.682 12.6282Z" fill="url(#paint0_radial)"/>
<path fill-rule="evenodd" clip-rule="evenodd" d="M117.029 9.0937L110.034 1.10152C109.477 0.448391 108.458 0.332766 107.805 0.92886L107.536 1.15933C106.882 1.71636 106.767 2.73433 107.363 3.38745L113.262 10.0726L113.397 10.2265C115.146 11.975 114.549 13.7039 114.108 14.4335C114.454 14.0304 114.799 13.6273 115.126 13.2617C115.434 12.8968 115.761 12.532 116.068 12.1859C116.376 11.8406 116.663 11.514 116.855 11.3031C117.528 10.6492 117.624 9.74605 117.029 9.09292V9.0937Z" fill="white"/>
<path fill-rule="evenodd" clip-rule="evenodd" d="M0.674233 19.2173C0.40463 18.9485 0.251465 18.5454 0.251465 18.0454V2.23525C0.251465 1.7165 0.40463 1.31338 0.731279 0.986035C1.05793 0.659473 1.46194 0.506348 1.98083 0.506348C2.49972 0.506348 2.96078 0.659473 3.26789 0.986035C3.59454 1.3126 3.74848 1.7165 3.74848 2.23525V16.8165H11.3005C12.3766 16.8165 12.9337 17.2962 12.9337 18.2384C12.9337 19.179 12.3766 19.6595 11.3005 19.6595H1.88393C1.36582 19.6595 0.961809 19.5056 0.674233 19.2173ZM15.6626 19.3329C15.3359 19.0063 15.182 18.5829 15.182 18.0454V2.21572C15.182 1.69697 15.3359 1.29385 15.6626 0.967285C15.9892 0.640723 16.3925 0.486816 16.9113 0.486816C17.4302 0.486816 17.8913 0.640723 18.1992 0.967285C18.5258 1.29385 18.6798 1.69697 18.6798 2.21572V18.0454C18.6798 18.5642 18.5258 19.0063 18.1992 19.3329C17.8725 19.6595 17.449 19.8134 16.9113 19.8134C16.4112 19.8134 15.9892 19.6595 15.6626 19.3329Z" fill="white"/>
<path d="M38.3566 22.2915C38.5489 22.6181 38.6637 22.9251 38.6637 23.2524C38.6637 23.6556 38.5106 24.0009 38.1839 24.2509C37.8573 24.5009 37.4728 24.654 37.05 24.654C36.7234 24.654 36.4155 24.5774 36.1279 24.4235C35.8583 24.2704 35.6082 24.0392 35.4168 23.7517L33.8406 21.1384C33.5905 20.7165 33.2639 20.4087 32.8606 20.2165C32.4574 20.0243 31.9385 19.9095 31.2852 19.9095C29.4207 19.9095 27.8257 19.5056 26.4621 18.7376C25.0976 17.9306 24.0599 16.797 23.3292 15.3563C22.5993 13.8767 22.2344 12.1478 22.2344 10.1884C22.2344 8.20947 22.6189 6.5001 23.3292 5.02041C24.0599 3.56025 25.1164 2.44619 26.4621 1.63916C27.8257 0.83291 29.4207 0.467285 31.2852 0.467285C33.1107 0.467285 34.7244 0.871191 36.0701 1.63916C37.4345 2.44619 38.4715 3.57979 39.2022 5.02041C39.932 6.48135 40.297 8.20947 40.297 10.1884C40.297 12.3212 39.875 14.1845 39.0099 15.7017C38.1644 17.2392 36.9344 18.3532 35.3394 19.0642C36.1662 19.3329 36.8382 19.947 37.3954 20.8509L38.3566 22.2915ZM35.3402 15.3181C36.3194 14.1071 36.8195 12.3782 36.8195 10.1501C36.8195 7.88291 36.3194 6.19229 35.3394 4.98213C34.3595 3.77119 33.0146 3.19541 31.2469 3.19541C29.4785 3.19541 28.1141 3.79072 27.1341 4.98213C26.1542 6.19307 25.6548 7.88291 25.6548 10.1501C25.6548 12.4165 26.1549 14.1071 27.1341 15.3181C28.1141 16.5282 29.498 17.1235 31.2469 17.1235C32.995 17.1235 34.3595 16.5282 35.3394 15.3181H35.3402ZM44.5247 19.3329C44.198 19.0063 44.0448 18.5829 44.0448 18.0454V2.27354C44.0448 1.75479 44.198 1.35166 44.5059 1.0626C44.813 0.793848 45.217 0.640723 45.7359 0.640723H52.365C54.4023 0.640723 55.9777 1.13994 57.1116 2.17744C58.2447 3.17666 58.8214 4.61728 58.8214 6.44229C58.8214 8.26728 58.2455 9.70791 57.1116 10.7267C55.9785 11.7634 54.4023 12.2634 52.365 12.2634H47.5419V18.0649C47.5419 18.622 47.3879 19.0446 47.0613 19.3517C46.7346 19.679 46.3118 19.8321 45.7742 19.8321C45.2553 19.8134 44.813 19.6595 44.5247 19.3321V19.3329ZM51.9235 9.61182C54.3062 9.61182 55.5166 8.55557 55.5166 6.48057C55.5166 4.40557 54.3054 3.34932 51.9235 3.34932H47.5411V9.59307L51.9227 9.61182H51.9235ZM77.2114 18.2759C77.2114 18.6798 77.0387 19.0259 76.7113 19.3329C76.3854 19.6017 76.001 19.7548 75.5587 19.7548C75.2898 19.7548 75.0015 19.679 74.7522 19.5251C74.5021 19.3712 74.2911 19.1212 74.1559 18.8142L72.5227 15.2024H63.0686L61.4354 18.8142C61.2814 19.1407 61.0892 19.3712 60.8391 19.5251C60.5891 19.679 60.3202 19.7556 60.0131 19.7556C59.6099 19.7556 59.2059 19.6017 58.88 19.3329C58.5338 19.0642 58.3799 18.6985 58.3799 18.2759C58.3799 18.0454 58.4377 17.7962 58.5338 17.5649L65.9889 1.5626C66.1429 1.2165 66.393 0.929004 66.7391 0.736816C67.0658 0.544629 67.4112 0.467285 67.7957 0.467285C68.1801 0.467285 68.5255 0.563379 68.8522 0.736816C69.1796 0.929004 69.4289 1.19775 69.6024 1.5626L77.077 17.5657C77.1536 17.8157 77.2114 18.0267 77.2114 18.2767V18.2759ZM64.2408 12.5126H71.37L67.7957 4.52041L64.24 12.5126H64.2408Z" fill="white"/>
<path fill-rule="evenodd" clip-rule="evenodd" d="M90.6629 0.506348C91.067 0.506348 91.4319 0.659473 91.7585 0.986035C92.0852 1.3126 92.2391 1.65869 92.2391 2.11963C92.2391 2.46572 92.1047 2.83057 91.8351 3.15713L85.7054 10.6306V18.1032C85.7054 18.6603 85.5514 19.0829 85.2248 19.4095C84.8981 19.736 84.4949 19.8704 83.9956 19.8704C83.4767 19.8704 83.0344 19.7173 82.7077 19.4095C82.3811 19.1024 82.2271 18.6798 82.2271 18.1032V10.6306L76.1357 3.13838C75.8668 2.81104 75.7324 2.46572 75.7324 2.10088C75.7324 1.67822 75.8856 1.29385 76.213 0.967285C76.5397 0.640723 76.9241 0.486816 77.3078 0.486816C77.7689 0.486816 78.1346 0.679004 78.4613 1.08213L83.976 7.92119L89.472 1.08213C89.7986 0.697754 90.2019 0.506348 90.6629 0.506348Z" fill="white"/>
<defs>
<radialGradient id="paint0_radial" cx="0" cy="0" r="1" gradientUnits="userSpaceOnUse" gradientTransform="translate(111.836 12.1026) scale(4.68556 4.68386)">
<stop offset="0.4185" stop-color="#123F06" stop-opacity="0"/>
<stop offset="1" stop-color="#123F06"/>
</radialGradient>
</defs>
</svg>
