<svg width="262" height="89" viewBox="0 0 262 89" fill="none" xmlns="http://www.w3.org/2000/svg">
<g filter="url(#filter0_d)">
<path d="M94.5024 40.2376L103.586 18.892H107.885L116.968 40.2376H112.094L110.156 35.484H101.194L99.256 40.2376H94.5024ZM102.859 31.3663H108.491L105.675 24.4933L102.859 31.3663Z" fill="url(#paint0_linear)"/>
<path d="M120.239 40.2376V19.0434H124.902V35.9987H135.469V40.2376H120.239Z" fill="url(#paint1_linear)"/>
<path d="M137.169 40.2376L146.252 18.892H150.551L159.635 40.2376H154.76L152.822 35.484H143.86L141.922 40.2376H137.169ZM145.525 31.3663H151.157L148.341 24.4933L145.525 31.3663Z" fill="url(#paint2_linear)"/>
<path d="M162.906 40.2376V19.0434H167.205L177.136 32.0929V19.0434H181.738V40.2376H177.772L167.508 26.7641V40.2376H162.906Z" fill="url(#paint3_linear)"/>
<path d="M187.038 40.2376V19.0434H191.701V40.2376H187.038Z" fill="url(#paint4_linear)"/>
<path d="M206.929 40.6009C203.82 40.6009 201.226 39.5513 199.147 37.452C197.088 35.3528 196.059 32.7691 196.059 29.701V29.6405C196.059 26.5723 197.098 23.9786 199.178 21.8592C201.257 19.7397 203.901 18.68 207.11 18.68C210.501 18.68 213.287 19.77 215.467 21.95L212.5 25.3713C210.703 23.7767 208.897 22.9794 207.08 22.9794C205.324 22.9794 203.86 23.6253 202.69 24.9172C201.519 26.1888 200.934 27.7431 200.934 29.5799V29.6405C200.934 31.4975 201.509 33.0719 202.659 34.3637C203.83 35.6556 205.304 36.3015 207.08 36.3015C208.21 36.3015 209.189 36.0997 210.017 35.696C210.865 35.2923 211.743 34.6665 212.651 33.8188L215.618 36.8162C214.447 38.0879 213.186 39.0366 211.834 39.6623C210.501 40.288 208.866 40.6009 206.929 40.6009Z" fill="url(#paint5_linear)"/>
<path d="M217.534 40.2376L226.617 18.892H230.917L240 40.2376H235.125L233.188 35.484H224.225L222.288 40.2376H217.534ZM225.891 31.3663H231.522L228.707 24.4933L225.891 31.3663Z" fill="url(#paint6_linear)"/>
</g>
<g opacity="0.7" filter="url(#filter1_d)">
<path d="M99.1906 62.7433V52.4673H102.758C104.353 52.4673 105.66 52.9566 106.677 53.9353C107.705 54.9042 108.219 56.1177 108.219 57.5759V57.6053C108.219 59.0733 107.705 60.2966 106.677 61.2753C105.66 62.2539 104.353 62.7433 102.758 62.7433H99.1906ZM102.758 53.5389H100.35V61.6716H102.758C104.04 61.6716 105.067 61.29 105.841 60.5266C106.624 59.7632 107.015 58.7993 107.015 57.6346V57.6053C107.015 56.4407 106.624 55.4718 105.841 54.6987C105.058 53.9255 104.03 53.5389 102.758 53.5389Z" fill="white"/>
<path d="M131.433 62.7433L136.116 52.3939H137.202L141.885 62.7433H140.637L139.433 60.0275H133.84L132.622 62.7433H131.433ZM134.295 58.9852H138.978L136.644 53.7445L134.295 58.9852Z" fill="white"/>
<path d="M167.635 62.7433V53.5389H164.17V52.4673H172.259V53.5389H168.795V62.7433H167.635Z" fill="white"/>
<path d="M196.681 62.7433V52.4673H204.109V53.5243H197.841V57.0328H203.449V58.0897H197.841V61.6863H204.183V62.7433H196.681Z" fill="white"/>
<path d="M232.352 62.8901C230.767 62.8901 229.367 62.342 228.154 61.2459L228.873 60.3945C229.421 60.8936 229.969 61.2606 230.517 61.4955C231.075 61.7304 231.701 61.8478 232.396 61.8478C233.081 61.8478 233.634 61.6863 234.055 61.3634C234.476 61.0306 234.686 60.6098 234.686 60.1009V60.0715C234.686 59.5724 234.5 59.1809 234.129 58.8971C233.757 58.6035 233.052 58.3442 232.015 58.1191C230.801 57.8548 229.92 57.5025 229.372 57.0621C228.834 56.6119 228.565 55.9758 228.565 55.1537V55.1244C228.565 54.3219 228.883 53.6564 229.519 53.1279C230.165 52.5896 230.972 52.3205 231.941 52.3205C232.675 52.3205 233.321 52.4233 233.879 52.6288C234.447 52.8343 235.004 53.1524 235.553 53.583L234.877 54.4785C233.967 53.7347 232.979 53.3628 231.912 53.3628C231.246 53.3628 230.713 53.5194 230.312 53.8325C229.92 54.1457 229.725 54.5421 229.725 55.0216V55.051C229.725 55.5599 229.915 55.966 230.297 56.2694C230.689 56.563 231.427 56.8224 232.514 57.0474C233.678 57.3117 234.525 57.6689 235.053 58.1191C235.592 58.5693 235.861 59.1809 235.861 59.9541V59.9834C235.861 60.8545 235.533 61.5591 234.877 62.0974C234.222 62.6258 233.38 62.8901 232.352 62.8901Z" fill="white"/>
</g>
<path fill-rule="evenodd" clip-rule="evenodd" d="M37.4653 12.9363C41.324 7.34406 47.6122 4.01055 54.3247 4C65.3021 4 74.9306 14.3991 74.9306 26.2523C74.9306 37.8044 68.5242 49.7023 56.3968 60.6609C51.4378 65.1364 46.054 69.096 40.327 72.4816C45.6012 64.8288 56.004 48.7347 56.004 40.8458C56.004 30.2779 47.6462 21.711 37.3363 21.711C27.0264 21.711 18.6686 30.2779 18.6686 40.8458C18.6686 48.6469 28.8411 64.4716 34.1676 72.223C28.6009 68.895 23.3625 65.0234 18.5278 60.6609C6.40642 49.7023 0 37.8044 0 26.2523C0 14.3991 9.62854 4 20.6059 4C27.3185 4.01055 33.6066 7.34406 37.4653 12.9363Z" fill="url(#paint7_linear)"/>
<path d="M44.2123 40.2832C44.2123 44.0816 41.1331 47.1608 37.3347 47.1608C33.5363 47.1608 30.4572 44.0816 30.4572 40.2832C30.4572 36.4849 33.5363 33.4057 37.3347 33.4057C41.1331 33.4057 44.2123 36.4849 44.2123 40.2832Z" fill="url(#paint8_linear)"/>
<defs>
<filter id="filter0_d" x="72.5024" y="0.680023" width="189.498" height="65.9209" filterUnits="userSpaceOnUse" color-interpolation-filters="sRGB">
<feFlood flood-opacity="0" result="BackgroundImageFix"/>
<feColorMatrix in="SourceAlpha" type="matrix" values="0 0 0 0 0 0 0 0 0 0 0 0 0 0 0 0 0 0 127 0"/>
<feOffset dy="4"/>
<feGaussianBlur stdDeviation="11"/>
<feColorMatrix type="matrix" values="0 0 0 0 0.1 0 0 0 0 0.1 0 0 0 0 0.1 0 0 0 0.55 0"/>
<feBlend mode="normal" in2="BackgroundImageFix" result="effect1_dropShadow"/>
<feBlend mode="normal" in="SourceGraphic" in2="effect1_dropShadow" result="shape"/>
</filter>
<filter id="filter1_d" x="77.1906" y="34.3205" width="180.67" height="54.5696" filterUnits="userSpaceOnUse" color-interpolation-filters="sRGB">
<feFlood flood-opacity="0" result="BackgroundImageFix"/>
<feColorMatrix in="SourceAlpha" type="matrix" values="0 0 0 0 0 0 0 0 0 0 0 0 0 0 0 0 0 0 127 0"/>
<feOffset dy="4"/>
<feGaussianBlur stdDeviation="11"/>
<feColorMatrix type="matrix" values="0 0 0 0 0.1 0 0 0 0 0.1 0 0 0 0 0.1 0 0 0 0.55 0"/>
<feBlend mode="normal" in2="BackgroundImageFix" result="effect1_dropShadow"/>
<feBlend mode="normal" in="SourceGraphic" in2="effect1_dropShadow" result="shape"/>
</filter>
<linearGradient id="paint0_linear" x1="77.106" y1="15.3076" x2="265.208" y2="102.667" gradientUnits="userSpaceOnUse">
<stop stop-color="#133983"/>
<stop offset="1" stop-color="#71BC6F"/>
</linearGradient>
<linearGradient id="paint1_linear" x1="77.106" y1="15.3076" x2="265.208" y2="102.667" gradientUnits="userSpaceOnUse">
<stop stop-color="#133983"/>
<stop offset="1" stop-color="#71BC6F"/>
</linearGradient>
<linearGradient id="paint2_linear" x1="77.106" y1="15.3076" x2="265.208" y2="102.667" gradientUnits="userSpaceOnUse">
<stop stop-color="#133983"/>
<stop offset="1" stop-color="#71BC6F"/>
</linearGradient>
<linearGradient id="paint3_linear" x1="77.106" y1="15.3076" x2="265.208" y2="102.667" gradientUnits="userSpaceOnUse">
<stop stop-color="#133983"/>
<stop offset="1" stop-color="#71BC6F"/>
</linearGradient>
<linearGradient id="paint4_linear" x1="77.106" y1="15.3076" x2="265.208" y2="102.667" gradientUnits="userSpaceOnUse">
<stop stop-color="#133983"/>
<stop offset="1" stop-color="#71BC6F"/>
</linearGradient>
<linearGradient id="paint5_linear" x1="77.106" y1="15.3076" x2="265.208" y2="102.667" gradientUnits="userSpaceOnUse">
<stop stop-color="#133983"/>
<stop offset="1" stop-color="#71BC6F"/>
</linearGradient>
<linearGradient id="paint6_linear" x1="77.106" y1="15.3076" x2="265.208" y2="102.667" gradientUnits="userSpaceOnUse">
<stop stop-color="#133983"/>
<stop offset="1" stop-color="#71BC6F"/>
</linearGradient>
<linearGradient id="paint7_linear" x1="-8.9591" y1="-6.53563" x2="108.121" y2="2.42807" gradientUnits="userSpaceOnUse">
<stop stop-color="#133983"/>
<stop offset="1" stop-color="#71BC6F"/>
</linearGradient>
<linearGradient id="paint8_linear" x1="28.8125" y1="31.2896" x2="50.3258" y2="32.7949" gradientUnits="userSpaceOnUse">
<stop stop-color="#133983"/>
<stop offset="1" stop-color="#71BC6F"/>
</linearGradient>
</defs>
</svg>
