<svg width="26" height="24" viewBox="0 0 26 24" fill="none" xmlns="http://www.w3.org/2000/svg">
<path d="M25.9654 13.3088C25.9654 14.7331 24.8348 15.8751 23.4248 15.8751H3.09971C2.4259 15.8751 1.77968 15.6047 1.30322 15.1234C0.826755 14.6421 0.559082 13.9894 0.559082 13.3088C0.559082 12.6281 0.826755 11.9754 1.30322 11.4941C1.77968 11.0128 2.4259 10.7425 3.09971 10.7425H14.5325L17.7083 13.3088L20.8841 10.7425H23.4248C24.0986 10.7425 24.7448 11.0128 25.2213 11.4941C25.6977 11.9754 25.9654 12.6281 25.9654 13.3088ZM13.2622 0.477295C1.8294 0.477295 1.8294 8.17617 1.8294 8.17617H24.6951C24.6951 8.17617 24.6951 0.477295 13.2622 0.477295ZM1.8294 19.7245C1.8294 21.8545 3.53162 23.5739 5.64034 23.5739H20.8841C22.9928 23.5739 24.6951 21.8545 24.6951 19.7245V18.4413H1.8294V19.7245Z" fill="#F59A57"/>
</svg>
