<svg width="20" height="20" viewBox="0 0 20 20" fill="none" xmlns="http://www.w3.org/2000/svg">
<path d="M2 4V18H16V20H1C0.4 20 0 19.6 0 19V4H2ZM6 0H18C18.5304 0 19.0391 0.210714 19.4142 0.585786C19.7893 0.960859 20 1.46957 20 2V14C20 15.11 19.11 16 18 16H6C5.46957 16 4.96086 15.7893 4.58579 15.4142C4.21071 15.0391 4 14.5304 4 14V2C4 0.9 4.9 0 6 0ZM14.3 11.3L13.9 8.7L15.8 6.8L13.2 6.4L12 4L10.8 6.4L8.2 6.8L10.1 8.6L9.6 11.2L12 10L14.3 11.3Z" fill="url(#paint0_linear)"/>
<defs>
<linearGradient id="paint0_linear" x1="-2.3913" y1="-3.07692" x2="28.889" y2="-0.888199" gradientUnits="userSpaceOnUse">
<stop stop-color="#133983"/>
<stop offset="1" stop-color="#71BC6F"/>
</linearGradient>
</defs>
</svg>
