<svg width="11" height="12" viewBox="0 0 11 12" fill="none" xmlns="http://www.w3.org/2000/svg">
<path d="M10.3529 9.96357L0.821765 0.609719L0 1.39126L1.81176 3.11433V3.12049C1.47529 3.72972 1.29412 4.44972 1.29412 5.2251V8.30203L0 9.5328V10.1482H8.88412L10.1782 11.379L11 10.5974L10.3529 9.96357ZM5.17647 12.0005C5.89471 12.0005 6.47059 11.4528 6.47059 10.7697H3.88235C3.88235 11.4528 4.45824 12.0005 5.17647 12.0005ZM9.05882 7.49587V5.23126C9.05882 3.33587 7.99765 1.76049 6.14706 1.34203V0.923565C6.14706 0.412796 5.71353 0.000488281 5.17647 0.000488281C4.63941 0.000488281 4.20588 0.412796 4.20588 0.923565V1.34203C4.10882 1.36049 4.01824 1.39126 3.93412 1.41587C3.86941 1.43433 3.80471 1.45895 3.74 1.48357H3.73353C3.72706 1.48357 3.72706 1.48357 3.72059 1.48972C3.57176 1.5451 3.42294 1.6128 3.28059 1.68049C3.28059 1.68049 3.27412 1.68049 3.27412 1.68664L9.05882 7.49587Z" fill="url(#paint0_linear)"/>
<defs>
<linearGradient id="paint0_linear" x1="-1.31522" y1="-1.84566" x2="15.9024" y2="-0.741324" gradientUnits="userSpaceOnUse">
<stop stop-color="#133983"/>
<stop offset="1" stop-color="#71BC6F"/>
</linearGradient>
</defs>
</svg>
