<svg width="3" height="14" viewBox="0 0 3 14" fill="none" xmlns="http://www.w3.org/2000/svg">
<g opacity="0.3">
<path d="M3 1.89746C3 2.72589 2.32843 3.39746 1.5 3.39746C0.671573 3.39746 0 2.72589 0 1.89746C0 1.06903 0.671573 0.397461 1.5 0.397461C2.32843 0.397461 3 1.06903 3 1.89746Z" fill="#FCFCFC"/>
<path d="M3 6.89746C3 7.72589 2.32843 8.39746 1.5 8.39746C0.671573 8.39746 0 7.72589 0 6.89746C0 6.06903 0.671573 5.39746 1.5 5.39746C2.32843 5.39746 3 6.06903 3 6.89746Z" fill="#FCFCFC"/>
<path d="M3 11.8975C3 12.7259 2.32843 13.3975 1.5 13.3975C0.671573 13.3975 0 12.7259 0 11.8975C0 11.069 0.671573 10.3975 1.5 10.3975C2.32843 10.3975 3 11.069 3 11.8975Z" fill="#FCFCFC"/>
</g>
</svg>
