<svg width="23" height="31" viewBox="0 0 23 31" fill="none" xmlns="http://www.w3.org/2000/svg">
<path d="M11.1253 0C4.99051 0 0 4.99051 0 11.1253C0 17.8127 7.14616 27.0522 9.98381 30.4575C10.5865 31.1808 11.6641 31.1808 12.2669 30.4575C15.1045 27.0522 22.2507 17.8127 22.2507 11.1253C22.2507 4.99051 17.2602 0 11.1253 0ZM11.1253 3.17867C12.8736 3.17867 14.304 4.60907 14.304 6.35733C14.304 8.12149 12.8736 9.536 11.1253 9.536C9.37707 9.536 7.94667 8.12149 7.94667 6.35733C7.94667 4.60907 9.37707 3.17867 11.1253 3.17867ZM11.1253 19.072C8.64687 19.072 6.44558 17.894 5.05204 16.0557C4.8587 15.8007 4.74938 15.476 4.8516 15.1727C5.45586 13.38 9.17948 12.3968 11.1253 12.3968C13.0712 12.3968 16.7948 13.38 17.3991 15.1727C17.5013 15.476 17.392 15.8007 17.1986 16.0557C15.8051 17.894 13.6038 19.072 11.1253 19.072Z" fill="url(#paint0_linear)"/>
<defs>
<linearGradient id="paint0_linear" x1="-2.66041" y1="-4.76922" x2="32.2224" y2="-3.01731" gradientUnits="userSpaceOnUse">
<stop stop-color="#133983"/>
<stop offset="1" stop-color="#71BC6F"/>
</linearGradient>
</defs>
</svg>
