<svg width="26" height="23" viewBox="0 0 26 23" fill="none" xmlns="http://www.w3.org/2000/svg">
<path d="M2.0625 12.2529V21.4647C2.0625 22.3122 2.76406 23 3.625 23H11.4375V12.2529H2.0625Z" fill="url(#paint0_linear)"/>
<path d="M23.9375 6.11162H18.9938C19.3484 5.87365 19.6531 5.63721 19.8656 5.42534C21.1266 4.18022 21.1266 2.15363 19.8656 0.90851C18.6406 -0.304372 16.5063 -0.301301 15.2828 0.90851C14.6047 1.57636 12.8078 4.29537 13.0562 6.11162H12.9438C13.1906 4.29537 11.3938 1.57636 10.7172 0.90851C9.49219 -0.301301 7.35781 -0.301301 6.13437 0.90851C4.875 2.15363 4.875 4.18022 6.13281 5.42534C6.34688 5.63721 6.65156 5.87365 7.00625 6.11162H2.0625C1.20156 6.11162 0.5 6.80097 0.5 7.64691V9.94985C0.5 10.3736 0.85 10.7175 1.28125 10.7175H11.4375V7.64691H14.5625V10.7175H24.7188C25.15 10.7175 25.5 10.3736 25.5 9.94985V7.64691C25.5 6.80097 24.8 6.11162 23.9375 6.11162ZM11.3453 6.06096C11.3453 6.06096 11.2797 6.11162 11.0562 6.11162C9.97656 6.11162 7.91563 5.00928 7.24219 4.34296C6.5875 3.69507 6.5875 2.63879 7.24219 1.99089C7.55937 1.67769 7.97969 1.50574 8.42656 1.50574C8.87187 1.50574 9.29219 1.67769 9.60938 1.99089C10.6625 3.03182 11.7094 5.69095 11.3453 6.06096ZM14.9422 6.11162C14.7203 6.11162 14.6547 6.06096 14.6547 6.06096C14.2906 5.69095 15.3375 3.03182 16.3906 1.99089C17.0203 1.36603 18.1219 1.36296 18.7578 1.99089C19.4141 2.63879 19.4141 3.69507 18.7578 4.34296C18.0844 5.00928 16.0234 6.11162 14.9422 6.11162Z" fill="url(#paint1_linear)"/>
<path d="M14.5625 12.2529V23H22.375C23.2375 23 23.9375 22.3122 23.9375 21.4647V12.2529H14.5625Z" fill="url(#paint2_linear)"/>
<defs>
<linearGradient id="paint0_linear" x1="-2.48913" y1="-3.53846" x2="36.5767" y2="-0.56728" gradientUnits="userSpaceOnUse">
<stop stop-color="#133983"/>
<stop offset="1" stop-color="#71BC6F"/>
</linearGradient>
<linearGradient id="paint1_linear" x1="-2.48913" y1="-3.53846" x2="36.5767" y2="-0.56728" gradientUnits="userSpaceOnUse">
<stop stop-color="#133983"/>
<stop offset="1" stop-color="#71BC6F"/>
</linearGradient>
<linearGradient id="paint2_linear" x1="-2.48913" y1="-3.53846" x2="36.5767" y2="-0.56728" gradientUnits="userSpaceOnUse">
<stop stop-color="#133983"/>
<stop offset="1" stop-color="#71BC6F"/>
</linearGradient>
</defs>
</svg>
