<svg width="299" height="223" viewBox="0 0 299 223" fill="none" xmlns="http://www.w3.org/2000/svg">
<path opacity="0.1" d="M149.5 222.891C232.067 222.891 299 204.636 299 182.118C299 159.6 232.067 141.345 149.5 141.345C66.9334 141.345 0 159.6 0 182.118C0 204.636 66.9334 222.891 149.5 222.891Z" fill="#9B7333"/>
<path fill-rule="evenodd" clip-rule="evenodd" d="M190.26 31.9308L189.397 33.0191C188.946 33.5877 188.211 33.1662 187.76 32.0877L186.897 30.0287C186.446 28.6267 185.466 27.2737 184.348 26.6364L182.701 25.6951L181.779 25.1657C180.23 24.2833 178.956 22.0381 178.956 20.1752V10.6648C178.956 8.80198 180.23 7.99801 181.779 8.88041L187.466 12.1061L189.711 13.3807L195.398 16.6064C196.947 17.4888 198.221 19.734 198.221 21.5968V31.1072C198.221 32.9701 196.947 33.774 195.398 32.8916L194.476 32.3622L192.829 31.421C191.692 30.7935 190.711 31.0386 190.26 31.9308Z" fill="#EBE8F9"/>
<path fill-rule="evenodd" clip-rule="evenodd" d="M193.437 26.3716L192.221 25.6755V21.1066C191.78 21.2635 191.251 21.2733 190.643 21.1262V20.0281C190.966 20.1066 191.31 20.1066 191.682 20.0281C192.055 19.9497 192.31 19.7634 192.447 19.4595L193.437 20.0183V26.3716Z" fill="#D85980"/>
<path fill-rule="evenodd" clip-rule="evenodd" d="M186.142 17.6459C186.956 16.3027 189.29 18.3617 189.29 20.1755C189.29 21.9305 187.711 21.9305 186.142 22.7933C184.564 20.1461 182.995 18.3519 182.995 16.5969C182.995 14.783 185.329 15.3811 186.142 17.6459Z" fill="#D85980"/>
<path fill-rule="evenodd" clip-rule="evenodd" d="M176.524 111.926C175.299 113.073 164.396 112.24 164.014 112.24C162.455 109.994 165.975 101.219 164.563 99.7584C169.034 97.1896 171.201 96.8367 174.181 95.2974C177.838 98.9054 179.132 109.475 176.524 111.926Z" fill="#301E1E"/>
<path fill-rule="evenodd" clip-rule="evenodd" d="M143.023 129.339C143.375 129.133 143.856 128.8 143.807 128.466C143.807 128.466 143.493 128.133 143.336 128.113C142.807 128.035 142.562 128.123 142.111 127.79C141.826 127.584 141.777 127.437 141.817 127.299C141.875 127.103 142.14 126.927 142.601 127.045C142.611 127.045 144.67 127.319 144.846 127.339C145.268 127.398 145.523 127.447 145.876 127.574C146.229 127.701 146.131 127.956 146.827 127.868C147.523 127.78 152.376 125.417 152.376 125.417C152.915 125.584 154.023 128.074 153.523 128.241C152.347 128.711 149.709 129.604 147.689 130.388C145.797 131.81 146.709 131.251 144.63 132.3C144.189 132.525 143.268 132.947 142.934 133.104C142.415 133.339 141.944 133.359 142.003 132.986C141.748 133.074 141.503 133.172 141.248 133.261C140.189 133.643 140.326 132.751 140.993 132.653C141.336 132.604 142.415 132.025 142.415 132.025C142.797 131.81 142.787 131.662 142.65 131.682C142.65 131.682 140.993 132.378 140.718 132.525C140.522 132.623 140.179 132.721 139.797 132.859C139.493 132.957 139.032 132.496 139.493 132.162C139.787 131.947 140.062 131.751 140.542 131.574C140.954 131.417 141.542 131.133 141.905 130.957C142.307 130.76 142.454 130.682 142.013 130.79C141.336 130.947 140.424 131.123 140.287 131.192C139.777 131.349 139.444 131.359 139.395 131.123C139.365 130.996 139.385 130.8 139.66 130.653C140.169 130.398 141.14 130.025 141.65 129.868C142.179 129.702 143.023 129.339 143.023 129.339Z" fill="#EAAD89"/>
<path fill-rule="evenodd" clip-rule="evenodd" d="M157.808 121.456C156.523 122.907 159.827 126.495 161.465 124.691C163.779 122.162 165.887 118.475 167.338 115.867C167.955 114.749 169.818 110.965 169.514 109.769C169.23 108.641 168.191 108.151 167.328 108.22C166.259 108.308 165.298 109.19 164.69 109.886C162.112 112.877 160.445 118.475 157.808 121.456Z" fill="#CA4A6A"/>
<path fill-rule="evenodd" clip-rule="evenodd" d="M161.965 124.005C162.161 123.495 162.347 122.72 161.994 122.171C161.563 121.495 160.327 120.926 159.719 120.877C159.278 120.838 158.386 120.838 157.886 121.181C154.2 123.711 148.67 125.691 148.905 126.721C148.768 127.083 149.484 129.231 150.366 129.613C151.905 130.741 161.22 125.907 161.965 124.005Z" fill="#CA4A6A"/>
<path fill-rule="evenodd" clip-rule="evenodd" d="M150.435 128.966C150.131 128.839 149.787 128.26 149.64 127.956C149.484 127.633 149.317 127.201 149.238 126.858L149.199 126.672L149.356 126.564C150.18 125.995 151.042 125.476 151.925 124.995C152.876 124.466 153.847 123.975 154.798 123.446C155.837 122.868 156.817 122.299 157.798 121.622C158.347 121.25 159.043 121.152 159.68 121.309C160.259 121.456 160.818 121.828 161.053 122.397C161.514 123.505 160.494 124.485 159.641 125.025C156.866 126.799 153.778 128.064 150.621 128.986L150.523 129.015L150.435 128.966Z" fill="#D85980"/>
<path fill-rule="evenodd" clip-rule="evenodd" d="M164.455 110.994C167.259 107.837 169.328 107.837 168.642 110.582C168.475 111.23 168.043 112.102 167.563 113.043C167.112 113.926 166.916 114.171 166.436 115.034C164.759 118.034 163.141 121.348 160.818 123.897C159.553 125.289 156.935 122.779 157.876 121.711C158.827 120.632 159.631 119.416 160.357 118.181C161.22 116.71 161.975 115.171 162.769 113.661C163.328 112.583 163.651 111.906 164.455 110.994Z" fill="#D85980"/>
<path fill-rule="evenodd" clip-rule="evenodd" d="M175.093 133.202C181.446 145.104 177.27 145.938 174.828 158.252C173.946 162.674 174.838 163.949 175.015 165.106C175.446 168.027 176.299 172.596 175.505 175.94C175.132 177.518 174.132 181.067 173.769 183.626C173.22 187.489 170.024 186.421 170.093 183.901C170.181 180.754 169.897 177.538 169.759 175.665C169.583 173.283 169.348 170.802 169.308 168.704C169.269 166.998 166.416 158.919 165.73 150.203C165.132 142.673 166.338 134.153 166.73 133.055C169.544 134.368 173.554 135.094 175.093 133.202Z" fill="#EBD1C4"/>
<path fill-rule="evenodd" clip-rule="evenodd" d="M173.514 192.48C174.76 192.156 175.269 190.499 175.073 189.254C174.956 188.519 174.328 188.205 173.916 187.979C172.054 186.95 168.093 190.274 166.867 191.156C164.445 192.891 162.102 195.774 163.671 196.274C165.916 197 168.21 196.5 170.014 195.294C171.289 194.45 172.72 192.323 173.514 192.48Z" fill="#39353B"/>
<path fill-rule="evenodd" clip-rule="evenodd" d="M172.838 184.352C172.838 184.352 174.113 187.793 174.171 188.784C174.25 190.097 173.701 190.637 172.279 191.186C171.142 191.627 170.838 194.019 167.485 194.029C166.455 194.029 165.759 193.264 166.504 192.215C166.681 191.96 168.2 190.794 169.073 189.735C170.534 187.95 170.201 187.617 169.916 185.136L172.838 184.352Z" fill="#EFC3A9"/>
<path fill-rule="evenodd" clip-rule="evenodd" d="M165.318 192.754C163.818 194.137 162.798 195.696 163.828 196.029C165.857 196.686 167.72 195.882 169.387 194.725C168.249 195.068 167.024 195.107 165.7 194.686C164.955 194.431 164.926 193.696 165.318 192.754Z" fill="#423E45"/>
<path fill-rule="evenodd" clip-rule="evenodd" d="M184.574 178.803C185.947 177.822 185.702 175.332 184.525 174.597C183.888 174.195 183.613 173.979 181.701 175.597C179.554 177.411 180.319 176.95 178.24 180.087C176.593 182.568 175.426 186.097 177.074 186.009C179.427 185.892 181.035 184.45 182.29 182.685C183.182 181.43 183.76 178.94 184.574 178.803Z" fill="#39353B"/>
<path fill-rule="evenodd" clip-rule="evenodd" d="M181.407 171.606C181.407 171.606 183.819 174.361 184.231 175.273C184.77 176.469 184.456 177.175 183.319 178.195C182.417 179.008 182.986 181.352 179.848 182.558C178.887 182.93 177.966 182.45 178.289 181.214C178.387 180.832 179.574 178.842 180.093 177.361C180.397 176.489 180.231 175.841 180.133 175.655L178.966 173.381L181.407 171.606Z" fill="#EAAD89"/>
<path fill-rule="evenodd" clip-rule="evenodd" d="M163.916 158.243C168.897 163.596 173.868 168.939 178.848 174.293C179.623 174.656 182.378 172.95 182.192 171.773C176.358 158.086 177.064 159.517 170.76 155.566C167.455 152.742 162.769 156.478 163.916 158.243Z" fill="#39353B"/>
<path fill-rule="evenodd" clip-rule="evenodd" d="M163.916 158.243L168.799 163.488C168.681 163.017 168.563 162.547 168.446 162.076C167.857 159.635 167.338 157.164 166.955 154.674C164.818 155.203 163.181 157.115 163.916 158.243ZM177.289 172.616L177.956 173.332C179.348 173.597 180.642 172.273 180.427 170.881C178.25 165.773 176.985 162.772 175.926 160.811C175.887 161.498 175.887 162.184 175.975 162.841C176.034 163.263 176.123 163.665 176.23 164.067C176.319 164.38 176.417 164.704 176.466 165.027C176.809 167.341 177.279 170.057 177.289 172.616Z" fill="#423E45"/>
<path fill-rule="evenodd" clip-rule="evenodd" d="M172.612 133.163C173.063 138.712 173.72 145.644 170.397 151.419C169.063 153.742 168.896 155.036 169.014 155.929C169.279 157.88 163.749 158.772 163.592 156.507C163.426 154.154 163.122 150.997 162.484 146.997C161.425 140.389 163.396 131.78 163.955 130.319C164.004 131.702 169.024 133.506 172.612 133.163Z" fill="#E5C1AF"/>
<path fill-rule="evenodd" clip-rule="evenodd" d="M172.916 133.133C173.897 145.291 170.171 147.909 169.975 156.331C169.887 159.909 163.612 160.88 163.288 156.419C162.68 147.928 161.082 143.673 162.602 134.839C162.769 133.868 162.965 132.888 163.2 131.927C163.328 131.388 163.475 130.78 163.681 130.251L163.739 130.094C163.857 130.358 164.004 130.613 164.2 130.858C165.269 132.162 169.759 133.545 172.916 133.133Z" fill="#39353B"/>
<path fill-rule="evenodd" clip-rule="evenodd" d="M163.132 145.673C163.279 147.301 163.494 148.928 163.69 150.556C163.926 152.448 164.132 154.35 164.269 156.262C164.396 158.105 167.799 157.076 167.848 155.37C167.906 152.928 167.014 150.664 166.612 148.183C166.495 147.438 166.397 146.693 166.318 145.938C166.21 144.967 165.71 140.888 165.093 138.575C164.651 136.918 164.23 135.878 163.396 138.065C162.583 140.163 163.004 144.3 163.132 145.673Z" fill="#423E45"/>
<path fill-rule="evenodd" clip-rule="evenodd" d="M175.073 132.417L175.24 132.741C176.387 134.898 177.642 137.575 178.27 139.947C178.711 141.624 178.868 143.242 178.642 144.987C178.407 146.86 177.77 148.722 177.191 150.526C176.358 153.115 175.799 155.684 175.27 158.35C174.975 159.811 174.779 161.419 174.966 162.909C175.024 163.331 175.113 163.733 175.22 164.135C175.309 164.449 175.407 164.772 175.456 165.096C175.956 168.439 176.74 172.685 175.946 176.038C175.162 179.361 174.113 183.048 173.681 186.43C172.965 187.009 169.857 186.901 169.612 186.381C169.681 185.548 169.74 184.724 169.759 183.881C169.838 181.116 169.622 178.42 169.426 175.675C169.259 173.361 169.014 171.018 168.975 168.694C168.965 168.42 168.897 168.086 168.848 167.822C168.75 167.341 168.632 166.851 168.504 166.38C168.151 164.968 167.779 163.557 167.436 162.145C166.485 158.233 165.73 154.262 165.406 150.232C165.338 149.409 165.298 148.575 165.269 147.752C165.171 144.575 165.318 141.349 165.622 138.183C166.426 138.29 166.426 136.722 166.563 135.437C166.72 134.035 166.789 132.751 166.534 132.535L166.544 132.496C168.436 133.408 173.132 134.761 175.073 132.417Z" fill="#39353B"/>
<path fill-rule="evenodd" clip-rule="evenodd" d="M172.73 183.803C173.23 181.097 173.956 178.43 174.574 175.744C176.034 169.39 172.044 159.988 172.328 158.507C172.848 155.831 173.417 153.164 174.23 150.556C174.77 148.811 175.378 147.026 175.603 145.203C176.446 138.408 165.955 132.457 166.201 143.006C166.21 143.32 166.23 143.663 166.259 144.006C166.671 148.919 167.387 157.547 168.367 161.802C168.691 163.214 169.054 164.625 169.387 166.027C169.505 166.518 169.622 167.018 169.72 167.518C169.789 167.871 169.858 168.224 169.867 168.577C169.907 170.89 170.181 173.204 170.348 175.508C170.534 178.273 170.74 181.038 170.652 183.823C170.613 185.274 171.093 185.597 171.583 185.558C172.054 185.519 172.485 185.127 172.73 183.803Z" fill="#423E45"/>
<path fill-rule="evenodd" clip-rule="evenodd" d="M177.368 182.126C176.456 183.95 176.054 185.764 177.132 185.715C179.27 185.607 180.721 184.195 181.868 182.519C180.927 183.244 179.789 183.715 178.407 183.793C177.622 183.832 177.328 183.146 177.368 182.126Z" fill="#423E45"/>
<path fill-rule="evenodd" clip-rule="evenodd" d="M165.151 110.122C164.514 111.681 162.298 114.71 162.259 115.74C162.2 117.299 162.837 120.407 163.328 123.407C163.73 125.809 162.494 128.594 163.955 130.682C165.367 132.702 172.995 135.28 175.073 132.457C175.613 132.074 175.348 130.368 175.819 128.956C176.152 127.946 176.613 126.839 177.191 125.682C179.123 121.828 181.848 117.534 180.878 115.201C180.034 113.181 167.916 103.376 165.151 110.122Z" fill="#CA4A6A"/>
<path fill-rule="evenodd" clip-rule="evenodd" d="M162.563 115.828C162.543 116.652 162.7 117.662 162.827 118.466C163.19 120.672 166.004 120.142 168.092 121.093C169.896 121.917 173.936 124.29 174.848 122.731C175.142 122.172 175.779 121.015 176.358 119.77C176.603 119.23 178.613 115.966 178.417 113.926C178.348 113.23 177.946 112.946 177.564 112.671C176.897 112.201 176.132 111.642 175.485 111.181C173.524 109.759 167.69 107.151 165.671 110.2C164.161 112.485 162.729 115.162 162.563 115.828Z" fill="#D85980"/>
<path fill-rule="evenodd" clip-rule="evenodd" d="M176.623 118.495C176.279 121.387 177.76 126.554 177.191 131.388C176.956 133.388 181.731 134.967 182.064 132.466C182.26 131.006 182.721 122.946 182.054 118.338C181.27 112.779 177.211 113.514 176.623 118.495Z" fill="#CA4A6A"/>
<path fill-rule="evenodd" clip-rule="evenodd" d="M163.877 126.221C163.789 127.663 163.455 129.241 164.338 130.457C165.583 132.153 172.348 134.31 174.181 131.937C174.662 131.614 174.427 130.192 174.838 129.006C175.838 126.172 170.318 124.427 168.191 123.545C165.955 122.623 164.416 121.692 163.838 123.574C163.7 124.054 163.926 125.349 163.877 126.221Z" fill="#D85980"/>
<path fill-rule="evenodd" clip-rule="evenodd" d="M164.553 99.7488C160.024 95.0623 170.907 92.1699 174.171 95.2878C174.593 95.6996 175.25 110.808 164.553 99.7488Z" fill="#301E1E"/>
<path fill-rule="evenodd" clip-rule="evenodd" d="M172.465 94.8662C168.7 94.3759 164.847 95.0426 163.965 97.033C163.72 97.582 163.671 98.337 164.553 99.7488C163.112 96.0623 166.524 96.0623 168.445 96.0623C169.563 95.8172 170.828 95.2387 172.465 94.8662Z" fill="#3F2626"/>
<path fill-rule="evenodd" clip-rule="evenodd" d="M168.289 111.897C168.926 110.936 169.034 109.72 168.553 108.063C168.132 108.22 167.053 108.406 166.72 108.367C165.387 108.24 163.857 103.749 164.033 102.367C164.102 101.867 164.23 101.376 164.406 101.023C164.818 100.21 164.455 99.5626 164.396 98.8272C164.22 96.6898 166.377 96.6016 167.818 96.5918C171.808 97.7683 168.995 99.7979 172.505 102.004C172.76 102.171 173.103 101.935 173.26 101.769C173.573 101.455 173.926 101.161 174.279 101.17C174.642 101.18 175.005 101.494 174.907 102.073C174.877 102.249 174.72 102.533 174.573 102.788C174.122 103.553 174.299 104.769 173.397 104.259C173.328 105.386 173.426 107.377 173.544 108.357C173.789 110.318 174.818 110.612 173.23 111.544C171.367 112.661 168.7 112.916 168.289 111.897Z" fill="#EAAD89"/>
<path fill-rule="evenodd" clip-rule="evenodd" d="M167.014 108.367L167.073 108.357L167.014 108.367ZM168.622 108.328C169.524 108.328 170.357 108.455 170.877 109.19C171.387 109.916 171.681 111.093 171.789 112.21C170.21 112.72 168.593 112.681 168.279 111.906C168.887 110.994 169.024 109.847 168.622 108.328Z" fill="#EFC3A9"/>
<path fill-rule="evenodd" clip-rule="evenodd" d="M164.739 98.5139C164.534 99.6022 165.171 100.2 164.818 100.887C164.661 101.2 164.436 101.71 164.377 102.161C164.23 103.328 165.387 107.838 166.514 108.24C166.779 108.338 167.289 108.22 167.573 108.181C168.808 108.005 170.671 106.936 171.318 105.857C173.005 103.063 169.897 101.504 169.916 101.338C168.995 97.3275 164.965 97.3374 164.739 98.5139Z" fill="#EFC3A9"/>
<path fill-rule="evenodd" clip-rule="evenodd" d="M170.681 106.994C171.446 106.573 172.799 105.367 173.416 104.347C173.358 105.484 173.446 107.416 173.573 108.377C173.818 110.338 174.848 110.632 173.259 111.563C172.838 111.808 172.367 112.014 171.897 112.181C172.779 107.21 170.759 107.563 170.681 106.994Z" fill="#EAAD89"/>
<path fill-rule="evenodd" clip-rule="evenodd" d="M167.612 96.543C168.887 95.0527 172.505 94.5723 173.867 95.0429C175.358 95.3371 181.495 102.936 178.613 112.75C178.436 113.338 175.485 115.721 174.946 114.907C175.799 114.328 175.181 109.897 173.916 106.308C173.103 103.994 170.75 102.955 169.651 100.867C168.808 99.2589 168.7 97.2391 167.612 96.543Z" fill="#3F2626"/>
<path fill-rule="evenodd" clip-rule="evenodd" d="M168.867 95.7291C173.955 94.6996 179.671 98.0331 178.142 113.201C176.858 98.3077 174.073 96.2977 168.867 95.7291ZM176.622 114.544C177.034 102.857 172.289 95.8271 167.661 96.533C168.102 96.6213 168.563 96.8468 169.024 97.1801C169.877 97.8076 170.288 98.9352 171.2 100.151C172.249 101.553 173.779 103.131 174.563 105.063C175.789 108.112 176.367 111.681 176.622 114.544Z" fill="#5B3636"/>
<path fill-rule="evenodd" clip-rule="evenodd" d="M173.485 149.693C173.485 149.683 173.485 149.693 173.485 149.683C174.24 148.761 174.985 147.83 175.74 146.908C176.005 143.388 175.75 142.477 177.495 143.183C179.064 143.81 179.191 144.222 177.966 147.614C177.956 148.418 177.77 149.065 177.515 149.654C177.799 150.114 177.711 151.34 176.446 151.742C176.201 152.085 175.524 152.35 175.024 152.232C173.23 151.791 172.603 152.369 173.485 149.693Z" fill="#EAAD89"/>
<path fill-rule="evenodd" clip-rule="evenodd" d="M173.564 149.722C173.26 151.81 174.015 151.006 174.201 150.702C175.476 151.653 176.103 150.673 176.338 149.977C176.427 149.712 176.456 149.31 176.299 149.065L176.28 149.035L176.299 148.996C176.525 148.476 177.142 147.692 176.387 147.408C175.995 147.261 175.427 147.427 174.985 147.976C174.505 148.555 174.034 149.133 173.564 149.722Z" fill="#EFC3A9"/>
<path fill-rule="evenodd" clip-rule="evenodd" d="M182.005 132.977C182.074 132.31 182.123 131.261 181.848 130.82C180.956 129.408 178.701 129.722 177.583 130.898C177.025 131.486 177.142 132.349 177.083 133.212C176.76 138.369 174.848 144.703 175.583 145.223C175.828 145.605 178.034 146.429 178.868 145.811C180.084 144.928 181.848 134.594 182.005 132.977Z" fill="#CA4A6A"/>
<path fill-rule="evenodd" clip-rule="evenodd" d="M177.054 118.495C177.181 117.446 177.485 116.318 178.191 115.495C178.593 115.024 179.505 115.318 179.897 115.671C180.368 116.093 180.623 117.857 180.711 118.495C180.838 119.465 180.887 120.436 180.985 121.407C181.26 124.005 181.368 126.878 181.329 129.544C181.28 132.643 177.75 132.692 177.828 130.191C177.887 128.172 177.603 125.152 177.348 123.142C177.24 122.279 177.132 121.416 177.054 120.554C177.005 119.867 176.975 119.171 177.054 118.495Z" fill="#D85980"/>
<path fill-rule="evenodd" clip-rule="evenodd" d="M181.26 130.76C181.515 128.466 178.103 127.809 177.858 130.643C177.446 135.437 175.475 144.614 175.965 145.016C176.122 145.349 177.838 146.036 178.446 145.379C179.328 144.437 181.093 132.27 181.26 130.76Z" fill="#D85980"/>
<path fill-rule="evenodd" clip-rule="evenodd" d="M113.02 21.4695L112.167 23.5284C111.716 24.6069 110.991 25.0187 110.54 24.45L109.687 23.3617C109.236 22.4695 108.265 22.2244 107.148 22.8519L105.5 23.7833L104.579 24.303C103.03 25.1756 101.765 24.3618 101.765 22.4989V12.9886C101.765 11.1257 103.03 8.88049 104.579 8.00789L110.236 4.81162L112.471 3.54684L118.129 0.350575C119.678 -0.522025 120.942 0.291748 120.942 2.1546V11.665C120.942 13.5278 119.678 15.7731 118.129 16.6457L117.207 17.1653L115.56 18.0967C114.442 18.7242 113.471 20.0674 113.02 21.4695Z" fill="#EBE8F9"/>
<path fill-rule="evenodd" clip-rule="evenodd" d="M116.178 12.3313L114.962 13.0176V8.44872C114.521 9.11543 113.991 9.7135 113.393 10.2527V9.15465C113.707 8.87032 114.06 8.47814 114.423 7.98791C114.795 7.48788 115.05 7.00746 115.187 6.54665L116.178 5.98779V12.3313Z" fill="#D85980"/>
<path fill-rule="evenodd" clip-rule="evenodd" d="M108.922 11.8411C109.726 9.57628 112.06 8.98801 112.06 10.8116C112.06 12.5667 110.491 14.3511 108.922 16.9885C107.353 16.1257 105.785 16.1061 105.785 14.3511C105.785 12.5372 108.118 10.4881 108.922 11.8411Z" fill="#D85980"/>
<path fill-rule="evenodd" clip-rule="evenodd" d="M256.068 34.3132L216.879 11.6844C214.546 10.3412 209.967 11.4001 206.869 12.7923C208.702 12.1452 210.899 12.1256 212.948 13.3022L252.136 35.931C258.244 39.4606 263.245 47.3532 263.245 53.4614C263.245 81.6787 263.245 157.664 263.245 185.881C263.245 190.656 260.176 193.009 255.921 192.097C261.294 193.421 267.176 189.45 267.176 184.263C267.176 156.046 267.176 80.061 267.176 51.8437C267.176 45.7355 262.176 37.8428 256.068 34.3132Z" fill="#111114"/>
<path fill-rule="evenodd" clip-rule="evenodd" d="M252.136 35.9309L212.948 13.3021C209.722 11.4392 206.124 12.5667 204.173 14.4198C202.143 16.3611 201.839 19.1455 201.839 21.9987C201.839 51.569 201.839 126.113 201.839 153.055C201.839 156.879 204.859 162.83 208.908 165.203L252.126 190.567C258.215 194.136 263.235 191.999 263.235 185.891C263.235 157.673 263.235 81.6885 263.235 53.4711C263.245 47.3531 258.254 39.4605 252.136 35.9309Z" fill="#39353B"/>
<path fill-rule="evenodd" clip-rule="evenodd" d="M251.469 38.2547C253.685 39.5391 255.666 41.3922 257.254 43.4021C259.587 46.3434 261.803 50.5986 261.803 54.442C261.803 92.7089 261.803 147.604 261.803 185.871C261.803 191.538 257.156 191.411 253.215 189.097L209.565 163.478C206.388 161.615 203.29 156.399 203.29 152.722C203.29 114.916 203.29 60.4815 203.29 22.6754C203.29 20.489 203.418 17.9006 205.114 16.2829C206.908 14.5671 209.732 14.1553 211.898 15.4004C225.752 23.4205 240.331 31.8132 251.469 38.2547Z" fill="url(#paint0_linear)"/>
<path fill-rule="evenodd" clip-rule="evenodd" d="M260.696 191.479C262.009 190.724 264.284 189.528 264.284 183.959C264.284 147.428 264.666 92.2677 264.666 55.7263C264.666 53.5105 264.745 52.0889 264.313 49.9711C263.46 46.4905 261.892 43.6178 259.715 40.8039C257.833 38.4998 256.009 36.8037 253.46 35.2545L234.645 24.3617C229.125 21.1655 213.85 12.5669 211.183 12.5571C211.781 12.714 212.379 12.9493 212.967 13.2925L252.156 35.9212H252.166C252.734 36.2448 253.293 36.6174 253.832 37.0095L253.842 37.0194L253.852 37.0292C255.313 38.0978 256.686 39.4116 257.901 40.8529C260.196 43.5688 261.941 46.7846 262.755 49.8632C263.078 51.0888 263.255 52.3046 263.255 53.4517V53.8831C263.264 54.5694 263.255 55.3047 263.255 56.1773C263.255 79.3258 263.255 102.474 263.255 125.613C263.255 138.584 263.255 170.164 263.255 183.136V185.861C263.255 186.048 263.255 186.234 263.245 186.42V186.43C263.206 187.165 263.088 187.842 262.902 188.45C262.804 188.783 262.676 189.097 262.519 189.411C262.215 190.028 261.823 190.548 261.352 190.979C261.137 191.175 260.921 191.332 260.696 191.479Z" fill="#111114"/>
<path fill-rule="evenodd" clip-rule="evenodd" d="M252.136 35.9309L212.948 13.3021C211.83 12.655 210.673 12.3707 209.555 12.3511C209.967 12.4981 210.379 12.6844 210.781 12.9197L250.96 36.127C257.205 39.735 262.313 47.8041 262.313 54.0496C262.313 82.8944 262.313 160.134 262.313 188.979C262.313 189.273 262.304 189.567 262.274 189.842C262.892 188.822 263.235 187.489 263.235 185.891C263.235 157.673 263.235 81.6885 263.235 53.4711C263.245 47.3531 258.254 39.4605 252.136 35.9309Z" fill="#4B474F"/>
<path fill-rule="evenodd" clip-rule="evenodd" d="M251.469 38.2546C253.685 39.539 255.666 41.3921 257.254 43.402C259.588 46.3433 261.803 50.5985 261.803 54.4418C261.803 92.7088 261.803 147.604 261.803 185.871C261.803 188.577 260.744 189.969 259.195 190.42C260.627 189.881 261.333 188.312 261.333 186.244C261.333 147.977 260.803 93.1892 260.803 54.9223C260.803 51.0789 258.587 46.8237 256.254 43.8824C254.666 41.8823 252.685 40.0194 250.469 38.735C237.331 31.1366 224.085 23.5087 210.889 15.8808C209.428 15.0376 207.653 14.9493 206.104 15.5278C207.839 14.4885 210.094 14.3709 211.879 15.4101C225.076 23.0282 238.312 30.6365 251.469 38.2546Z" fill="url(#paint1_linear)"/>
<g opacity="0.2">
<path fill-rule="evenodd" clip-rule="evenodd" d="M209.311 113.131L250.637 137.103V139.143L209.311 115.161V113.131Z" fill="white"/>
<path fill-rule="evenodd" clip-rule="evenodd" d="M209.311 116.484L250.637 140.456V142.496L209.311 118.524V116.484Z" fill="white"/>
<path fill-rule="evenodd" clip-rule="evenodd" d="M214.713 103.935L240.92 119.132V121.201L214.713 106.004V103.935ZM208.948 100.592L212.762 102.808V104.876L208.948 102.661V100.592ZM243.371 120.564L250.999 124.995V127.064L243.371 122.632V120.564ZM208.948 104.818V106.886L251.009 131.28V129.211L208.948 104.818Z" fill="white"/>
</g>
<path fill-rule="evenodd" clip-rule="evenodd" d="M240.822 142.535L232.772 137.849C232.174 137.506 231.684 137.8 231.684 138.515V148.604C231.684 149.32 232.174 150.193 232.772 150.536L240.822 155.222C241.42 155.565 241.91 155.271 241.91 154.556V144.467C241.9 143.751 241.41 142.878 240.822 142.535Z" fill="white"/>
<path fill-rule="evenodd" clip-rule="evenodd" d="M236.792 144.221C236.37 143.045 235.939 142.339 235.096 141.849C234.155 141.3 233.4 141.692 233.4 142.712C233.4 144.565 235.096 147.408 236.802 150.241C238.498 149.379 240.204 148.516 240.204 146.663C240.204 145.643 239.439 144.368 238.508 143.819C237.645 143.329 237.214 143.545 236.792 144.221Z" fill="#D85980"/>
<path fill-rule="evenodd" clip-rule="evenodd" d="M223.684 132.564L215.634 127.877C215.036 127.534 214.546 127.828 214.546 128.544V138.633C214.546 139.349 215.036 140.221 215.634 140.564L223.684 145.251C224.282 145.594 224.772 145.3 224.772 144.584V134.496C224.772 133.78 224.282 132.907 223.684 132.564Z" fill="white"/>
<path fill-rule="evenodd" clip-rule="evenodd" d="M219.654 132.063L218.497 134.044L216.026 133.113L217.781 136.279L217.418 139.044L219.654 139.015L221.899 141.652L221.536 138.466L223.291 137.338L220.821 135.397L219.654 132.063Z" fill="#F1CC36"/>
<path fill-rule="evenodd" clip-rule="evenodd" d="M237.724 158.271L218.723 147.3C217.948 146.849 217.311 147.124 217.311 147.898V158.801C217.311 159.575 217.948 160.575 218.723 161.017L237.724 171.988C238.498 172.439 239.136 172.164 239.136 171.39V160.487C239.136 159.722 238.498 158.722 237.724 158.271Z" fill="white"/>
<path fill-rule="evenodd" clip-rule="evenodd" d="M237.724 157.968L218.723 146.996C218.252 146.722 217.821 146.673 217.517 146.8C217.203 146.928 217.017 147.251 217.017 147.722V148.281V158.625C217.017 158.772 217.036 158.928 217.076 159.085H217.066L217.144 159.321C217.174 159.409 217.203 159.507 217.242 159.595L217.252 159.615C217.262 159.634 217.272 159.664 217.282 159.683V159.693C217.301 159.732 217.321 159.781 217.34 159.821L217.36 159.86C217.409 159.948 217.458 160.046 217.517 160.134C217.791 160.556 218.144 160.948 218.546 161.223L218.556 161.233C218.586 161.252 218.605 161.272 218.635 161.282L218.674 161.301L218.693 161.311L218.742 161.34L237.744 172.312L237.773 172.331H237.783L237.793 172.341L237.812 172.351L237.822 172.361C237.842 172.37 237.861 172.38 237.881 172.39L237.91 172.4C238.312 172.596 238.675 172.616 238.95 172.508C239.146 172.429 239.293 172.272 239.381 172.047L239.44 171.919L239.43 171.9C239.45 171.802 239.459 171.694 239.459 171.586V160.929V160.683C239.459 160.213 239.263 159.674 238.959 159.183C238.626 158.674 238.204 158.242 237.724 157.968ZM217.625 149.075L224.37 157.821L217.625 158.987V158.977V149.075ZM231.939 162.213L238.832 161.017V171.135L231.939 162.213ZM224.88 157.732L217.625 148.32V148.075C217.625 147.771 217.752 147.565 217.948 147.487C218.144 147.398 218.419 147.438 218.723 147.614L237.724 158.585C238.028 158.762 238.302 159.046 238.499 159.36L238.508 159.379L238.528 159.409L238.548 159.438V159.448L238.567 159.477L238.577 159.497L238.587 159.517V159.527C238.597 159.546 238.606 159.566 238.616 159.585V159.595L238.636 159.634L238.646 159.664L238.675 159.723V159.732L238.685 159.752L238.695 159.772L238.704 159.801L238.714 159.84L238.724 159.879L238.734 159.899L238.744 159.938V159.948V159.958C238.753 159.978 238.753 159.997 238.763 160.027C238.783 160.105 238.793 160.174 238.802 160.252V160.262V160.301L231.4 161.585L230.322 161.772C229.753 161.87 228.978 161.644 228.194 161.193C227.41 160.742 226.625 160.076 226.027 159.291L224.88 157.732ZM231.429 162.301L238.675 171.694C238.626 171.743 238.567 171.782 238.508 171.812C238.332 171.88 238.106 171.87 237.851 171.753L237.842 171.743L237.802 171.723L237.763 171.704H237.753L237.724 171.694L218.723 160.723L218.703 160.713C218.693 160.703 218.674 160.693 218.664 160.683H218.654L218.644 160.674L218.595 160.644H218.586C218.37 160.497 218.184 160.301 218.027 160.085L218.017 160.076L218.007 160.066L217.997 160.046L217.978 160.017L217.968 159.997L217.958 159.987L217.948 159.978L217.938 159.958V159.948V159.938L217.909 159.899C217.87 159.84 217.84 159.781 217.811 159.723L224.88 158.497L225.684 159.536C226.39 160.458 227.302 161.233 228.214 161.762C229.116 162.282 230.018 162.546 230.704 162.429L231.429 162.301Z" fill="#CA4A6A"/>
<path fill-rule="evenodd" clip-rule="evenodd" d="M241.508 92.3755C239.331 94.4148 219.958 92.9245 219.281 92.9245C216.506 88.9341 222.771 73.3547 220.252 70.7467C228.193 66.1876 232.046 65.5602 237.341 62.8247C243.851 69.2565 246.145 88.0223 241.508 92.3755Z" fill="#301E1E"/>
<path fill-rule="evenodd" clip-rule="evenodd" d="M219.428 89.7972C214.977 100.631 228.958 106.7 239.155 108.288C241.919 108.72 243.841 106.573 244.684 103.278C245.537 99.9449 246.547 96.4054 244.89 94.9642C237.811 88.7677 223.418 80.0809 219.428 89.7972Z" fill="#CA4A6A"/>
<path fill-rule="evenodd" clip-rule="evenodd" d="M241.939 104.798C243.106 102.445 244.43 99.2386 244.204 96.8953C244.008 94.8854 240.351 92.9343 238.733 91.7578C235.066 89.1008 223.987 84.1103 220.409 89.9243C214.977 98.7386 229.958 105.18 236.057 106.641C238.469 107.229 240.89 106.925 241.939 104.798Z" fill="#D85980"/>
<path fill-rule="evenodd" clip-rule="evenodd" d="M220.252 70.7467C212.212 62.4324 231.527 57.2851 237.341 62.8246C238.077 63.5502 239.253 90.3949 220.252 70.7467Z" fill="#301E1E"/>
<path fill-rule="evenodd" clip-rule="evenodd" d="M234.301 62.0799C227.615 61.2073 220.771 62.3839 219.212 65.9233C218.781 66.9037 218.693 68.247 220.252 70.7471C217.683 64.2075 223.752 64.1977 227.154 64.2075C229.144 63.7761 231.399 62.7466 234.301 62.0799Z" fill="#3F2626"/>
<path fill-rule="evenodd" clip-rule="evenodd" d="M226.889 92.3264C228.017 90.6204 228.203 88.4536 227.36 85.522C226.615 85.7966 224.693 86.1299 224.105 86.0711C221.742 85.8456 219.016 77.8745 219.33 75.4234C219.448 74.5312 219.673 73.6684 219.987 73.0507C220.722 71.5996 220.075 70.4525 219.967 69.1583C219.663 65.364 223.477 65.2071 226.046 65.1875C233.135 67.2857 228.134 70.8839 234.38 74.8057C234.841 75.09 235.439 74.6783 235.733 74.3841C236.282 73.8351 236.909 73.3154 237.547 73.335C238.184 73.3546 238.831 73.9135 238.664 74.9332C238.615 75.2567 238.331 75.7469 238.066 76.198C237.262 77.5608 237.576 79.7178 235.978 78.8059C235.86 80.8159 236.027 84.3357 236.243 86.0809C236.674 89.5615 238.498 90.0811 235.684 91.7381C232.36 93.6794 227.625 94.1402 226.889 92.3264Z" fill="#EAAD89"/>
<path fill-rule="evenodd" clip-rule="evenodd" d="M224.625 86.0613V86.0515H224.732L224.625 86.0613ZM227.487 85.9829C229.095 85.9829 230.576 86.2084 231.497 87.5124C232.409 88.7968 232.929 90.895 233.125 92.8657C230.321 93.7677 227.458 93.6991 226.899 92.3264C227.958 90.7185 228.184 88.689 227.487 85.9829Z" fill="#EFC3A9"/>
<path fill-rule="evenodd" clip-rule="evenodd" d="M220.575 68.5507C220.203 70.492 221.34 71.5411 220.722 72.7568C220.448 73.3059 220.036 74.2275 219.938 75.0119C219.673 77.0806 221.732 85.0909 223.742 85.7968C224.213 85.9635 225.125 85.7674 225.625 85.6988C227.821 85.3752 231.135 83.483 232.282 81.5711C235.282 76.6002 229.752 73.8353 229.782 73.5412C228.144 66.4525 220.977 66.4722 220.575 68.5507Z" fill="#EFC3A9"/>
<path fill-rule="evenodd" clip-rule="evenodd" d="M231.135 83.6105C232.498 82.8555 234.89 80.7279 235.988 78.9043C235.88 80.9338 236.047 84.3556 236.263 86.0714C236.694 89.552 238.518 90.0716 235.704 91.7286C234.949 92.1698 234.125 92.5326 233.292 92.8169C234.86 84.0026 231.272 84.6203 231.135 83.6105Z" fill="#EAAD89"/>
<path fill-rule="evenodd" clip-rule="evenodd" d="M225.683 65.05C227.948 62.3929 234.37 61.5498 236.802 62.3733C239.449 62.893 250.342 76.3938 245.234 93.8164C244.92 94.8654 239.674 99.101 238.714 97.6401C240.223 96.6106 239.135 88.7474 236.88 82.3647C235.439 78.2566 231.252 76.4036 229.301 72.6975C227.811 69.8738 227.625 66.2853 225.683 65.05Z" fill="#3F2626"/>
<path fill-rule="evenodd" clip-rule="evenodd" d="M227.919 63.5989C236.959 61.7655 247.107 67.6874 244.391 94.6204C242.116 68.1972 237.165 64.6186 227.919 63.5989ZM241.685 97.0225C242.42 76.2761 233.988 63.7754 225.772 65.0402C226.556 65.1971 227.37 65.599 228.184 66.1873C229.704 67.2952 230.429 69.3051 232.047 71.4719C233.91 73.9721 236.635 76.7664 238.018 80.1881C240.214 85.6002 241.243 91.9437 241.685 97.0225Z" fill="#5B3636"/>
<path fill-rule="evenodd" clip-rule="evenodd" d="M241.459 57.4127C241.263 58.4814 240.979 59.2363 240.881 60.256C240.842 60.658 241.351 61.3541 241.636 61.2756C242.852 60.9129 242.822 60.6776 243.538 60.5305C243.989 61.1384 244.469 61.707 244.989 62.2267C248.97 66.2759 253.333 66.1387 254.725 61.9423C256.117 57.7362 254.019 51.0495 250.038 47.0003C246.058 42.951 241.695 43.0883 240.302 47.2846C239.41 49.9711 239.949 53.687 241.499 57.0695C241.479 57.1872 241.459 57.295 241.459 57.4127Z" fill="white"/>
<path fill-rule="evenodd" clip-rule="evenodd" d="M247.509 52.1378C246.479 49.1376 243.499 48.3925 243.499 50.824C243.499 53.1574 245.499 55.5105 247.509 59.0009C249.509 57.8146 251.519 57.7754 251.519 55.4419C251.509 53.0006 248.538 50.3239 247.509 52.1378Z" fill="#D85980"/>
<path fill-rule="evenodd" clip-rule="evenodd" d="M228.577 38.6078L209.576 27.6365C208.801 27.1855 208.164 27.46 208.164 28.2346V39.1372C208.164 39.9118 208.801 40.9118 209.576 41.353L228.577 52.3243C229.351 52.7753 229.989 52.5007 229.989 51.7262V40.8236C229.979 40.049 229.351 39.049 228.577 38.6078Z" fill="white"/>
<path fill-rule="evenodd" clip-rule="evenodd" d="M228.576 38.2938L209.575 27.3225C209.105 27.048 208.673 26.999 208.369 27.1265C208.055 27.2539 207.869 27.5775 207.869 28.0481V28.6069V38.9507C207.869 39.0978 207.889 39.2546 207.928 39.4115H207.918L207.997 39.6468C208.026 39.735 208.055 39.8331 208.095 39.9213L208.104 39.9409C208.114 39.9605 208.124 39.99 208.134 40.0096V40.0194C208.153 40.0586 208.173 40.1076 208.193 40.1468L208.212 40.1861C208.261 40.2743 208.31 40.3723 208.369 40.4606C208.644 40.8822 208.997 41.2743 209.399 41.5489L209.408 41.5587C209.438 41.5783 209.457 41.5979 209.487 41.6077L209.526 41.6273L209.546 41.6371L209.595 41.6665L228.596 52.6378L228.625 52.6574H228.635L228.645 52.6672L228.664 52.677L228.674 52.6868C228.694 52.6966 228.714 52.7064 228.733 52.7162L228.763 52.726C229.165 52.9221 229.527 52.9417 229.802 52.8339C229.998 52.7554 230.145 52.5985 230.233 52.373L230.292 52.2456L230.282 52.226C230.302 52.1279 230.312 52.0201 230.312 51.9122V41.2449V40.9998C230.312 40.5292 230.116 39.99 229.812 39.4997C229.478 39.0095 229.047 38.5683 228.576 38.2938ZM208.467 29.4011L215.213 38.1467L208.467 39.3135V39.3036V29.4011ZM222.792 42.5391L229.684 41.343V51.471L222.792 42.5391ZM215.723 38.0585L208.467 28.6462V28.401C208.467 28.0971 208.595 27.8912 208.791 27.8128C208.987 27.7245 209.261 27.7638 209.565 27.9402L228.566 38.9115C228.87 39.0879 229.145 39.3723 229.341 39.686L229.351 39.7056L229.37 39.735L229.39 39.7645V39.7743L229.41 39.8037L229.419 39.8233L229.429 39.8429V39.8527C229.439 39.8723 229.449 39.8919 229.459 39.9115V39.9213L229.478 39.9605L229.488 39.99L229.517 40.0488V40.0586L229.527 40.0782L229.537 40.0978L229.547 40.1272L229.557 40.1664L229.566 40.2057L229.576 40.2253L229.586 40.2645V40.2743V40.2841C229.596 40.3037 229.596 40.3233 229.606 40.3527C229.625 40.4312 229.635 40.4998 229.645 40.5782V40.588V40.6273L222.243 41.9116L221.164 42.0979C220.595 42.196 219.821 41.9705 219.036 41.5195C218.252 41.0685 217.468 40.4018 216.87 39.6174L215.723 38.0585ZM222.272 42.6372L229.517 52.0299C229.468 52.0789 229.41 52.1181 229.351 52.1475C229.174 52.2162 228.949 52.2064 228.694 52.0887L228.684 52.0789L228.645 52.0593L228.606 52.0397H228.596L228.566 52.0299L209.565 41.0587L209.546 41.0488C209.536 41.039 209.516 41.0292 209.506 41.0194H209.497L209.487 41.0096L209.438 40.9802H209.428C209.212 40.8331 209.026 40.6371 208.869 40.4214L208.859 40.4116L208.85 40.4018L208.84 40.3821L208.82 40.3527L208.81 40.3331L208.801 40.3233L208.791 40.3135L208.781 40.2939V40.2841V40.2743L208.752 40.2351C208.712 40.1762 208.683 40.1174 208.654 40.0586L215.723 38.833L216.527 39.8723C217.232 40.7939 218.144 41.5685 219.056 42.0979C219.958 42.6176 220.86 42.8823 221.546 42.7646L222.272 42.6372Z" fill="#CA4A6A"/>
<path fill-rule="evenodd" clip-rule="evenodd" d="M212.595 26.5484C211.487 25.9111 210.585 26.519 210.585 27.9112C210.585 29.3034 211.487 30.9506 212.595 31.5879C213.703 32.2252 214.605 31.6173 214.605 30.2251C214.595 28.8328 213.703 27.1857 212.595 26.5484Z" fill="#594AD3"/>
<path fill-rule="evenodd" clip-rule="evenodd" d="M175.877 77.3943C178.299 72.9136 185.26 74.7177 185.26 79.2375C185.26 83.5907 180.564 85.8164 175.877 90.1696C171.181 85.8164 166.494 83.5907 166.494 79.2375C166.494 74.7275 173.455 72.9136 175.877 77.3943Z" fill="#C52F79"/>
<path fill-rule="evenodd" clip-rule="evenodd" d="M167.465 81.1693C168.582 79.0907 171.808 79.9339 171.808 82.0223C171.808 84.042 169.632 85.0715 167.465 87.0814C165.288 85.0617 163.121 84.0322 163.121 82.0223C163.121 79.9241 166.347 79.0907 167.465 81.1693Z" fill="#DF66A3"/>
<path fill-rule="evenodd" clip-rule="evenodd" d="M184.574 63.8637C185.691 61.7852 188.917 62.6283 188.917 64.7167C188.917 66.7364 186.74 67.7659 184.574 69.7758C182.397 67.7561 180.23 66.7266 180.23 64.7167C180.23 62.6283 183.456 61.7852 184.574 63.8637Z" fill="#DF66A3"/>
<path fill-rule="evenodd" clip-rule="evenodd" d="M192.829 40.1372C193.496 38.9018 195.408 39.4018 195.408 40.647C195.408 41.8431 194.113 42.4608 192.829 43.657C191.535 42.4608 190.25 41.8431 190.25 40.647C190.25 39.4018 192.162 38.9018 192.829 40.1372Z" fill="#E698C2"/>
<path fill-rule="evenodd" clip-rule="evenodd" d="M189.182 53.2163C189.849 51.9809 191.76 52.4809 191.76 53.7261C191.76 54.9222 190.466 55.5399 189.182 56.7361C187.888 55.5399 186.603 54.9222 186.603 53.7261C186.594 52.4809 188.515 51.9809 189.182 53.2163Z" fill="#E698C2"/>
<path fill-rule="evenodd" clip-rule="evenodd" d="M193.359 69.0412C194.153 67.5705 196.427 68.1686 196.427 69.6393C196.427 71.0609 194.888 71.7962 193.359 73.2179C191.819 71.7962 190.29 71.0609 190.29 69.6393C190.28 68.1588 192.564 67.5705 193.359 69.0412Z" fill="#DF66A3"/>
<path fill-rule="evenodd" clip-rule="evenodd" d="M168.308 59.707C169.485 57.5304 172.857 58.4128 172.857 60.5992C172.857 62.7072 170.583 63.7955 168.308 65.9035C166.033 63.7955 163.759 62.7072 163.759 60.5992C163.759 58.403 167.132 57.5304 168.308 59.707Z" fill="#C52F79"/>
<path fill-rule="evenodd" clip-rule="evenodd" d="M175.877 43.52C176.544 42.2846 178.456 42.7846 178.456 44.0298C178.456 45.226 177.161 45.8436 175.877 47.0398C174.583 45.8436 173.298 45.226 173.298 44.0298C173.298 42.7846 175.21 42.2846 175.877 43.52Z" fill="#E698C2"/>
<path fill-rule="evenodd" clip-rule="evenodd" d="M121.139 73.9236C123.56 69.4429 130.522 71.247 130.522 75.7668C130.522 80.12 125.825 82.3457 121.139 86.6989C116.442 82.3457 111.756 80.12 111.756 75.7668C111.756 71.247 118.717 69.4429 121.139 73.9236Z" fill="#C52F79"/>
<path fill-rule="evenodd" clip-rule="evenodd" d="M129.835 60.3935C130.953 58.3149 134.179 59.1581 134.179 61.2465C134.179 63.2662 132.002 64.2957 129.835 66.3056C127.659 64.2859 125.492 63.2564 125.492 61.2465C125.492 59.1581 128.718 58.3149 129.835 60.3935Z" fill="#DF66A3"/>
<path fill-rule="evenodd" clip-rule="evenodd" d="M105.589 49.1772C106.255 47.9418 108.167 48.4419 108.167 49.687C108.167 50.8832 106.873 51.5009 105.589 52.697C104.294 51.5009 103.01 50.8832 103.01 49.687C103.01 48.4419 104.932 47.9418 105.589 49.1772Z" fill="#E698C2"/>
<path fill-rule="evenodd" clip-rule="evenodd" d="M104.373 69.276C105.167 67.8054 107.442 68.4034 107.442 69.8741C107.442 71.2958 105.902 72.0311 104.373 73.4528C102.833 72.0311 101.304 71.2958 101.304 69.8741C101.294 68.3936 103.579 67.8054 104.373 69.276Z" fill="#DF66A3"/>
<path fill-rule="evenodd" clip-rule="evenodd" d="M113.56 56.2363C114.736 54.0597 118.109 54.9421 118.109 57.1285C118.109 59.2365 115.834 60.3248 113.56 62.4328C111.285 60.3248 109.01 59.2365 109.01 57.1285C109.01 54.9323 112.393 54.0597 113.56 56.2363Z" fill="#C52F79"/>
<path fill-rule="evenodd" clip-rule="evenodd" d="M121.139 40.0395C121.805 38.8041 123.717 39.3042 123.717 40.5493C123.717 41.7455 122.423 42.3632 121.139 43.5593C119.844 42.3632 118.56 41.7455 118.56 40.5493C118.55 39.3042 120.472 38.8139 121.139 40.0395Z" fill="#E698C2"/>
<path fill-rule="evenodd" clip-rule="evenodd" d="M108.167 33.6664C109.285 31.5878 112.511 32.431 112.511 34.5194C112.511 36.5391 110.334 37.5686 108.167 39.5785C105.991 37.5587 103.824 36.5293 103.824 34.5194C103.814 32.4212 107.05 31.5878 108.167 33.6664Z" fill="#DF66A3"/>
<path fill-rule="evenodd" clip-rule="evenodd" d="M43.3595 34.3132L82.5481 11.6747C84.8815 10.3314 89.4602 11.3903 92.5584 12.7826C90.725 12.1355 88.5288 12.1159 86.4797 13.2924L47.2911 35.931C41.1731 39.4606 36.1826 47.3532 36.1826 53.4614C36.1826 81.6788 36.1826 157.664 36.1826 185.881C36.1826 190.656 39.2514 193.009 43.5065 192.097C38.1337 193.421 32.251 189.45 32.251 184.263C32.251 156.046 32.251 80.061 32.251 51.8437C32.251 45.7355 37.2513 37.8429 43.3595 34.3132Z" fill="#111114"/>
<path fill-rule="evenodd" clip-rule="evenodd" d="M47.2913 35.9309L86.4799 13.3021C89.7056 11.4392 93.3038 12.5667 95.2549 14.4198C97.2845 16.3611 97.5884 19.1455 97.5884 21.9987C97.5884 51.569 97.5884 126.113 97.5884 153.055C97.5884 156.879 94.5686 162.83 90.5194 165.203L47.3011 190.567C41.2125 194.136 36.1926 191.999 36.1926 185.891C36.1926 157.673 36.1926 81.6885 36.1926 53.4711C36.1828 47.3531 41.1831 39.4605 47.2913 35.9309Z" fill="#39353B"/>
<path fill-rule="evenodd" clip-rule="evenodd" d="M47.968 38.2547C45.7522 39.5391 43.7716 41.3922 42.1833 43.4021C39.8498 46.3434 37.634 50.5986 37.634 54.442C37.634 92.7089 37.634 147.604 37.634 185.871C37.634 191.538 42.2814 191.411 46.2228 189.097L89.8724 163.478C93.049 161.615 96.1473 156.399 96.1473 152.722C96.1473 114.916 96.1473 60.4815 96.1473 22.6754C96.1473 20.489 96.0198 17.9006 94.3236 16.2829C92.5294 14.5671 89.7057 14.1553 87.5389 15.4004C73.6754 23.4205 59.0961 31.8132 47.968 38.2547Z" fill="url(#paint2_linear)"/>
<path fill-rule="evenodd" clip-rule="evenodd" d="M38.732 191.479C37.4182 190.724 35.1436 189.528 35.1436 183.959C35.1436 147.428 34.7612 92.2677 34.7612 55.7263C34.7612 53.5105 34.6828 52.0889 35.1142 49.9711C35.9671 46.4905 37.5359 43.6178 39.7125 40.8039C41.5949 38.4998 43.4186 36.8037 45.9677 35.2545L64.7826 24.3617C70.3025 21.1655 85.5779 12.5669 88.2447 12.5571C87.6467 12.714 87.0486 12.9493 86.4603 13.2925L47.2913 35.9311H47.2815C46.7129 36.2546 46.154 36.6272 45.6148 37.0194L45.605 37.0292L45.5952 37.039C44.1343 38.1077 42.7617 39.4215 41.5459 40.8627C39.2517 43.5786 37.5065 46.7944 36.6927 49.8731C36.3691 51.0986 36.1927 52.3144 36.1927 53.4615V53.8929C36.1828 54.5792 36.1927 55.3145 36.1927 56.1871C36.1927 79.3356 36.1927 102.484 36.1927 125.623C36.1927 138.594 36.1927 170.174 36.1927 183.146V185.871C36.1927 186.058 36.1927 186.244 36.2025 186.43V186.44C36.2417 187.175 36.3593 187.852 36.5456 188.46C36.6437 188.793 36.7711 189.107 36.928 189.42C37.2319 190.038 37.6241 190.558 38.0947 190.989C38.2908 191.175 38.5065 191.332 38.732 191.479Z" fill="#111114"/>
<path fill-rule="evenodd" clip-rule="evenodd" d="M47.2914 35.9309L86.4799 13.3021C87.5977 12.655 88.7546 12.3707 89.8723 12.3511C89.4605 12.4981 89.0487 12.6844 88.6467 12.9197L48.4581 36.1172C42.2126 39.7252 37.1045 47.7943 37.1045 54.0398C37.1045 82.8846 37.1045 160.124 37.1045 188.969C37.1045 189.263 37.1143 189.558 37.1437 189.832C36.526 188.812 36.1829 187.479 36.1829 185.881C36.1829 157.664 36.1829 81.6787 36.1829 53.4613C36.1829 47.3531 41.1734 39.4605 47.2914 35.9309Z" fill="#111114"/>
<path fill-rule="evenodd" clip-rule="evenodd" d="M47.968 38.2546C45.7522 39.539 43.7716 41.3921 42.1833 43.402C39.8498 46.3433 37.634 50.5985 37.634 54.4418C37.634 92.7088 37.634 147.604 37.634 185.871C37.634 188.577 38.6929 189.969 40.242 190.42C38.8106 189.881 38.1046 188.312 38.1046 186.244C38.1046 147.977 38.6341 93.1892 38.6341 54.9223C38.6341 51.0789 40.8499 46.8237 43.1834 43.8824C44.7717 41.8823 46.7522 40.0194 48.968 38.735C62.1061 31.1366 75.3519 23.5087 88.5488 15.8808C90.0097 15.0376 91.7843 14.9493 93.3334 15.5278C91.598 14.4885 89.343 14.3709 87.5585 15.4101C74.3617 23.0282 61.1158 30.6365 47.968 38.2546Z" fill="url(#paint3_linear)"/>
<path fill-rule="evenodd" clip-rule="evenodd" d="M82.0874 89.7972C86.5387 100.631 72.5574 106.7 62.3608 108.288C59.5959 108.72 57.6742 106.573 56.831 103.278C55.978 99.9449 54.9682 96.4054 56.6251 94.9642C63.704 88.7677 78.0872 80.0809 82.0874 89.7972Z" fill="#39353B"/>
<path fill-rule="evenodd" clip-rule="evenodd" d="M59.5663 104.798C58.3995 102.445 57.0759 99.2391 57.3014 96.8958C57.4975 94.8859 61.1546 92.9348 62.7724 91.7583C66.4392 89.1013 77.5183 84.1108 81.097 89.9248C86.5287 98.7391 71.5474 105.181 65.449 106.641C63.0469 107.23 60.6154 106.926 59.5663 104.798Z" fill="#423E45"/>
<path fill-rule="evenodd" clip-rule="evenodd" d="M61.3408 66.5798C60.5663 67.4033 60.1055 68.5113 60.1055 69.9917C60.1055 71.982 60.5467 74.9332 61.3997 77.6098C62.1742 80.0511 62.635 81.6003 63.9979 83.1886C64.5469 83.8259 65.6352 83.8945 66.3117 83.8945C74.773 83.8945 78.2634 73.6978 81.1263 71.4624C82.4793 70.4035 82.95 67.8544 82.1852 65.266C80.9498 61.0991 76.7633 56.8243 69.7727 58.4322C64.8901 59.5303 61.1349 62.4129 61.3408 66.5798Z" fill="#301E1E"/>
<path fill-rule="evenodd" clip-rule="evenodd" d="M69.8315 95.1402C71.9591 95.4736 77.0574 95.8266 78.0869 93.297C78.3908 92.542 77.7143 91.7969 77.0869 91.5126C75.1554 90.6498 66.2529 89.0713 63.4684 90.1596C62.488 90.5419 62.6546 91.591 63.2331 92.3362C64.39 93.8068 68.0863 94.8657 69.8315 95.1402Z" fill="#39353B"/>
<path fill-rule="evenodd" clip-rule="evenodd" d="M76.8418 92.7972C75.7143 91.0912 75.6064 89.5029 76.4594 86.5713C76.6457 86.5811 77.3026 86.7282 77.4693 86.7086C79.8321 86.4733 82.3519 78.5806 82.0382 76.1295C81.9205 75.2373 81.695 74.3745 81.3813 73.7568C80.6459 72.3058 81.293 71.1684 81.4009 69.8644C81.4989 68.5997 81.2636 67.3349 80.7538 66.2466C80.6557 66.3936 80.5479 66.5505 80.4302 66.7074C79.2243 68.2565 73.1161 69.1095 70.5963 68.2075C69.6649 67.8741 69.4198 68.7957 69.3511 69.6683C69.2335 71.0802 68.8805 72.4724 67.7334 72.9627C67.753 73.345 67.7824 73.7372 67.8314 74.149C67.9589 75.1295 68.155 76.0707 68.4393 76.9727C68.4393 76.9727 67.4785 77.5806 67.3608 77.6688C66.2431 71.5018 63.1645 73.8255 62.9194 76.3844C62.7527 78.11 63.5371 81.973 65.2431 81.1298C65.3607 83.1397 65.3411 85.0222 65.1254 86.7674C64.694 90.248 62.8704 90.7676 65.6843 92.4246C69.0178 94.3855 76.1064 94.6012 76.8418 92.7972Z" fill="#EAAD89"/>
<path fill-rule="evenodd" clip-rule="evenodd" d="M76.842 92.7972C75.8419 91.2873 75.6458 89.8755 76.1948 87.542C74.1261 87.5714 71.8318 87.0616 70.6553 88.7185C69.8219 89.8951 69.3905 91.9246 69.2925 93.6796C72.5966 94.3365 76.3223 94.0816 76.842 92.7972Z" fill="#EFC3A9"/>
<path fill-rule="evenodd" clip-rule="evenodd" d="M80.744 66.2368L80.7637 66.2858L80.7833 66.3348L80.8029 66.3839L80.8225 66.4329L80.8421 66.4819L80.8617 66.5309L80.8813 66.5799L80.9009 66.629L80.9205 66.678L80.9401 66.727L80.9598 66.776L80.9794 66.8251L80.999 66.8741L81.0186 66.9231L81.0382 66.9721L81.0578 67.0211L81.0774 67.08L81.097 67.1388L81.1166 67.1976L81.1362 67.2565L81.1558 67.3153L81.1754 67.3741L81.1852 67.4329L81.1951 67.4918L81.2049 67.5506L81.2147 67.6094L81.2245 67.6683L81.2343 67.7271L81.2441 67.7859L81.2539 67.8447L81.2637 67.9036L81.2735 67.9624L81.2833 68.0212L81.2931 68.08L81.3029 68.1389L81.3127 68.1977L81.3225 68.2565L81.3323 68.3153L81.3421 68.3742L81.3519 68.433L81.3617 68.4918L81.3715 68.5507L81.3813 68.6095L81.3911 68.6683V68.7271V68.786V68.8448V68.9036V68.9624V69.0213V69.0801V69.1389V69.1977V69.2566V69.3154V69.4331V69.5507V69.6095V69.6684V69.7272V69.786V69.8449L81.3813 69.9037C81.2637 71.1783 80.6558 72.3058 81.3715 73.7372C81.6853 74.3647 81.9108 75.2177 82.0284 76.1099C82.3324 78.4532 80.0283 85.8164 77.7537 86.6203C77.2144 86.8066 76.1948 86.5909 75.6163 86.5027C73.126 86.1399 70.4297 85.5811 69.1257 83.4143C68.361 82.1495 68.6355 77.0512 69.4983 75.7864C69.8905 75.2177 71.0866 75.404 71.3709 74.9334C71.6553 74.4824 71.0278 73.3647 70.9788 72.9627C70.7729 71.2273 70.6552 69.6291 70.7435 68.2369C71.2729 68.4036 71.9396 68.5016 72.6749 68.531L72.8416 68.5408C72.9593 68.5408 73.0671 68.5507 73.1848 68.5507H73.3613H73.3711H73.5377H73.5475H73.7142H73.7338H73.9005H73.9201L74.0868 68.5408H74.1064L74.2633 68.531H74.2927L74.4496 68.5212H74.479L74.6358 68.5114H74.6751L74.8221 68.5016H74.8613L75.0084 68.4918H75.0476L75.1947 68.482H75.2437L75.381 68.4624L75.43 68.4526L75.5673 68.433L75.6163 68.4232L75.7438 68.4036L75.8026 68.3938L75.9889 68.3644L76.1065 68.3448L76.1752 68.335L76.2928 68.3153L76.3614 68.3055L76.4791 68.2859L76.5477 68.2761L76.6556 68.2565L76.734 68.2467L76.8419 68.2271L76.9203 68.2075L77.0183 68.1879L77.0968 68.1683L77.1948 68.1487H77.2144C77.3125 68.1291 77.4105 68.0996 77.5086 68.08L77.5576 68.0702L77.6752 68.0408L77.6948 68.031L77.7831 68.0114L77.8615 67.9918L77.9498 67.9624L77.9694 67.9526L78.0772 67.9232L78.1263 67.9134L78.2341 67.884L78.2831 67.8643L78.3714 67.8349L78.4106 67.8251L78.4694 67.8055L78.5675 67.7761H78.5773L78.6851 67.7369L78.7145 67.7271L78.7635 67.7075L78.8616 67.6683L78.9008 67.6486L78.9989 67.6094L79.0185 67.5996L79.1067 67.5604L79.1361 67.5506L79.1753 67.531L79.2734 67.4918H79.2832L79.3714 67.4526L79.4008 67.4427L79.4302 67.4329L79.5283 67.3839L79.5479 67.3741L79.5871 67.3545L79.6459 67.3251H79.6558L79.744 67.2761L79.7636 67.2663L79.8518 67.2074L79.9107 67.1682L79.9695 67.129L80.0479 67.0702L80.0577 67.0604L80.1362 67.0015L80.146 66.9917L80.2146 66.9329C80.2342 66.9133 80.2636 66.8937 80.2832 66.8643L80.3519 66.7956L80.4107 66.727L80.4205 66.7172L80.4303 66.7074L80.4401 66.6976L80.4499 66.6878L80.4597 66.678L80.4695 66.6682L80.4793 66.6584L80.4891 66.6486L80.4989 66.6388L80.5087 66.629L80.5186 66.6192L80.5284 66.6094L80.5382 66.5996L80.548 66.5898L80.5578 66.5799L80.5676 66.5701L80.5774 66.5603L80.5872 66.5505L80.597 66.5407L80.6068 66.5309L80.6166 66.5211L80.6264 66.5113L80.6362 66.5015L80.646 66.4917L80.6558 66.4819L80.6656 66.4721L80.6754 66.4623L80.6852 66.4525L80.695 66.4427L80.7048 66.4329L80.7146 66.4231L80.7244 66.4133L80.7342 66.4035L80.744 66.3937V66.3839L80.7538 66.3741L80.7637 66.3643V66.3544L80.7735 66.3446L80.7833 66.3348V66.325V66.3152L80.7931 66.3054V66.2956V66.2858L80.8029 66.276V66.2662V66.2564V66.2466V66.2368V66.227V66.2172V66.2074V66.1976V66.1878V66.178V66.1682V66.1584V66.1486V66.1387V66.1289V66.1191L80.744 66.2368Z" fill="#EFC3A9"/>
<path fill-rule="evenodd" clip-rule="evenodd" d="M70.2042 68.1291C70.3218 68.1291 70.4493 68.1487 70.5866 68.1977C74.5182 69.6095 80.4107 68.7173 81.95 64.57C82.6363 62.7268 82.5677 60.0894 80.1852 58.4324C75.7437 62.2366 72.2337 55.1675 65.6059 58.9226C62.7528 60.5306 61.2429 63.3445 61.3409 66.5211C64.6156 65.7956 67.9001 66.4231 70.2042 68.1291Z" fill="#3F2626"/>
<path fill-rule="evenodd" clip-rule="evenodd" d="M76.1849 66.7562C81.0577 65.8639 81.6362 61.9912 80.1753 58.4321C80.3518 61.1774 78.5478 61.5205 75.979 61.3147C71.1454 60.9225 64.4293 57.0595 61.3311 66.5208C65.7137 61.5205 70.5277 67.7954 76.1849 66.7562Z" fill="#5B3636"/>
<path fill-rule="evenodd" clip-rule="evenodd" d="M76.2143 87.4439C76.2829 87.1497 76.3417 86.934 76.43 86.6497C75.979 86.532 74.0573 86.5615 72.0866 85.8653C70.8022 85.4143 68.5472 84.8947 67.8216 83.4632C67.0569 81.9337 67.0863 80.1493 67.3216 77.4629C66.1745 71.5508 63.1645 73.845 62.9194 76.3844C62.7527 78.11 63.5371 81.9729 65.2431 81.1298C65.3607 83.1397 65.3411 85.0221 65.1254 86.7673C64.694 90.2479 62.8704 90.7676 65.6843 92.4245C66.0666 92.65 66.5078 92.8559 66.9785 93.0324C67.0569 91.1304 67.3314 89.0812 68.7139 88.1106C70.5277 86.8458 73.6063 87.2478 76.2143 87.4439Z" fill="#EAAD89"/>
<g opacity="0.2">
<path fill-rule="evenodd" clip-rule="evenodd" d="M90.1854 113.131L48.8496 137.103V139.143L90.1854 115.161V113.131Z" fill="white"/>
<path fill-rule="evenodd" clip-rule="evenodd" d="M90.1856 116.484L48.8499 140.456V142.496L90.1856 118.524V116.484Z" fill="white"/>
<path fill-rule="evenodd" clip-rule="evenodd" d="M84.7833 103.935L58.5759 119.132V121.201L84.7833 106.004V103.935ZM90.5484 100.592L86.7344 102.808V104.876L90.5484 102.661V100.592ZM56.1248 120.564L48.4969 124.995V127.064L56.1248 122.632V120.564ZM90.5484 104.818V106.886L48.4871 131.28V129.211L90.5484 104.818Z" fill="white"/>
</g>
<path fill-rule="evenodd" clip-rule="evenodd" d="M82.8226 128.074L74.7731 132.692C74.175 133.035 73.6848 133.898 73.6848 134.614V144.712C73.6848 145.428 74.175 145.732 74.7731 145.389L82.8226 140.771C83.4207 140.428 83.9109 139.565 83.9109 138.849V128.76C83.9109 128.035 83.4207 127.731 82.8226 128.074Z" fill="white"/>
<path fill-rule="evenodd" clip-rule="evenodd" d="M78.8028 134.418C78.3812 133.732 77.9498 133.516 77.1066 134.006C76.1654 134.545 75.4104 135.81 75.4104 136.83C75.4104 138.683 77.1066 139.556 78.8126 140.438C80.5087 137.614 82.2147 134.781 82.2147 132.928C82.2147 131.908 81.45 131.516 80.5186 132.055C79.646 132.545 79.2244 133.251 78.8028 134.418Z" fill="#D85980"/>
<path fill-rule="evenodd" clip-rule="evenodd" d="M65.6842 137.918L57.6347 142.536C57.0366 142.879 56.5464 143.741 56.5464 144.457V154.546C56.5464 155.262 57.0366 155.566 57.6347 155.223L65.6842 150.605C66.2823 150.261 66.7725 149.399 66.7725 148.683V138.594C66.7725 137.878 66.2823 137.574 65.6842 137.918Z" fill="white"/>
<path fill-rule="evenodd" clip-rule="evenodd" d="M61.6643 142.065L60.4975 145.389L58.0366 147.31L59.7818 148.457L59.4191 151.644L61.6643 149.016L63.9095 149.065L63.5468 146.3L65.2919 143.143L62.8212 144.055L61.6643 142.065Z" fill="#F1CC36"/>
<path fill-rule="evenodd" clip-rule="evenodd" d="M79.734 147.31L60.7329 158.271C59.9583 158.722 59.321 159.713 59.321 160.487V171.39C59.321 172.164 59.9583 172.429 60.7329 171.988L79.734 161.026C80.5086 160.575 81.1459 159.585 81.1459 158.811V147.908C81.136 147.133 80.5086 146.869 79.734 147.31Z" fill="white"/>
<path fill-rule="evenodd" clip-rule="evenodd" d="M79.7342 147.006L60.7331 157.968C60.2625 158.242 59.8311 158.683 59.5271 159.164C59.2134 159.654 59.0271 160.193 59.0271 160.664V161.223V171.576C59.0271 171.723 59.0467 171.851 59.0859 171.968L59.0761 171.988L59.1546 172.135C59.184 172.194 59.2134 172.243 59.2526 172.292L59.2624 172.302C59.2722 172.312 59.282 172.321 59.2918 172.331C59.3114 172.351 59.331 172.37 59.3507 172.39L59.3703 172.4C59.4193 172.439 59.4683 172.468 59.5271 172.488C59.8017 172.606 60.1546 172.576 60.5566 172.39H60.5664C60.5958 172.38 60.6154 172.361 60.6448 172.351L60.6841 172.331L60.7037 172.321L60.7527 172.292L79.7538 161.331L79.7832 161.311H79.793L79.8028 161.301L79.8224 161.291L79.8323 161.281C79.8519 161.272 79.8715 161.252 79.8911 161.242L79.9205 161.223C80.3225 160.948 80.6852 160.556 80.9598 160.125C81.1559 159.821 81.3029 159.487 81.3912 159.174L81.45 158.987H81.4402C81.4598 158.87 81.4696 158.742 81.4696 158.634V147.977V147.732C81.4696 147.261 81.2735 146.947 80.9696 146.81C80.6362 146.683 80.2048 146.732 79.7342 147.006ZM59.6252 161.321L66.3707 162.282L59.6252 171.233V171.223V161.321ZM73.9495 157.928L80.8421 148.791V158.909L73.9495 157.928ZM66.8805 161.595L59.6252 160.566V160.321C59.6252 160.017 59.7526 159.674 59.9487 159.36C60.1448 159.046 60.4193 158.762 60.7233 158.585L79.7244 147.624C80.0283 147.447 80.3029 147.418 80.499 147.496H80.5088L80.5284 147.506L80.548 147.516L80.5676 147.526L80.5774 147.536L80.5872 147.545C80.597 147.555 80.6068 147.555 80.6166 147.565L80.6362 147.585L80.646 147.594L80.6754 147.624L80.6852 147.634L80.695 147.643L80.7048 147.653L80.7147 147.673L80.7245 147.702L80.7343 147.712L80.7441 147.741V147.751C80.7539 147.761 80.7539 147.781 80.7637 147.8C80.7833 147.859 80.7931 147.918 80.8029 147.977V147.987V148.016L73.4005 157.84L72.322 159.272C71.7533 160.027 70.9788 160.683 70.1944 161.134C69.4101 161.585 68.6257 161.821 68.0276 161.742L66.8805 161.595ZM73.4299 158.615L80.6754 159.644C80.6264 159.752 80.5676 159.86 80.5088 159.958C80.3323 160.232 80.1068 160.478 79.8519 160.654L79.8421 160.664L79.8028 160.693L79.7636 160.713L79.7538 160.723L79.7244 160.742L60.7233 171.704L60.7037 171.713C60.6939 171.723 60.6743 171.733 60.6645 171.733H60.6546L60.6448 171.743L60.5958 171.763H60.586C60.3703 171.861 60.184 171.89 60.0272 171.851H60.0174H60.0075H59.9977L59.9781 171.841H59.9683H59.9585H59.9487L59.9389 171.831L59.9095 171.821C59.8703 171.802 59.8409 171.782 59.8115 171.753L66.8805 162.37L67.6845 162.487C68.3904 162.585 69.3022 162.311 70.214 161.791C71.116 161.272 72.0181 160.497 72.7044 159.585L73.4299 158.615Z" fill="#6D61E9"/>
<path fill-rule="evenodd" clip-rule="evenodd" d="M56.9289 57.4913C57.125 58.56 57.4093 59.3149 57.5073 60.3346C57.5465 60.7366 57.0367 61.4327 56.7524 61.3542C55.5366 60.9915 55.566 60.7562 54.8503 60.6091C54.3993 61.217 53.9189 61.7856 53.3992 62.3053C49.4186 66.3545 45.0556 66.2173 43.6634 62.021C42.2711 57.8148 44.3693 51.1282 48.3499 47.0789C52.3306 43.0296 56.6936 43.1669 58.0858 47.3632C58.978 50.0497 58.4388 53.7656 56.8896 57.1481C56.9093 57.2658 56.9191 57.3736 56.9289 57.4913Z" fill="white"/>
<path fill-rule="evenodd" clip-rule="evenodd" d="M50.8797 52.2165C51.9091 49.2163 54.8897 48.4712 54.8897 50.8929C54.8897 53.2263 52.8896 55.5794 50.8797 59.0698C48.8796 57.8835 46.8696 57.8443 46.8696 55.5108C46.8696 53.0793 49.8502 50.4026 50.8797 52.2165Z" fill="#D85980"/>
<path fill-rule="evenodd" clip-rule="evenodd" d="M69.057 38.9606L89.6857 26.9599C90.2445 26.6364 90.7053 26.9207 90.7053 27.5874V37.0586C90.7053 37.7351 90.2445 38.5488 89.6857 38.8724L69.057 50.8829C68.4982 51.2065 68.0374 50.9221 68.0374 50.2554V40.7843C68.0374 40.1078 68.4982 39.294 69.057 38.9606Z" fill="white"/>
<path fill-rule="evenodd" clip-rule="evenodd" d="M73.5084 41.2649C73.7045 40.7257 73.9006 40.4021 74.2928 40.1668C74.7242 39.9119 75.0771 40.0982 75.0771 40.5688C75.0771 41.4218 74.2928 42.7258 73.5084 44.0396C72.7241 43.6376 71.9397 43.2454 71.9397 42.3924C71.9397 41.9218 72.2927 41.3336 72.7241 41.0884C73.1162 40.8531 73.3123 40.9512 73.5084 41.2649Z" fill="#D85980"/>
<path fill-rule="evenodd" clip-rule="evenodd" d="M85.2345 34.4407C85.4306 33.9015 85.6267 33.5779 86.0189 33.3426C86.4502 33.0877 86.8032 33.274 86.8032 33.7446C86.8032 34.5976 86.0189 35.9016 85.2345 37.2154C84.4501 36.8134 83.6658 36.4212 83.6658 35.5682C83.6658 35.0976 84.0187 34.5093 84.4501 34.2642C84.8423 34.0289 85.0384 34.127 85.2345 34.4407Z" fill="#D85980"/>
<path fill-rule="evenodd" clip-rule="evenodd" d="M79.3717 37.8528C79.5678 37.3136 79.7639 36.99 80.1561 36.7547C80.5875 36.4998 80.9404 36.6861 80.9404 37.1567C80.9404 38.0097 80.1561 39.3137 79.3717 40.6275C78.5873 40.2255 77.803 39.8333 77.803 38.9803C77.803 38.5097 78.1559 37.9214 78.5873 37.6763C78.9795 37.441 79.1756 37.5391 79.3717 37.8528Z" fill="#D85980"/>
<path fill-rule="evenodd" clip-rule="evenodd" d="M127.257 131.437C127.139 130.888 127.139 130.476 127.365 130.093C127.992 129.044 129.904 129.437 130.394 130.446C131.718 133.182 132.884 136.937 133.61 140.153C134.002 140.78 135.287 143.633 135.385 144.212C135.345 145.565 135.336 145.565 135.179 146.643C135.002 147.281 133.002 149.291 132.571 148.585C132.355 148.242 133.326 147.604 134.032 146.947C134.061 146.849 134.09 146.742 134.11 146.643C134.238 146.006 134.247 145.359 134.12 144.859C133.973 144.624 133.786 144.408 133.63 144.192C133.561 144.104 133.522 144.075 133.551 144.222L133.914 145.869C134.13 146.732 133.375 147.055 133.188 146.487L131.786 143.437C131.786 143.428 131.786 143.437 131.786 143.428C131.463 142.28 131.522 141.722 131.649 140.633C129.835 137.731 127.865 134.202 127.257 131.437Z" fill="#EFC3A9"/>
<path fill-rule="evenodd" clip-rule="evenodd" d="M133.443 147.428C132.776 147.742 132.217 148.026 132.002 147.702C131.806 147.408 132.61 147.055 133.257 146.624C133.286 146.663 133.316 146.693 133.345 146.712L133.355 146.722L133.365 146.732C133.384 146.742 133.414 146.751 133.433 146.761H133.443H133.453C133.492 146.771 133.521 146.761 133.561 146.761C133.59 146.751 133.61 146.751 133.639 146.732C133.678 146.712 133.718 146.683 133.757 146.653C133.884 146.526 133.963 146.31 133.923 146.006C134.021 145.889 134.1 145.771 134.178 145.644C134.178 145.663 134.188 145.683 134.198 145.702V145.722V145.732C134.198 146.026 134.159 146.34 134.1 146.644C134.08 146.742 134.051 146.84 134.021 146.948C133.914 147.065 133.796 147.183 133.678 147.301C133.629 147.33 133.541 147.379 133.443 147.428Z" fill="#EAAD89"/>
<path fill-rule="evenodd" clip-rule="evenodd" d="M132.492 147.095C132.06 147.242 131.707 147.251 131.56 147.036C131.355 146.732 132.345 146.359 132.913 145.898C133.002 146.085 133.08 146.261 133.168 146.438L133.178 146.457L133.188 146.477L133.198 146.497C133.198 146.506 133.208 146.516 133.208 146.526L133.217 146.546L133.227 146.555V146.565L133.237 146.575C133.002 146.791 132.727 146.948 132.492 147.095Z" fill="#EAAD89"/>
<path fill-rule="evenodd" clip-rule="evenodd" d="M132.266 146.329C132.041 146.368 131.864 146.339 131.786 146.221C131.668 146.035 132.188 145.761 132.707 145.447L132.913 145.898C132.727 146.045 132.492 146.192 132.266 146.329Z" fill="#EAAD89"/>
<path fill-rule="evenodd" clip-rule="evenodd" d="M134.198 146.065C134.237 145.633 134.217 145.212 134.119 144.869C133.972 144.633 133.786 144.418 133.629 144.202C133.56 144.114 133.521 144.084 133.551 144.231L133.913 145.879C133.943 145.977 133.953 146.075 133.953 146.153C134.051 145.977 134.129 145.829 134.198 145.653C134.198 145.8 134.208 145.918 134.198 146.065Z" fill="#EAAD89"/>
<path fill-rule="evenodd" clip-rule="evenodd" d="M111.471 182.852L111.491 182.871C111.981 183.313 113.53 184.43 114.462 184.46C115.501 184.489 115.697 184.342 116.011 183.813C116.138 183.509 116.099 183.175 116.001 182.705C115.726 181.42 114.814 180.342 114.462 178.891C114.305 178.273 114.854 177.263 114.697 176.763C114.589 176.42 114.53 176.106 114.501 175.822C114.373 174.714 112.442 172.43 110.902 172.331C110.569 172.312 109.853 172.606 109.471 172.89C109.422 172.939 109.373 172.998 109.334 173.067C108.775 174.077 108.745 174.528 109.383 175.449C109.657 175.842 109.942 176.263 109.932 176.714C109.893 178.92 108.804 179.969 111.471 182.852Z" fill="#544F59"/>
<path fill-rule="evenodd" clip-rule="evenodd" d="M111.403 183.195C111.863 183.616 113.001 184.989 113.952 185.008C115.158 185.038 115.707 184.607 116.03 183.803C115.707 184.342 115.52 184.489 114.471 184.459C113.52 184.43 112.383 183.067 111.922 182.646C109.255 179.763 109.893 178.92 109.932 176.714C109.942 176.263 109.657 175.831 109.383 175.449C108.746 174.537 108.785 174.076 109.334 173.067C109.373 172.998 109.412 172.939 109.471 172.89C108.079 173.233 107.961 174.851 108.775 175.949C109.089 176.371 109.412 176.822 109.412 177.263C109.412 179.469 108.736 180.312 111.403 183.195Z" fill="#39353B"/>
<path fill-rule="evenodd" clip-rule="evenodd" d="M111.02 180.989C111.628 181.999 113.265 183.715 114.422 183.94C114.981 184.048 115.873 183.97 115.648 183.009C115.52 182.44 115.246 181.832 114.942 181.224C114.167 179.685 115.06 179.832 113.177 179.734C112.118 179.685 110.069 179.41 111.02 180.989Z" fill="#655F6B"/>
<path fill-rule="evenodd" clip-rule="evenodd" d="M109.854 172.292C109.393 172.753 111.609 177.645 114.677 177.185C115.658 176.361 116.913 175.204 118.942 173.841C120.678 172.684 127.767 166.311 130.169 163.998C133.473 160.811 127.129 155.899 124.119 159.193C121.727 161.811 113.207 168.616 109.854 172.292Z" fill="#4D42C6"/>
<path fill-rule="evenodd" clip-rule="evenodd" d="M114.197 176.871C114.109 176.861 114.03 176.851 113.942 176.822C113.452 176.694 112.736 176.459 112.383 176.087C111.961 175.636 111.599 175.096 111.324 174.547C111.256 174.4 111.157 174.194 111.089 174.008C111.246 173.841 111.412 173.665 111.579 173.498C112.295 172.763 113.442 171.724 114.766 170.547C116.089 169.38 115.746 169.527 115.893 171.361C115.962 172.263 116.05 173.292 116.099 174.057C116.236 175.841 115.707 175.596 114.197 176.871Z" fill="#594AD3"/>
<path fill-rule="evenodd" clip-rule="evenodd" d="M131.198 129.191C132.061 133.515 133.423 137.123 133.737 139.3C133.139 140.388 129.266 141.369 128.904 140.015C128.58 138.829 126.688 134.623 125.511 130.044C124.903 127.701 124.727 124.897 124.394 122.436C124.07 120.044 123.894 117.749 123.648 115.828C123.452 114.239 123.188 112.867 123.393 111.818C123.707 110.19 124.472 109.867 125.394 109.808C126.678 109.729 128.482 110.21 129.512 113.759C130.012 115.475 129.874 118.367 130.021 121.407C130.139 123.966 130.688 126.662 131.198 129.191Z" fill="#39353B"/>
<path fill-rule="evenodd" clip-rule="evenodd" d="M133.11 139.212C132.747 139.486 131.953 139.761 131.659 139.839C131.345 139.918 130.257 140.114 129.933 139.908C129.796 139.427 129.6 138.927 129.423 138.457C129.129 137.692 128.835 136.927 128.551 136.162C127.796 134.133 127.1 132.084 126.56 129.986C125.933 127.564 125.796 124.956 125.462 122.475C125.158 120.279 124.992 118.073 124.717 115.877C124.59 114.838 124.256 113.141 124.452 112.132C124.619 111.279 124.815 110.847 125.688 110.788C127.639 110.661 128.492 112.543 128.963 114.151C129.237 115.093 129.276 116.298 129.315 117.279C129.365 118.72 129.374 120.161 129.443 121.613C129.57 124.26 130.119 126.907 130.639 129.505C131.041 131.505 131.571 133.466 132.129 135.427C132.463 136.633 132.894 137.966 133.11 139.212Z" fill="#423E45"/>
<path fill-rule="evenodd" clip-rule="evenodd" d="M131.325 160.723C131.345 160.38 131.355 160.027 131.374 159.684C131.365 153.468 133.071 145.408 131.296 138.525C129.982 135.712 121.54 137.82 121.668 139.81C121.55 146.408 122.442 154.575 123.472 160.782C123.335 162.86 126.041 164.527 128.325 164.38C129.825 164.282 131.188 163.811 131.325 160.723Z" fill="#4D42C6"/>
<path fill-rule="evenodd" clip-rule="evenodd" d="M128.894 137.81C129.512 137.888 130.414 138.104 130.737 138.712C131.463 141.575 131.571 144.594 131.482 147.506C131.414 149.604 131.247 151.693 131.08 153.791C130.933 155.732 130.777 157.693 130.777 159.644C130.747 160.203 130.718 160.762 130.698 161.321C130.59 164.272 125.629 164.782 125.453 161.507C125.286 158.468 125.1 155.428 124.766 152.389C124.658 151.379 124.56 150.379 124.472 149.369C124.207 146.202 124.041 142.996 124.09 139.839V139.81V139.78C124.08 139.682 124.217 139.516 124.276 139.457C124.502 139.212 124.835 139.016 125.119 138.859C126.002 138.388 127.1 138.084 128.09 137.908C128.365 137.878 128.629 137.839 128.894 137.81Z" fill="#594AD3"/>
<path fill-rule="evenodd" clip-rule="evenodd" d="M119.501 192.127C120.55 193.352 121.952 195.088 122.815 195.647C123.354 196 125.305 196.853 126.227 196.725C127.227 196.588 127.913 196.029 128.119 195.46C128.227 195.176 128.266 194.607 128.1 194.235C128.364 195.206 127.551 195.843 126.178 196.029C125.246 196.157 123.403 195.147 122.854 194.794C121.991 194.235 120.707 192.568 119.628 191.352C119.03 190.666 118.109 189.813 117.952 189.058C117.952 189.186 117.962 189.313 117.972 189.44C118.001 189.823 118.099 190.49 118.432 190.911C118.775 191.333 119.187 191.754 119.501 192.127Z" fill="#39353B"/>
<path fill-rule="evenodd" clip-rule="evenodd" d="M119.638 191.352C120.707 192.568 121.991 194.235 122.864 194.794C123.403 195.147 125.256 196.156 126.188 196.029C127.678 195.823 128.511 195.088 128.011 193.97C127.217 192.186 125.276 190.235 124.384 188.646C124.197 188.323 124.07 188.009 123.972 187.734C123.492 186.332 118.511 185.95 118.06 187.528C117.942 187.93 117.903 188.401 117.942 188.94C118.001 189.715 119.001 190.636 119.638 191.352Z" fill="#544F59"/>
<path fill-rule="evenodd" clip-rule="evenodd" d="M121.305 192.881C121.962 193.646 122.599 194.362 123.1 194.676C123.59 194.989 125.266 195.911 126.109 195.793C127.463 195.607 128.217 194.94 127.766 193.921C127.492 193.303 127.07 192.666 126.6 192.038C125.423 190.44 125.541 190.715 123.57 190.95C122.472 191.077 119.933 191.283 121.305 192.881Z" fill="#655F6B"/>
<path fill-rule="evenodd" clip-rule="evenodd" d="M117.717 188.185C117.756 188.44 121.952 189.95 124.462 188.175C124.178 180.959 125.296 171.194 125.413 163.39C125.168 156.654 125.982 147.398 123.943 139.927C122.952 137.8 113.893 135.28 113.883 142.937C113.883 144.859 114.158 147.036 114.217 148.134C114.57 154.271 115.413 159.683 116.383 164.87C116.511 173.586 116.825 180.165 117.717 188.185Z" fill="#4D42C6"/>
<path fill-rule="evenodd" clip-rule="evenodd" d="M119.619 188.185C119.638 188.322 120.815 188.803 122.295 188.969C123.06 188.871 123.815 188.636 124.462 188.175C124.178 180.959 125.296 171.194 125.413 163.389C125.296 160.164 125.315 155.164 125.266 150.918C125.256 150.036 126.56 148.565 126.531 147.673C126.413 143.908 126.119 142.486 125.256 139.339C124.845 138.447 121.688 138.074 119.707 137.819C118.55 137.986 117.481 138.476 116.756 139.457C118.011 140.378 118.893 141.908 119.011 143.643C119.168 145.918 117.952 147.849 116.138 148.506C116.501 154.556 117.334 159.791 118.285 164.87C118.413 173.586 118.727 180.165 119.619 188.185Z" fill="#594AD3"/>
<path fill-rule="evenodd" clip-rule="evenodd" d="M113.295 112.416C114.403 111.876 116.423 111.17 118.658 110.523C122.139 109.523 126.423 108.915 128.306 109.21C129.433 109.386 130.375 110.219 130.767 111.082C131.316 112.308 131.041 113.798 131.11 115.386C131.522 123.965 129.659 128.328 131.914 138.947C132.149 140.035 132.277 140.29 131.639 140.76C129.433 142.368 126.276 142.986 123.472 143.123C121.776 143.212 115.736 143.163 114.197 142.564C113.628 142.339 113.148 141.819 113.246 140.947C113.913 135.27 114.06 136.093 113.874 131.936C113.717 128.358 113.324 124.348 112.54 121.397C111.383 117.004 108.765 114.602 113.295 112.416Z" fill="#39353B"/>
<path fill-rule="evenodd" clip-rule="evenodd" d="M130.345 117.661C130.286 121.417 129.737 124.24 129.747 127.819C129.747 128.966 129.845 131.505 130.12 134.123C130.571 138.369 132.041 140.075 126.698 140.81C115.462 142.349 118.717 133.202 118.482 124.681C118.374 120.75 117.962 117.191 117.648 114.897C117.58 114.416 117.57 113.661 118.286 113.387C120.178 112.651 123.07 113.367 125.894 112.004C127.217 111.367 127.492 110.69 128.551 110.69C130.678 110.69 130.414 113.249 130.345 117.661Z" fill="#423E45"/>
<path fill-rule="evenodd" clip-rule="evenodd" d="M117.04 97.9346C116.599 98.4053 116.344 99.0229 116.344 99.8563C116.344 100.974 116.589 102.641 117.079 104.16C117.52 105.543 117.775 106.416 118.55 107.308C118.864 107.661 119.471 107.7 119.854 107.7C124.638 107.7 126.609 101.945 128.217 100.68C128.982 100.082 129.246 98.6406 128.815 97.1797C128.119 94.8266 125.756 92.4147 121.805 93.3167C119.05 93.954 116.932 95.5816 117.04 97.9346Z" fill="#301E1E"/>
<path fill-rule="evenodd" clip-rule="evenodd" d="M121.834 114.063C123.04 114.25 125.913 114.446 126.491 113.024C126.668 112.602 126.286 112.171 125.923 112.014C124.834 111.524 119.805 110.632 118.236 111.249C117.677 111.465 117.775 112.053 118.109 112.475C118.765 113.308 120.854 113.916 121.834 114.063Z" fill="#39353B"/>
<path fill-rule="evenodd" clip-rule="evenodd" d="M125.795 112.739C125.158 111.778 125.099 110.876 125.58 109.219C125.687 109.229 126.06 109.308 126.148 109.298C127.482 109.17 128.903 104.709 128.727 103.317C128.658 102.807 128.531 102.327 128.354 101.974C127.943 101.16 128.305 100.513 128.364 99.7777C128.423 99.0619 128.286 98.3462 127.992 97.7285C127.933 97.8168 127.874 97.905 127.805 97.9932C127.129 98.8658 123.678 99.3561 122.256 98.8462C121.726 98.6599 121.589 99.1796 121.55 99.6698C121.481 100.474 121.285 101.248 120.638 101.533C120.648 101.748 120.668 101.974 120.697 102.199C120.766 102.748 120.883 103.288 121.04 103.797C121.04 103.797 120.501 104.141 120.432 104.19C119.805 100.709 118.06 102.023 117.922 103.464C117.824 104.435 118.275 106.621 119.236 106.151C119.305 107.288 119.295 108.347 119.168 109.337C118.922 111.298 117.893 111.602 119.481 112.533C121.383 113.641 125.384 113.769 125.795 112.739Z" fill="#EAAD89"/>
<path fill-rule="evenodd" clip-rule="evenodd" d="M125.795 112.74C125.236 111.887 125.119 111.092 125.432 109.769C124.266 109.779 122.972 109.494 122.305 110.435C121.834 111.102 121.589 112.24 121.54 113.24C123.403 113.612 125.501 113.465 125.795 112.74Z" fill="#EFC3A9"/>
<path fill-rule="evenodd" clip-rule="evenodd" d="M128.001 97.748L128.011 97.7775L128.021 97.8069L128.031 97.8363L128.041 97.8657L128.05 97.8951L128.06 97.9245L128.07 97.9539L128.08 97.9834L128.09 98.0128L128.099 98.0422L128.109 98.0716L128.119 98.101L128.129 98.1304L128.139 98.1598L128.148 98.1892L128.158 98.2187L128.168 98.2481L128.178 98.2775L128.188 98.3069L128.197 98.3363L128.207 98.3657L128.217 98.3951L128.227 98.4246L128.237 98.454L128.246 98.4834L128.256 98.5128L128.266 98.5422L128.276 98.5716L128.286 98.601L128.295 98.6305L128.305 98.6599L128.315 98.6893L128.325 98.7187L128.335 98.7481L128.344 98.7775L128.354 98.8069V98.8363V98.8658V98.8952V98.9246V98.954V98.9834V99.0128V99.0422V99.0717V99.1011V99.1305V99.1599V99.1893V99.2187V99.2481V99.2775V99.307V99.3364V99.3658V99.4344V99.5031V99.5325V99.5619V99.5913V99.6207V99.6501V99.6795C128.286 100.395 127.942 101.033 128.344 101.846C128.521 102.199 128.648 102.68 128.717 103.19C128.884 104.513 127.59 108.67 126.305 109.131C126.001 109.239 125.423 109.111 125.099 109.062C123.687 108.857 122.168 108.543 121.432 107.317C121.001 106.602 121.158 103.719 121.648 103.003C121.864 102.68 122.54 102.788 122.707 102.523C122.864 102.268 122.511 101.64 122.481 101.405C122.364 100.425 122.295 99.5227 122.354 98.7383C122.648 98.8363 123.03 98.8854 123.442 98.905H123.54C123.609 98.905 123.668 98.905 123.736 98.905H123.834H123.932H123.942H124.04H124.05H124.148H124.158H124.246H124.256H124.344H124.364L124.452 98.8952H124.472L124.56 98.8854H124.58L124.668 98.8756H124.687L124.766 98.8658H124.785L124.864 98.856H124.893L124.972 98.8462H125.001L125.08 98.8363H125.109L125.187 98.8265H125.217L125.325 98.8069L125.393 98.7971L125.433 98.7873L125.501 98.7775L125.54 98.7677L125.599 98.7579L125.638 98.7481L125.697 98.7383L125.736 98.7285L125.795 98.7187L125.835 98.7089L125.893 98.6991L125.942 98.6893L125.991 98.6795H126.001C126.06 98.6697 126.119 98.6501 126.168 98.6403L126.197 98.6305L126.266 98.6108H126.276L126.325 98.601L126.364 98.5912L126.413 98.5814H126.423L126.482 98.5618L126.511 98.552L126.57 98.5324L126.599 98.5226L126.648 98.503L126.678 98.4932L126.707 98.4834L126.766 98.4638H126.776L126.835 98.4442L126.844 98.4344L126.874 98.4246L126.933 98.4049L126.962 98.3951L127.021 98.3755H127.031L127.08 98.3559L127.099 98.3461L127.119 98.3363L127.178 98.3167L127.227 98.2873L127.246 98.2775L127.266 98.2677L127.315 98.2383L127.325 98.2285L127.354 98.2187L127.393 98.1991L127.442 98.1696L127.452 98.1598L127.501 98.1304L127.531 98.1108L127.56 98.0912L127.609 98.0618H127.619L127.658 98.0226L127.697 97.9834C127.707 97.9736 127.727 97.9539 127.737 97.9441L127.776 97.9049L127.805 97.8657L128.001 97.748Z" fill="#EFC3A9"/>
<path fill-rule="evenodd" clip-rule="evenodd" d="M122.05 98.8172C122.119 98.8172 122.187 98.827 122.266 98.8565C124.482 99.6506 127.815 99.1506 128.678 96.8073C129.06 95.768 129.021 94.2778 127.678 93.3365C125.168 95.4837 123.187 91.4933 119.442 93.6111C117.834 94.5229 116.981 96.1014 117.04 97.9054C118.893 97.4936 120.746 97.8466 122.05 98.8172Z" fill="#3F2626"/>
<path fill-rule="evenodd" clip-rule="evenodd" d="M125.432 98.0323C128.187 97.5225 128.511 95.3459 127.687 93.3262C127.785 94.8753 126.766 95.0714 125.325 94.9537C122.589 94.7282 118.805 92.5516 117.05 97.8951C119.51 95.0714 122.226 98.6206 125.432 98.0323Z" fill="#5B3636"/>
<path fill-rule="evenodd" clip-rule="evenodd" d="M125.442 109.72C125.482 109.553 125.511 109.436 125.56 109.269C125.305 109.2 124.217 109.22 123.109 108.828C122.383 108.573 121.109 108.279 120.697 107.465C120.266 106.602 120.285 105.592 120.413 104.082C119.766 100.739 118.06 102.043 117.922 103.474C117.824 104.445 118.275 106.631 119.236 106.161C119.305 107.298 119.295 108.357 119.168 109.347C118.922 111.308 117.893 111.612 119.481 112.544C119.697 112.671 119.942 112.789 120.207 112.887C120.256 111.808 120.403 110.651 121.187 110.112C122.227 109.387 123.972 109.612 125.442 109.72Z" fill="#EAAD89"/>
<path fill-rule="evenodd" clip-rule="evenodd" d="M140.954 129.515C140.512 129.417 139.904 129.221 139.855 128.858C139.855 128.858 140.071 128.407 140.228 128.338C140.757 128.083 141.042 128.103 141.405 127.613C141.63 127.309 141.64 127.142 141.552 127.005C141.424 126.818 141.101 126.72 140.65 126.995C140.64 127.005 138.581 127.946 138.404 128.024C137.983 128.211 137.738 128.358 137.414 128.603C137.091 128.848 137.267 129.083 136.512 129.221C135.757 129.358 129.933 128.436 129.933 128.436C129.423 128.779 129.061 131.73 129.639 131.75C131.022 131.868 134.061 131.956 136.414 132.123C136.679 132.221 136.894 132.299 137.081 132.368C138.728 133.182 138.11 133.054 140.355 133.809C141.189 133.976 142.012 134.142 142.846 134.309C143.493 134.437 143.63 133.986 143.071 133.74C142.61 133.535 142.012 133.358 141.552 133.162C141.375 133.084 141.365 132.927 141.669 132.966L142.11 132.985C142.179 132.985 142.267 132.995 142.375 132.995C142.552 133.005 142.797 133.005 143.189 133.025C143.483 133.034 143.777 133.054 144.062 133.064C144.611 133.093 144.748 132.927 144.748 132.76C144.767 132.27 143.826 132.348 143.493 132.309C143.003 132.25 142.434 132.132 142.434 132.132C141.963 132.025 141.924 131.868 142.081 131.848C142.081 131.848 144.032 132.044 144.365 132.103C144.601 132.142 144.993 132.142 145.434 132.152C145.787 132.162 146.111 131.525 145.532 131.329C145.16 131.201 144.816 131.083 144.248 131.044C143.777 131.015 143.061 130.907 142.62 130.838C142.14 130.76 141.954 130.73 142.454 130.701C143.209 130.652 144.218 130.544 144.385 130.574C144.973 130.574 145.326 130.476 145.297 130.221C145.287 130.074 145.199 129.877 144.865 129.819C144.258 129.711 143.12 129.642 142.532 129.632C141.944 129.623 140.954 129.515 140.954 129.515Z" fill="#EFC3A9"/>
<path fill-rule="evenodd" clip-rule="evenodd" d="M117.354 116.514C119.148 118.681 120.668 123.593 123.609 127.25C123.992 127.721 124.227 128.142 124.198 128.623C124.06 130.603 120.825 132.319 119.403 130.632C116.589 127.289 114.56 123.161 112.805 120.2C111.981 118.818 111.197 117.671 110.971 116.632C110.609 115.014 111.177 114.416 112.001 113.994C113.148 113.396 114.991 113.661 117.354 116.514Z" fill="#39353B"/>
<path fill-rule="evenodd" clip-rule="evenodd" d="M122.688 125.937C128.051 127.3 132.992 127.437 135.561 128.104C136.404 129.094 135.933 133.104 134.492 132.898C132.992 132.692 126.619 132.829 120.933 131.584C119.256 131.221 118.589 129.839 119.227 128.202C119.864 126.623 121.031 125.515 122.688 125.937Z" fill="#39353B"/>
<path fill-rule="evenodd" clip-rule="evenodd" d="M116.942 116.838C118.776 119.044 120.315 124.093 123.364 127.77C124.619 129.29 121.54 132.28 119.932 130.388C117.668 127.731 116.089 124.534 114.667 121.848C114.06 120.701 112.01 117.22 112.305 116.034C112.52 115.152 113.393 114.465 114.118 114.71C114.952 114.985 115.903 115.583 116.942 116.838Z" fill="#423E45"/>
<path fill-rule="evenodd" clip-rule="evenodd" d="M134.483 132.074C132.237 132.329 121.119 131.839 119.874 130.417C119.286 129.75 119.423 128.917 119.893 128.24C121.021 126.613 122.796 127.26 124.541 127.427C128.541 127.829 134.62 128.642 135.571 128.858C135.914 129.26 135.787 131.937 134.483 132.074Z" fill="#423E45"/>
<defs>
<linearGradient id="paint0_linear" x1="196.294" y1="-12.385" x2="288.208" y2="-10.2458" gradientUnits="userSpaceOnUse">
<stop stop-color="#133983"/>
<stop offset="1" stop-color="#71BC6F"/>
</linearGradient>
<linearGradient id="paint1_linear" x1="199.444" y1="-12.3489" x2="286.942" y2="-10.4084" gradientUnits="userSpaceOnUse">
<stop stop-color="#133983"/>
<stop offset="1" stop-color="#71BC6F"/>
</linearGradient>
<linearGradient id="paint2_linear" x1="30.6379" y1="-12.385" x2="122.552" y2="-10.2458" gradientUnits="userSpaceOnUse">
<stop stop-color="#133983"/>
<stop offset="1" stop-color="#71BC6F"/>
</linearGradient>
<linearGradient id="paint3_linear" x1="30.9743" y1="-12.3489" x2="118.472" y2="-10.4084" gradientUnits="userSpaceOnUse">
<stop stop-color="#133983"/>
<stop offset="1" stop-color="#71BC6F"/>
</linearGradient>
</defs>
</svg>
