<svg width="32" height="32" viewBox="0 0 32 32" fill="none" xmlns="http://www.w3.org/2000/svg">
<path d="M28.5845 20.5543L25.4355 20.1133L25.6118 16.887C25.6125 16.8737 25.1482 14.0844 25.1482 14.0844L24.6319 12.9752L22.0661 11.8719L25.2352 12.3538L26.4654 14.9971C26.6491 15.3915 27.1008 15.5766 27.5014 15.4391C27.9806 15.2752 28.2034 14.7356 27.9937 14.2857C27.8206 13.9138 26.7459 11.6047 26.5728 11.2328C26.4537 10.9769 26.2144 10.7976 25.9354 10.7552L22.4358 10.2231L24.3044 10.0738C24.0387 9.6445 23.5279 9.40067 23.0022 9.50014L20.8001 9.91659C20.1392 10.0416 19.6978 10.6629 19.7885 11.3218L18.805 12.4144L16.2091 10.8506C15.8111 10.6107 15.294 10.739 15.0542 11.1371C15.0178 11.1975 14.9909 11.2607 14.9711 11.3252L15.6202 11.3863C16.5884 11.4775 17.2787 12.3806 17.0962 13.3495L18.5315 14.2142C18.8771 14.4224 19.3215 14.3559 19.591 14.0564L20.1802 13.4019L21.0294 17.7143L21.0404 25.9687C21.0411 26.5269 21.4938 26.9787 22.0517 26.9787C22.0521 26.9787 22.0526 26.9787 22.0531 26.9787C22.6117 26.978 23.0639 26.5246 23.0631 25.966L23.0516 17.3318L23.5668 17.2343L23.3648 20.9309C23.3362 21.4556 23.7141 21.9148 24.2344 21.9877L28.3037 22.5576C28.856 22.6352 29.3681 22.2499 29.4456 21.6962C29.5233 21.143 29.1376 20.6317 28.5845 20.5543Z" fill="url(#paint0_linear)"/>
<path d="M21.114 9.14043C22.1414 9.14043 22.9743 8.30755 22.9743 7.28014C22.9743 6.25274 22.1414 5.41986 21.114 5.41986C20.0866 5.41986 19.2537 6.25274 19.2537 7.28014C19.2537 8.30755 20.0866 9.14043 21.114 9.14043Z" fill="url(#paint1_linear)"/>
<path d="M5.6451 19.6544L5.51018 20.6441L2.36028 23.415C1.92023 23.8022 1.87733 24.4727 2.26445 24.9128C2.6514 25.3527 3.32182 25.3959 3.76218 25.0087L7.17693 22.0047V20.0385L5.6451 19.6544Z" fill="url(#paint2_linear)"/>
<path d="M7.81689 20.1989V25.9388C7.81689 26.5248 8.29195 27 8.87812 27C9.46423 27 9.93934 26.5248 9.93934 25.9388V20.731L7.81689 20.1989Z" fill="url(#paint3_linear)"/>
<path d="M11.9741 5.05542C10.9908 4.80913 9.99635 5.40693 9.75053 6.38762C9.5044 7.36943 10.1008 8.36497 11.0826 8.6111C12.0646 8.85729 13.0601 8.26077 13.3062 7.27902C13.5523 6.29715 12.9559 5.30161 11.9741 5.05542Z" fill="url(#paint4_linear)"/>
<path d="M15.5423 12.2132L12.6029 11.9361L10.6606 10.0757L11.8206 10.6973C11.8286 10.5735 11.8283 10.5785 11.8299 10.554C11.8634 10.037 11.5776 9.53055 11.0015 9.38501C10.385 9.23046 9.94052 9.11898 9.24802 8.9454C8.73858 8.81772 8.22524 9.11045 8.00489 9.59495C7.95695 9.70038 4.24989 17.8561 4.24989 17.8561C4.12157 18.1385 4.26384 18.4651 4.53925 18.5341C5.8782 18.8698 9.33049 19.7353 10.6685 20.0708C10.945 20.1402 11.2233 19.9191 11.2434 19.6095L11.5858 14.3237C11.3743 14.259 11.1976 14.1173 11.0881 13.9354L9.51163 11.2753L11.6627 13.3356C11.7979 13.465 11.9728 13.5451 12.1592 13.5626L15.3866 13.8668C15.8434 13.9099 16.2484 13.5743 16.2914 13.1178C16.3343 12.6613 15.999 12.2562 15.5423 12.2132Z" fill="url(#paint5_linear)"/>
<defs>
<linearGradient id="paint0_linear" x1="-1.28273" y1="1.61539" x2="41.5419" y2="5.35494" gradientUnits="userSpaceOnUse">
<stop stop-color="#133983"/>
<stop offset="1" stop-color="#71BC6F"/>
</linearGradient>
<linearGradient id="paint1_linear" x1="-1.28273" y1="1.61539" x2="41.5419" y2="5.35494" gradientUnits="userSpaceOnUse">
<stop stop-color="#133983"/>
<stop offset="1" stop-color="#71BC6F"/>
</linearGradient>
<linearGradient id="paint2_linear" x1="-1.28273" y1="1.61539" x2="41.5419" y2="5.35494" gradientUnits="userSpaceOnUse">
<stop stop-color="#133983"/>
<stop offset="1" stop-color="#71BC6F"/>
</linearGradient>
<linearGradient id="paint3_linear" x1="-1.28273" y1="1.61539" x2="41.5419" y2="5.35494" gradientUnits="userSpaceOnUse">
<stop stop-color="#133983"/>
<stop offset="1" stop-color="#71BC6F"/>
</linearGradient>
<linearGradient id="paint4_linear" x1="-1.28273" y1="1.61539" x2="41.5419" y2="5.35494" gradientUnits="userSpaceOnUse">
<stop stop-color="#133983"/>
<stop offset="1" stop-color="#71BC6F"/>
</linearGradient>
<linearGradient id="paint5_linear" x1="-1.28273" y1="1.61539" x2="41.5419" y2="5.35494" gradientUnits="userSpaceOnUse">
<stop stop-color="#133983"/>
<stop offset="1" stop-color="#71BC6F"/>
</linearGradient>
</defs>
</svg>
