<svg width="308" height="217" viewBox="0 0 308 217" fill="none" xmlns="http://www.w3.org/2000/svg">
<g clip-path="url(#clip0)">
<path d="M251.703 191.67C249.547 192.494 235.258 193.996 235.861 195.809C236.446 197.622 246.441 199.454 251.612 197.146C251.612 197.146 247.409 212.513 239.552 212.696C231.676 212.879 228.716 208.337 223.856 208.538C218.995 208.74 215.633 210.461 218.191 211.469C220.75 212.476 228.808 210.645 233.083 213.502C233.705 213.923 234.326 214.308 234.874 214.692C235.203 214.912 235.532 215.132 235.824 215.352H207.21C207.21 215.114 207.21 214.894 207.21 214.692C207.191 213.484 207.082 212.788 207.082 212.788C207.082 212.788 192.281 206.634 197.507 195.278C197.507 195.278 201.929 188.172 207.283 185.846C207.283 185.846 206.186 201.982 209.183 202C212.198 202.018 209.128 183.941 209.128 183.941C209.128 183.941 222.924 175.15 228.735 175.04C228.735 175.04 221.48 191.523 224.404 190.809C227.328 190.095 235.678 173.281 235.678 173.281C235.678 173.281 250.351 168.721 253.804 177.347C257.221 185.937 253.859 190.864 251.703 191.67Z" fill="url(#paint0_linear)"/>
<path d="M71.7374 203.831C65.4151 197.403 75.136 186.084 75.136 186.084C75.136 186.084 93.2806 185.131 95.053 182.805C96.8254 180.479 79.3752 180.589 79.3752 180.589C81.7324 175.461 94.8703 166.541 94.8703 166.541C94.8703 166.541 109.744 176.267 110.895 173.574C112.046 170.882 97.2822 165.626 97.2822 165.626C101.43 161.743 109.452 160.552 109.452 160.552C121.548 160.259 121.292 175.864 121.292 175.864C121.292 175.864 126.518 179.124 134.54 179.399C134.54 179.399 136.093 179.307 138.45 179.673L137.701 180.956C137.299 180.864 136.897 180.791 136.513 180.717H136.495C136.239 180.681 135.892 180.644 135.453 180.608C134.467 180.553 133.736 180.479 133.242 180.424C130.154 180.205 126.043 180.058 124.727 180.809C124.727 180.809 124.618 180.553 124.307 180.186C124.435 180.388 124.581 180.589 124.727 180.809C128.144 185.736 122.553 197.183 117.747 202.568C112.942 207.952 112.777 204.289 111.9 199.362C111.023 194.436 115.756 187.97 115.847 185.296C115.938 182.622 113.106 184.967 111.06 189.216C109.013 193.483 111.882 197.879 108.684 204.839C105.487 211.78 90.2108 209.601 90.2108 209.601C94.2673 205.883 96.4965 196.267 95.1078 195.04C93.7191 193.813 86.8669 205.974 85.3138 207.586C83.7423 209.143 78.0596 210.242 71.7374 203.831Z" fill="url(#paint1_linear)"/>
<path d="M73.8206 128.262C75.3189 122.035 85.789 123.702 85.789 123.702C85.789 123.702 93.1345 134.325 95.1993 134.526C97.264 134.728 90.686 124.215 90.686 124.215C94.6511 123.72 104.938 128.336 104.938 128.336C104.938 128.336 104.628 140.973 106.674 140.662C108.721 140.35 106.382 129.453 106.382 129.453C110.274 130.515 113.983 134.911 113.983 134.911C118.679 142.127 109.178 147.786 109.178 147.786C109.178 147.786 109.159 152.164 111.992 157.109C111.992 157.109 112.631 158.025 113.289 159.582L112.247 159.618C112.156 159.343 112.046 159.069 111.937 158.812C111.937 158.812 111.937 158.812 111.937 158.794C111.864 158.629 111.754 158.409 111.608 158.135C111.279 157.512 111.041 157.054 110.895 156.724C109.89 154.765 108.428 152.237 107.497 151.724C107.497 151.724 107.606 151.559 107.716 151.23C107.643 151.395 107.57 151.541 107.497 151.724C105.797 155.625 96.8255 156.523 91.7823 155.625C86.7391 154.728 88.8953 153.263 91.5265 150.882C94.1577 148.519 99.8222 148.959 101.467 148.025C103.111 147.072 100.644 146.248 97.3189 146.596C93.9933 146.944 92.4036 150.332 87.0315 150.992C81.6594 151.651 77.274 141.596 77.274 141.596C81.0382 142.658 87.6528 140.424 87.872 139.123C88.0913 137.823 78.2059 138.226 76.6528 137.878C75.0996 137.512 72.3222 134.49 73.8206 128.262Z" fill="url(#paint2_linear)"/>
<path d="M248.944 148.153C255.266 142.768 247.263 131.577 247.263 131.577C247.263 131.577 230.671 129.215 229.246 126.944C227.803 124.672 243.827 126.174 243.827 126.174C242.073 121.266 230.744 112.017 230.744 112.017C230.744 112.017 216.291 119.746 215.469 117.181C214.628 114.617 228.607 110.991 228.607 110.991C225.116 107.09 217.844 105.331 217.844 105.331C206.753 104.086 205.729 118.427 205.729 118.427C205.729 118.427 200.668 120.991 193.286 120.588C193.286 120.588 191.861 120.387 189.668 120.515L190.253 121.76C190.636 121.705 191.002 121.669 191.367 121.65H191.386C191.623 121.65 191.952 121.632 192.354 121.632C193.268 121.669 193.944 121.669 194.401 121.632C197.251 121.669 201.033 121.889 202.185 122.676C202.185 122.676 202.313 122.456 202.623 122.145C202.477 122.31 202.331 122.493 202.185 122.676C198.64 126.925 202.861 137.878 206.826 143.226C210.809 148.556 211.248 145.204 212.472 140.753C213.678 136.303 209.841 129.984 209.987 127.511C210.115 125.039 212.527 127.42 214.062 131.504C215.597 135.588 212.6 139.398 214.975 146.046C217.351 152.695 231.548 151.926 231.548 151.926C228.131 148.171 226.852 139.16 228.223 138.153C229.593 137.145 234.892 148.867 236.208 150.479C237.505 152.072 242.622 153.537 248.944 148.153Z" fill="url(#paint3_linear)"/>
<path d="M91.5992 88.115C90.9049 89.9832 89.7172 92.126 88.4564 92.6755C87.0311 93.2799 86.4464 94.1407 86.4464 94.1407L85.2952 93.4814L83.9248 92.6755C83.9248 92.6755 83.9613 92.529 84.0162 92.2726C84.0893 92.0161 84.1806 91.6865 84.3268 91.3019C84.3268 91.3019 84.7471 90.7524 84.4913 90.0747C84.2354 89.3971 84.2903 88.3348 84.7288 87.6937C85.1673 87.0527 85.5876 85.4776 85.8617 85.5142C86.5012 85.6241 85.5511 87.8036 85.8251 88.2066C86.081 88.5729 86.3916 88.4447 86.4464 88.4264C86.4464 88.4264 86.4464 88.4264 86.4647 88.4264C88.2737 87.6388 90.4481 83.353 91.4165 83.9391C91.7637 84.1223 91.8916 87.3091 91.5992 88.115Z" fill="#F2BEB7"/>
<path d="M85.3687 90.6976L87.6162 92.291C87.7807 92.4009 88 92.3643 88.1096 92.1994L93.8837 83.9575C93.9933 83.7927 93.9568 83.5729 93.7923 83.463L91.5448 81.8696C91.3804 81.7597 91.1611 81.7963 91.0515 81.9612L85.2773 90.2031C85.186 90.3679 85.2225 90.5877 85.3687 90.6976Z" fill="#63AAB4"/>
<path d="M87.4334 92.1446L88.749 93.0787C88.8769 93.1703 89.0413 93.1336 89.1327 93.0054L94.9981 84.6353C95.0895 84.5071 95.053 84.3423 94.9251 84.2507L93.6094 83.3166C93.4815 83.225 93.3171 83.2617 93.2257 83.3899L87.3603 91.76C87.2872 91.9065 87.3237 92.0713 87.4334 92.1446Z" fill="#63AAB4"/>
<path d="M53.0265 78.8657C53.0265 78.8657 64.5016 98.921 68.6677 102.621L83.9252 91.2103C83.9252 91.2103 86.1361 91.8879 87.1046 94.1224C87.1046 94.1224 77.8405 113.06 68.7042 113.848C59.5863 114.672 46.7773 91.1736 46.7773 91.1736L53.0265 78.8657Z" fill="#4638B6"/>
<path d="M27.061 215.333H20.4281C19.5876 214.875 18.8567 213.831 18.6191 212.293C18.2902 210.15 15.8966 208.978 15.3849 207.238C14.8733 205.48 17.5228 203.025 17.5228 203.025L17.9613 202.458L18.4181 201.872L22.8218 202.916C22.8218 202.916 22.9314 203.959 23.0045 205.297C23.0593 206.267 23.0776 207.384 23.0228 208.355C22.8949 210.681 23.6806 213.209 25.7454 213.667C27.262 213.96 27.1889 214.875 27.061 215.333Z" fill="#0E0E0E"/>
<path d="M65.5246 215.333H50.3585C49.6276 214.436 49.9017 211.157 50.0114 210.077C50.0296 209.857 50.0479 209.729 50.0479 209.729C50.0479 209.729 55.219 205.571 55.9316 208.758C55.9499 208.85 55.9864 208.96 56.0047 209.051C56.9001 212.018 60.92 213.374 63.2406 213.758C64.7755 213.996 65.3236 214.784 65.5246 215.333Z" fill="#0E0E0E"/>
<path d="M62.637 130.497C62.637 130.497 61.8513 140.332 60.9194 152.145C59.6586 168.208 58.1603 187.915 57.9958 191.652C57.74 198.135 56.6985 208.52 56.6985 208.52C56.6985 208.52 54.2317 210.993 49.3164 209.949C49.3164 209.949 44.931 195.132 43.6885 179.454C43.6702 179.197 43.652 178.941 43.6337 178.684C42.4642 162.732 40.6553 129.123 40.6553 129.123L62.637 130.497Z" fill="#161616"/>
<path d="M62.637 130.497C62.637 130.497 61.8513 140.332 60.9194 152.145L43.6885 179.454C43.6702 179.197 43.652 178.941 43.6337 178.684C42.4642 162.732 40.6553 129.123 40.6553 129.123L62.637 130.497Z" fill="#101010"/>
<path d="M59.0564 131.651C59.0564 131.651 44.877 167.256 35.558 183.996C26.2391 200.736 23.3338 205.406 23.3338 205.406C23.3338 205.406 17.9982 203.264 17.5049 201.798C17.5049 201.798 21.068 169.49 27.3172 161.615C30.8437 157.164 34.9916 143.812 35.1743 139.142C35.3753 134.471 36.4351 125.222 36.4351 125.222L59.0564 131.651Z" fill="#252525"/>
<path d="M55.5293 79.7449C49.9927 81.5031 40.418 76.7778 40.418 76.7778C40.418 76.7778 45.516 72.9315 45.2602 64.946L49.5359 68.4076L52.4412 70.752C52.4412 70.752 52.4229 72.144 52.1123 74.5616C52.021 75.2027 51.9296 75.917 51.7834 76.6862C54.1588 78.0049 55.5293 79.7449 55.5293 79.7449Z" fill="#F2BEB7"/>
<path d="M52.4415 70.7521C52.4415 70.7521 52.4233 72.1441 52.1126 74.5617C48.8967 74.0122 45.2422 68.7923 45.2422 68.7923C46.8867 68.3161 48.312 68.2246 49.5362 68.4077L52.4415 70.7521Z" fill="#EDA8A2"/>
<path d="M54.1227 70.624C54.1227 70.624 44.9682 72.1442 44.1094 66.4298C43.2506 60.6971 41.4964 57.0523 47.2888 55.8252C53.0994 54.6164 54.5612 56.6311 55.3104 58.4626C56.0778 60.2942 56.4798 70.0745 54.1227 70.624Z" fill="#F2BEB7"/>
<path d="M63.2592 131.303C63.0948 131.449 62.8938 131.522 62.6745 131.522C60.5914 131.486 54.525 132.658 49.3904 132.127C45.0599 131.706 41.2409 130.423 37.1296 128.574C36.5815 128.335 35.3207 127.658 35.3572 127.053C35.3755 126.376 35.4486 125.405 35.5217 124.196C35.814 119.947 36.3257 112.621 35.8323 104.178C35.7409 102.602 35.7044 101.046 35.6861 99.5072C35.6496 88.0601 37.9154 78.005 42.4469 74.5983C42.8306 74.3236 45.2243 75.4958 47.417 76.5764C49.4453 77.5837 51.4735 77.6936 53.3738 77.309L55.2924 79.0123C57.613 81.1735 60.1712 84.1223 61.2858 88.6095C62.236 92.4191 62.7841 99.2874 63.0948 106.394C63.2409 109.617 63.3506 112.877 63.3688 115.954V116.064C63.3871 116.376 63.3871 116.705 63.3871 117.017C63.4968 124.911 63.3871 131.193 63.2592 131.303Z" fill="#594AD3"/>
<path d="M35.5215 124.196C35.8138 119.947 36.3255 112.621 35.8321 104.178C35.7408 102.603 35.7042 101.046 35.6859 99.5073C37.5863 94.8918 39.1212 91.5584 39.1212 91.5584H43.8903C43.9085 91.5584 47.3986 115.533 35.5215 124.196Z" fill="#4638B6"/>
<path d="M26.5492 125.02C26.5492 125.02 25.4711 126.449 25.4346 127.017C25.1422 130.881 26.9146 131.413 22.3465 133.574C22.3465 133.574 20.3914 134.325 20.3731 132.804C20.3366 131.284 20.8101 128.746 20.8101 128.746C20.8101 128.746 21.2136 126.669 22.8033 125.387L23.8631 123.628L26.5492 125.02Z" fill="#F2BEB7"/>
<path d="M23.8266 126.101C25.5442 126.431 27.408 126.303 27.408 126.303C27.408 126.303 32.506 110.496 33.1638 109.05C33.8216 107.603 48.3299 90.5145 48.3299 90.5145L42.2817 75.3494C42.2817 75.3494 26.5857 101.614 24.996 105.313C22.3648 111.412 21.4512 125.094 21.4512 125.094C21.4512 125.094 22.4744 125.845 23.8266 126.101Z" fill="#594AD3"/>
<path d="M44.1095 65.8619C44.1095 65.8619 45.0414 65.6971 44.8952 64.415C44.7491 63.1146 44.7491 61.4296 45.7906 61.741C46.8504 62.0523 46.8869 62.8948 47.3255 62.4003C47.764 61.9058 47.764 59.8362 50.8886 59.6897C54.0132 59.5431 55.2923 60.6421 56.7358 60.001C58.1976 59.36 58.2707 57.1621 58.2707 57.1621C58.2707 57.1621 57.8504 57.9497 57.2291 58.2061C57.2291 58.2061 59.6594 54.8727 56.8454 52.6016C54.0315 50.3122 51.1627 51.8141 49.5364 51.9056C45.955 52.1254 43.6344 52.3452 42.465 54.6896C41.3321 57.0523 41.8255 63.5908 44.1095 65.8619Z" fill="#4A190C"/>
<path d="M24.8686 126.724C24.8686 126.724 25.8918 127.804 25.9649 128.244C26.1659 129.673 26.6593 130.295 26.4035 130.46C25.9101 130.79 25.2523 129.728 24.9234 128.775C24.6128 127.804 24.8686 126.724 24.8686 126.724Z" fill="#F2BEB7"/>
<path d="M274.872 56.4479C274.872 56.4479 277.594 56.4479 280.426 58.2611C282.656 59.6897 287.681 66.8693 289.325 71.1551C290.988 75.4409 287.534 77.2907 290.001 79.745C292.431 82.1809 295.775 89.0125 290.111 92.3825C286.913 94.2873 281.23 88.4081 277.594 87.5839C273.94 86.7597 264.182 94.2873 261.624 91.9246C259.066 89.562 256.49 85.4777 264.201 80.3311C266.192 78.994 257.422 78.1698 261.167 68.6276C263.762 62.0157 268.367 56.2647 274.872 56.4479Z" fill="#4A190C"/>
<path d="M247.135 97.749C247.135 97.6574 248.542 94.7453 248.085 94.5072C247.646 94.2874 246.842 94.324 246.751 94.8185C246.66 95.3497 247.135 97.749 247.135 97.749Z" fill="#F2BEB7"/>
<path d="M268.13 61.5211C268.13 61.5211 275.019 54.5796 279.386 60.935C279.386 60.935 282.09 60.1474 283.259 65.7153C284.465 71.3931 282.62 74.8547 280.683 73.7924C279.44 73.1147 278.49 75.2942 278.49 75.2942L268.13 61.5211Z" fill="#4A190C"/>
<path d="M257.897 114.379C251.337 111.962 245.033 100.716 245.033 100.716L247.098 99.2691C248.816 101.797 256.563 106.65 256.563 106.65C256.746 104.526 257.002 102.584 257.312 100.844C259.468 88.9576 264.384 85.441 265.699 84.6901C265.919 84.5619 266.028 84.5253 266.028 84.5253C266.028 84.5253 266.028 84.6168 266.01 84.7817C265.992 85.148 265.955 85.8623 265.882 86.8513C265.389 94.1774 263.379 116.412 257.897 114.379Z" fill="#F2BEB7"/>
<path d="M289.581 126.522C286.347 119.233 284.794 117.181 284.739 114.892C284.702 113.079 285.58 111.119 287.315 106.339C287.717 105.203 288.01 104.049 288.174 102.877C289.545 93.6462 284.191 83.5178 280.884 82.8401C279.458 82.4921 278.417 79.3785 278.435 74.0121L278.015 74.0854L271.035 75.4774C271.035 75.4774 271.199 77.6752 271.199 79.7448C271.199 81.4665 271.492 83.298 270.706 83.3163C270.212 83.353 269.902 83.3896 269.902 83.3896C269.902 83.3896 264.091 91.485 263.598 99.0126C263.105 106.54 268.257 109.819 263.561 124.856C258.792 140.24 291.372 130.533 289.581 126.522Z" fill="#F2BEB7"/>
<path d="M271.053 75.4592C271.053 75.4592 271.217 77.6571 271.217 79.7267C275.127 79.6168 277.192 76.0453 278.033 74.0673L271.053 75.4592Z" fill="#EDA8A2"/>
<path d="M278.746 73.3162C278.746 73.3162 280.793 70.0743 281.286 67.3087C281.633 65.3307 280.628 58.0045 273.283 59.0485C273.283 59.0485 271.145 59.2683 269.135 60.6236C267.545 61.7042 265.243 64.0303 267.819 70.4406L268.495 72.6019L278.746 73.3162Z" fill="#4A190C"/>
<path d="M269.737 77.419C269.737 77.419 278.965 77.5655 278.983 71.7962C278.983 66.0269 280.189 62.1623 274.287 61.8327C268.385 61.4847 267.234 63.6825 266.777 65.6239C266.302 67.547 267.344 77.2359 269.737 77.419Z" fill="#F2BEB7"/>
<path d="M270.084 61.7042C270.084 61.7042 272.606 68.4625 276.498 69.4699C280.371 70.4772 282.071 69.4333 282.071 69.4333C282.071 69.4333 279.092 67.0706 278.471 62.9313C278.471 62.913 272.003 58.4807 270.084 61.7042Z" fill="#4A190C"/>
<path d="M270.706 62.2538C270.706 62.2538 269.427 63.0231 268.367 64.6532C267.526 65.9352 266.686 67.0891 266.814 69.6349C266.814 69.6349 264.913 65.0378 267.051 62.437C269.317 59.6531 270.706 62.2538 270.706 62.2538Z" fill="#4A190C"/>
<path d="M281.396 196.377C279.075 205.644 275.567 212.751 275.567 212.751L272.515 212.531C272.515 212.531 274.013 205.406 273.922 195.791C273.867 189.069 273.027 181.12 270.377 173.519C261.296 147.438 262.758 128.445 262.758 128.445L279.897 130.46L280.701 130.552C280.774 138.446 280.975 149.16 281.158 157.53C281.322 165.058 281.45 170.699 281.45 170.699C284.739 177.805 283.552 187.86 281.396 196.377Z" fill="#161616"/>
<path d="M301.587 134.251L298.809 135.094C298.809 135.094 289.655 119.874 288.832 115.918C288.558 114.636 287.9 112.053 287.115 109.159C285.507 103.17 283.442 95.8624 283.442 95.8624L282.766 92.8953L280.445 82.7853C280.445 82.7853 284.904 83.2432 287.517 84.3421C288.376 84.7084 289.033 85.1296 289.271 85.6425C291.19 89.8733 293.108 100.515 294.442 108.115C295.191 112.346 295.758 115.643 296.068 116.339C296.891 118.28 299.43 128.977 301.587 134.251Z" fill="#F2BEB7"/>
<path d="M291.244 194.893C290.258 205.443 285.927 212.256 285.927 212.256L284.465 213.319C284.465 213.319 283.095 205.883 282.108 197.055C281.176 188.648 279.916 179.765 278.472 177.054C272.753 166.303 271.035 125.68 271.035 125.68L288.412 124.819C290.166 127.768 290.916 132.585 291.098 138.079C291.555 151.944 288.303 170.021 287.828 172.622C287.791 172.823 287.846 173.025 287.937 173.208C291.391 180.095 291.884 187.934 291.244 194.893Z" fill="#252525"/>
<path d="M291.755 131.779C291.792 132.365 291.755 132.841 291.646 133.171C291.28 134.343 290.001 134.874 286.931 134.544C285.049 134.343 284.227 131.193 283.843 128.5C282.71 132.347 281.139 134.508 279.093 134.966C276.114 135.625 261.112 137.457 260.126 130.314C259.048 122.438 262.282 108.518 262.465 101.009C262.026 98.3533 261.88 96.0273 261.916 94.0492C262.044 88.7011 263.762 85.5875 264.968 84.3787C267.088 83.5728 270.468 83.3164 270.468 83.3531C270.212 83.8109 269.353 86.4483 269.5 87.7854C269.938 91.9613 274.25 91.5034 278.033 88.9942C280.828 87.126 282.4 83.06 282.4 83.06C282.4 83.06 287.973 83.5179 289.289 85.6608C291.792 89.7634 293.747 100.643 295.3 108.299C291.5 110.386 288.192 109.764 287.169 109.489C288.503 118.28 291.554 127.749 291.755 131.779Z" fill="#D85980"/>
<path d="M247.098 99.2691C247.098 98.9761 247.335 94.8551 246.604 93.976C245.874 93.1152 244.375 91.8697 243.9 91.9063C243.425 91.943 241.58 94.3972 242.146 96.2837C242.694 98.1702 245.033 100.716 245.033 100.716L247.098 99.2691Z" fill="#F2BEB7"/>
<path d="M250.46 94.1957L246.184 95.4777C246.038 95.5144 245.892 95.4411 245.855 95.2946L243.407 87.1259C243.37 86.9794 243.443 86.8329 243.589 86.7963L247.865 85.5142C248.011 85.4775 248.158 85.5508 248.194 85.6973L250.643 93.866C250.679 94.0125 250.606 94.159 250.46 94.1957Z" fill="#EB594C"/>
<path d="M249.345 94.5436L245.471 95.7158C245.215 95.789 244.959 95.6425 244.886 95.4044L242.566 87.6387C242.493 87.3822 242.639 87.1258 242.876 87.0526L246.75 85.8804C247.006 85.8071 247.262 85.9536 247.335 86.1917L249.655 93.9575C249.747 94.1956 249.601 94.4703 249.345 94.5436Z" fill="#EB594C"/>
<path d="M277.339 215.315H275.402C274.744 215.205 274.269 215.022 273.593 214.93C272.569 214.802 272.113 215.205 272.021 215.315C272.003 215.333 272.003 215.333 272.003 215.333H263.744C263.543 215.04 263.744 214.344 263.927 213.832C264.055 213.484 264.347 213.227 264.694 213.117C265.571 212.861 267.289 212.641 268.878 211.194C269.774 210.388 273.172 208.227 273.172 208.227H273.191C273.264 208.227 273.629 208.337 275.164 209.656C275.968 210.333 277.339 208.703 277.339 208.703C277.339 208.703 277.594 208.923 277.795 209.308C277.942 209.619 278.069 210.059 277.978 210.571C277.85 211.322 278.252 212.696 278.563 213.648C278.764 214.216 278.91 214.619 278.91 214.619C278.91 214.619 279.001 215.095 277.339 215.315Z" fill="#333333"/>
<path d="M277.796 209.326C277.339 209.656 276.352 210.297 275.694 210.388C274.817 210.498 273.173 208.264 273.173 208.264H273.191C273.264 208.264 273.63 208.374 275.165 209.692C275.969 210.37 277.339 208.74 277.339 208.74C277.339 208.74 277.595 208.923 277.796 209.326Z" fill="#EB594C"/>
<path d="M277.339 215.315H275.402C274.744 215.205 274.269 215.022 273.593 214.93C272.569 214.802 272.113 215.205 272.021 215.315C272.003 215.333 272.003 215.333 272.003 215.333H263.744C263.543 215.04 263.744 214.344 263.927 213.831C264.182 213.612 264.256 214.802 264.383 214.985C264.53 215.168 271.126 215.059 271.51 214.784C271.893 214.509 273.026 214.015 274.634 214.399C276.023 214.729 278.069 213.886 278.563 213.648C278.764 214.216 278.91 214.619 278.91 214.619C278.91 214.619 279.001 215.095 277.339 215.315Z" fill="#EB594C"/>
<path d="M287.717 215.315H285.781C285.123 215.205 284.648 215.022 283.972 214.93C282.948 214.802 282.492 215.205 282.4 215.315C282.382 215.333 282.382 215.333 282.382 215.333H274.123C273.922 215.04 274.123 214.344 274.306 213.832C274.433 213.484 274.726 213.227 275.073 213.117C275.95 212.861 277.668 212.641 279.257 211.194C280.153 210.388 283.551 208.227 283.551 208.227H283.57C283.643 208.227 284.008 208.337 285.543 209.656C286.347 210.333 287.717 208.703 287.717 208.703C287.717 208.703 287.973 208.923 288.156 209.308C288.302 209.619 288.43 210.059 288.339 210.571C288.211 211.322 288.613 212.696 288.923 213.648C289.124 214.216 289.271 214.619 289.271 214.619C289.271 214.619 289.38 215.095 287.717 215.315Z" fill="#333333"/>
<path d="M288.175 209.326C287.718 209.656 286.731 210.297 286.073 210.388C285.196 210.498 283.552 208.264 283.552 208.264H283.57C283.643 208.264 284.009 208.374 285.543 209.692C286.347 210.37 287.718 208.74 287.718 208.74C287.718 208.74 287.974 208.923 288.175 209.326Z" fill="#EB594C"/>
<path d="M287.718 215.315H285.781C285.123 215.205 284.648 215.022 283.972 214.93C282.948 214.802 282.492 215.205 282.4 215.315C282.382 215.333 282.382 215.333 282.382 215.333H274.123C273.922 215.04 274.123 214.344 274.306 213.831C274.561 213.612 274.634 214.802 274.762 214.985C274.909 215.168 281.505 215.059 281.889 214.784C282.272 214.509 283.405 214.015 285.013 214.399C286.402 214.729 288.448 213.886 288.942 213.648C289.143 214.216 289.289 214.619 289.289 214.619C289.289 214.619 289.38 215.095 287.718 215.315Z" fill="#EB594C"/>
<path d="M291.756 131.779C289.654 128.446 288.412 124.416 286.767 119.801C282.51 107.914 283.168 101.43 284.191 101.192C285.214 100.954 287.169 109.471 287.169 109.471C288.503 118.281 291.555 127.75 291.756 131.779Z" fill="#BA4066"/>
<path d="M263.397 102.438C263.068 102.419 262.739 102.364 262.429 102.291C262.355 102.273 262.282 102.255 262.209 102.236C261.369 101.998 260.601 101.577 259.962 101.101C258.555 100.093 256.983 98.3534 256.983 98.3534C259.724 86.0821 264.968 84.3788 264.968 84.3788C264.968 84.3788 266.649 102.603 263.397 102.438Z" fill="#D85980"/>
<path d="M243.443 92.2177C243.443 92.2177 245.216 89.4704 245.654 89.617C246.276 89.8367 244.046 93.3167 244.046 93.3167C244.046 93.3167 245.709 90.7159 245.965 90.9173C246.55 91.3569 245.618 93.0053 244.686 94.2507C244.686 94.2507 246.349 92.7306 246.403 93.0053C246.586 93.976 244.576 96.3021 244.576 96.3021L243.443 93.7196V92.2177Z" fill="#F2BEB7"/>
<path d="M242.109 94.7818C242.201 94.4521 242.621 87.8952 242.822 88.5179C243.005 89.1406 243.443 92.5839 243.443 92.5839L242.109 94.7818Z" fill="#F2BEB7"/>
<path d="M282.474 97.8771L285.872 110.277C285.872 110.277 292.962 110.771 295.301 108.28L291.007 97.2544L282.474 97.8771Z" fill="#D85980"/>
<path d="M262.429 102.291C262.356 102.273 262.283 102.254 262.209 102.236C261.369 101.998 260.601 101.577 259.962 101.1C260.126 100.734 260.4 100.258 260.802 99.8917C261.625 99.1224 262.319 95.9539 262.611 96.2103C262.886 96.4667 262.429 102.291 262.429 102.291Z" fill="#BA4066"/>
<path d="M301.586 134.251C301.586 134.251 304.93 136.486 305.441 137.42C305.953 138.354 307.141 141.816 307.141 141.816C307.141 141.816 306.282 141.944 305.441 140.442C304.583 138.94 301.769 139.068 300.837 138.262C299.905 137.457 298.809 135.076 298.809 135.076L301.586 134.251Z" fill="#F2BEB7"/>
<path d="M299.192 135.826C299.192 135.826 299.741 138.445 300.435 139.215C301.111 139.984 302.061 141.266 302.445 140.918C302.829 140.57 302.025 137.713 302.025 137.713L299.192 135.826Z" fill="#F2BEB7"/>
<path d="M304.985 137.713C305.077 137.841 308.018 140.973 308.018 140.973C308.018 140.973 306.959 141.449 306.648 140.973C306.337 140.497 304.985 137.713 304.985 137.713Z" fill="#F2BEB7"/>
<g filter="url(#filter0_biii)">
<path d="M216.784 29.561V203.667C216.784 209.381 212.161 214.015 206.46 214.015H115.665C109.964 214.015 105.341 209.381 105.341 203.667V29.561C105.341 23.8467 109.964 19.2129 115.665 19.2129H206.46C212.161 19.2129 216.784 23.8467 216.784 29.561Z" fill="black" fill-opacity="0.85"/>
<path d="M216.284 29.561V203.667C216.284 209.106 211.884 213.515 206.46 213.515H115.665C110.241 213.515 105.841 209.106 105.841 203.667V29.561C105.841 24.1217 110.241 19.7129 115.665 19.7129H206.46C211.884 19.7129 216.284 24.1217 216.284 29.561Z" stroke="url(#paint4_linear)"/>
</g>
<g filter="url(#filter1_biii)">
<path d="M208.123 88.6931C208.123 98.0888 205.382 106.844 200.65 114.206C199.097 116.606 197.343 118.858 195.406 120.946C193.359 123.144 191.112 125.141 188.681 126.899C188.462 127.064 188.243 127.229 188.005 127.375C180.367 132.723 171.085 135.873 161.072 135.873C154.146 135.873 147.568 134.372 141.648 131.679C140.917 131.349 140.186 130.983 139.474 130.617C137.811 129.756 136.221 128.804 134.686 127.76C132.932 126.569 131.251 125.25 129.68 123.84C120.05 115.195 114.002 102.649 114.002 88.6931C114.002 62.6487 135.07 41.5311 161.053 41.5311C187.055 41.5311 208.123 62.6487 208.123 88.6931Z" fill="black" fill-opacity="0.85"/>
<path d="M188.388 126.494L188.388 126.494L188.381 126.499C188.159 126.666 187.958 126.817 187.743 126.95L187.73 126.957L187.719 126.965C180.161 132.257 170.978 135.373 161.072 135.373C154.219 135.373 147.712 133.887 141.855 131.224L141.854 131.223C141.135 130.899 140.413 130.537 139.703 130.172C138.059 129.321 136.486 128.379 134.968 127.346L134.967 127.346C133.232 126.168 131.569 124.864 130.014 123.468C120.485 114.914 114.502 102.502 114.502 88.6931C114.502 62.9237 135.347 42.0311 161.053 42.0311C186.778 42.0311 207.623 62.9238 207.623 88.6931C207.623 97.9902 204.911 106.651 200.229 113.936C198.692 116.31 196.956 118.539 195.04 120.606C193.015 122.78 190.791 124.755 188.388 126.494Z" stroke="url(#paint5_linear)"/>
</g>
<g clip-path="url(#clip1)">
<path d="M141.167 70.1154V63.9949H145.259V70.1154H151.396V74.1958H145.259V80.3163H141.167V74.1958H135.029V70.1154H141.167ZM147.305 82.3564V76.2359H153.442V70.1154H167.764L171.508 74.1958H177.993C180.244 74.1958 182.085 76.0319 182.085 78.2761V102.758C182.085 105.002 180.244 106.838 177.993 106.838H145.259C143.008 106.838 141.167 105.002 141.167 102.758V82.3564H147.305ZM161.626 100.718C167.273 100.718 171.855 96.148 171.855 90.5171C171.855 84.8862 167.273 80.3163 161.626 80.3163C155.979 80.3163 151.396 84.8862 151.396 90.5171C151.396 96.148 155.979 100.718 161.626 100.718ZM155.079 90.5171C155.079 94.1282 158.005 97.0457 161.626 97.0457C165.247 97.0457 168.173 94.1282 168.173 90.5171C168.173 86.906 165.247 83.9886 161.626 83.9886C158.005 83.9886 155.079 86.906 155.079 90.5171Z" fill="url(#paint6_linear)"/>
</g>
<path d="M130.283 65.3411H127.98V58.3263H135.6V60.6158H130.283V65.3411Z" fill="white"/>
<path d="M192.628 65.6524H190.344V60.3043H185.63V58.0149H192.628V65.6524Z" fill="white"/>
<path d="M192.628 117.132H185.009V114.843H190.344V110.117H192.628V117.132Z" fill="white"/>
<path d="M134.979 117.443H127.98V109.806H130.283V115.154H134.979V117.443Z" fill="white"/>
<path d="M200.814 198.025V213.465C200.814 213.648 200.814 213.85 200.796 214.033H121.914C121.914 213.85 121.896 213.648 121.896 213.465V198.025C121.896 190.974 126.427 185.223 131.982 185.223H190.728C196.264 185.205 200.814 190.974 200.814 198.025Z" fill="url(#paint7_linear)"/>
<mask id="path-65-inside-1" fill="white">
<path d="M206.46 215.333H115.664C109.251 215.333 104.043 210.114 104.043 203.685V29.5611C104.043 23.1324 109.251 17.9126 115.664 17.9126H206.46C212.874 17.9126 218.081 23.1324 218.081 29.5611V203.667C218.081 210.095 212.874 215.333 206.46 215.333ZM115.664 20.5134C110.676 20.5134 106.638 24.5794 106.638 29.5611V203.667C106.638 208.667 110.694 212.714 115.664 212.714H206.46C211.448 212.714 215.487 208.648 215.487 203.667V29.5611C215.487 24.561 211.43 20.5134 206.46 20.5134H115.664Z"/>
</mask>
<path d="M206.46 212.333H115.664V218.333H206.46V212.333ZM115.664 212.333C110.914 212.333 107.043 208.463 107.043 203.685H101.043C101.043 211.764 107.587 218.333 115.664 218.333V212.333ZM107.043 203.685V29.5611H101.043V203.685H107.043ZM107.043 29.5611C107.043 24.7827 110.914 20.9126 115.664 20.9126V14.9126C107.587 14.9126 101.043 21.4822 101.043 29.5611H107.043ZM115.664 20.9126H206.46V14.9126H115.664V20.9126ZM206.46 20.9126C211.21 20.9126 215.081 24.7827 215.081 29.5611H221.081C221.081 21.4822 214.537 14.9126 206.46 14.9126V20.9126ZM215.081 29.5611V203.667H221.081V29.5611H215.081ZM215.081 203.667C215.081 208.451 211.204 212.333 206.46 212.333V218.333C214.543 218.333 221.081 211.739 221.081 203.667H215.081ZM115.664 17.5134C109.008 17.5134 103.638 22.9331 103.638 29.5611H109.638C109.638 26.2256 112.343 23.5134 115.664 23.5134V17.5134ZM103.638 29.5611V203.667H109.638V29.5611H103.638ZM103.638 203.667C103.638 210.321 109.035 215.714 115.664 215.714V209.714C112.354 209.714 109.638 207.013 109.638 203.667H103.638ZM115.664 215.714H206.46V209.714H115.664V215.714ZM206.46 215.714C213.116 215.714 218.487 210.295 218.487 203.667H212.487C212.487 207.002 209.781 209.714 206.46 209.714V215.714ZM218.487 203.667V29.5611H212.487V203.667H218.487ZM218.487 29.5611C218.487 22.9069 213.09 17.5134 206.46 17.5134V23.5134C209.771 23.5134 212.487 26.2152 212.487 29.5611H218.487ZM206.46 17.5134H115.664V23.5134H206.46V17.5134Z" fill="url(#paint8_linear)" mask="url(#path-65-inside-1)"/>
<path d="M160.888 203.575L155.809 199.014L157.234 197.421L160.523 200.351L165.055 193.85L166.809 195.077L160.888 203.575Z" fill="white"/>
<path d="M161.309 208.392C155.973 208.392 151.643 204.051 151.643 198.703C151.643 193.355 155.973 189.014 161.309 189.014C166.644 189.014 170.975 193.355 170.975 198.703C170.975 204.051 166.644 208.392 161.309 208.392ZM161.309 189.417C156.192 189.417 152.026 193.593 152.026 198.721C152.026 203.85 156.192 208.025 161.309 208.025C166.425 208.025 170.591 203.85 170.591 198.721C170.591 193.575 166.425 189.417 161.309 189.417Z" fill="white"/>
<path d="M198.256 162.549H125.111V163.208H198.256V162.549Z" fill="white"/>
<path d="M122.718 162.878C122.718 161.56 123.796 160.479 125.111 160.479C126.427 160.479 127.505 161.56 127.505 162.878C127.505 164.197 126.427 165.278 125.111 165.278C123.778 165.278 122.718 164.215 122.718 162.878Z" fill="#30545D"/>
<path d="M158.477 162.878C158.477 161.102 159.92 159.655 161.693 159.655C163.465 159.655 164.908 161.102 164.908 162.878C164.908 164.655 163.465 166.102 161.693 166.102C159.902 166.102 158.477 164.655 158.477 162.878Z" fill="#30545D"/>
<path d="M195.862 162.878C195.862 161.56 196.94 160.479 198.256 160.479C199.572 160.479 200.65 161.56 200.65 162.878C200.65 164.197 199.572 165.278 198.256 165.278C196.94 165.278 195.862 164.215 195.862 162.878Z" fill="white"/>
<path d="M161.638 162.549H125.111V163.208H161.638V162.549Z" fill="#30545D"/>
<path d="M307.269 217H0.493356C0.219269 217 0 216.78 0 216.506V215.828C0 215.553 0.219269 215.334 0.493356 215.334H307.269C307.543 215.334 307.762 215.553 307.762 215.828V216.506C307.762 216.78 307.543 217 307.269 217Z" fill="#23393D"/>
</g>
<defs>
<filter id="filter0_biii" x="101.341" y="15.2129" width="119.444" height="256.853" filterUnits="userSpaceOnUse" color-interpolation-filters="sRGB">
<feFlood flood-opacity="0" result="BackgroundImageFix"/>
<feGaussianBlur in="BackgroundImage" stdDeviation="2"/>
<feComposite in2="SourceAlpha" operator="in" result="effect1_backgroundBlur"/>
<feBlend mode="normal" in="SourceGraphic" in2="effect1_backgroundBlur" result="shape"/>
<feColorMatrix in="SourceAlpha" type="matrix" values="0 0 0 0 0 0 0 0 0 0 0 0 0 0 0 0 0 0 127 0" result="hardAlpha"/>
<feOffset dy="0.769772"/>
<feGaussianBlur stdDeviation="7.5"/>
<feComposite in2="hardAlpha" operator="arithmetic" k2="-1" k3="1"/>
<feColorMatrix type="matrix" values="0 0 0 0 0.888917 0 0 0 0 0.870833 0 0 0 0 1 0 0 0 0.2 0"/>
<feBlend mode="normal" in2="shape" result="effect2_innerShadow"/>
<feColorMatrix in="SourceAlpha" type="matrix" values="0 0 0 0 0 0 0 0 0 0 0 0 0 0 0 0 0 0 127 0" result="hardAlpha"/>
<feOffset dy="3.07909"/>
<feGaussianBlur stdDeviation="6.92795"/>
<feComposite in2="hardAlpha" operator="arithmetic" k2="-1" k3="1"/>
<feColorMatrix type="matrix" values="0 0 0 0 0.395833 0 0 0 0 0.395833 0 0 0 0 0.395833 0 0 0 0.3 0"/>
<feBlend mode="normal" in2="effect2_innerShadow" result="effect3_innerShadow"/>
<feColorMatrix in="SourceAlpha" type="matrix" values="0 0 0 0 0 0 0 0 0 0 0 0 0 0 0 0 0 0 127 0" result="hardAlpha"/>
<feMorphology radius="36.9491" operator="dilate" in="SourceAlpha" result="effect4_innerShadow"/>
<feOffset dy="62"/>
<feGaussianBlur stdDeviation="47.5"/>
<feComposite in2="hardAlpha" operator="arithmetic" k2="-1" k3="1"/>
<feColorMatrix type="matrix" values="0 0 0 0 0.754167 0 0 0 0 0.754167 0 0 0 0 0.754167 0 0 0 0.3 0"/>
<feBlend mode="normal" in2="effect3_innerShadow" result="effect4_innerShadow"/>
</filter>
<filter id="filter1_biii" x="110.002" y="37.5311" width="102.121" height="156.393" filterUnits="userSpaceOnUse" color-interpolation-filters="sRGB">
<feFlood flood-opacity="0" result="BackgroundImageFix"/>
<feGaussianBlur in="BackgroundImage" stdDeviation="2"/>
<feComposite in2="SourceAlpha" operator="in" result="effect1_backgroundBlur"/>
<feBlend mode="normal" in="SourceGraphic" in2="effect1_backgroundBlur" result="shape"/>
<feColorMatrix in="SourceAlpha" type="matrix" values="0 0 0 0 0 0 0 0 0 0 0 0 0 0 0 0 0 0 127 0" result="hardAlpha"/>
<feOffset dy="0.769772"/>
<feGaussianBlur stdDeviation="7.5"/>
<feComposite in2="hardAlpha" operator="arithmetic" k2="-1" k3="1"/>
<feColorMatrix type="matrix" values="0 0 0 0 0.888917 0 0 0 0 0.870833 0 0 0 0 1 0 0 0 0.2 0"/>
<feBlend mode="normal" in2="shape" result="effect2_innerShadow"/>
<feColorMatrix in="SourceAlpha" type="matrix" values="0 0 0 0 0 0 0 0 0 0 0 0 0 0 0 0 0 0 127 0" result="hardAlpha"/>
<feOffset dy="3.07909"/>
<feGaussianBlur stdDeviation="6.92795"/>
<feComposite in2="hardAlpha" operator="arithmetic" k2="-1" k3="1"/>
<feColorMatrix type="matrix" values="0 0 0 0 0.395833 0 0 0 0 0.395833 0 0 0 0 0.395833 0 0 0 0.3 0"/>
<feBlend mode="normal" in2="effect2_innerShadow" result="effect3_innerShadow"/>
<feColorMatrix in="SourceAlpha" type="matrix" values="0 0 0 0 0 0 0 0 0 0 0 0 0 0 0 0 0 0 127 0" result="hardAlpha"/>
<feMorphology radius="36.9491" operator="dilate" in="SourceAlpha" result="effect4_innerShadow"/>
<feOffset dy="62"/>
<feGaussianBlur stdDeviation="47.5"/>
<feComposite in2="hardAlpha" operator="arithmetic" k2="-1" k3="1"/>
<feColorMatrix type="matrix" values="0 0 0 0 0.754167 0 0 0 0 0.754167 0 0 0 0 0.754167 0 0 0 0.3 0"/>
<feBlend mode="normal" in2="effect3_innerShadow" result="effect4_innerShadow"/>
</filter>
<linearGradient id="paint0_linear" x1="197.648" y1="174.481" x2="257.069" y2="179.425" gradientUnits="userSpaceOnUse">
<stop stop-color="#00467F"/>
<stop offset="1" stop-color="#AAD684"/>
</linearGradient>
<linearGradient id="paint1_linear" x1="71.0717" y1="163.291" x2="140.534" y2="169.215" gradientUnits="userSpaceOnUse">
<stop stop-color="#00467F"/>
<stop offset="1" stop-color="#AAD684"/>
</linearGradient>
<linearGradient id="paint2_linear" x1="74.2858" y1="125.506" x2="116.649" y2="128.511" gradientUnits="userSpaceOnUse">
<stop stop-color="#00467F"/>
<stop offset="1" stop-color="#AAD684"/>
</linearGradient>
<linearGradient id="paint3_linear" x1="190.987" y1="107.849" x2="253.289" y2="112.884" gradientUnits="userSpaceOnUse">
<stop stop-color="#00467F"/>
<stop offset="1" stop-color="#AAD684"/>
</linearGradient>
<linearGradient id="paint4_linear" x1="92.016" y1="-10.7566" x2="266.889" y2="-3.7565" gradientUnits="userSpaceOnUse">
<stop stop-color="#133983"/>
<stop offset="1" stop-color="#71BC6F"/>
</linearGradient>
<linearGradient id="paint5_linear" x1="102.748" y1="27.0169" x2="249.959" y2="37.2933" gradientUnits="userSpaceOnUse">
<stop stop-color="#133983"/>
<stop offset="1" stop-color="#71BC6F"/>
</linearGradient>
<linearGradient id="paint6_linear" x1="129.403" y1="57.4036" x2="202.925" y2="63.0537" gradientUnits="userSpaceOnUse">
<stop stop-color="#133983"/>
<stop offset="1" stop-color="#71BC6F"/>
</linearGradient>
<linearGradient id="paint7_linear" x1="112.46" y1="180.791" x2="232.099" y2="203.722" gradientUnits="userSpaceOnUse">
<stop stop-color="#133983"/>
<stop offset="1" stop-color="#71BC6F"/>
</linearGradient>
<linearGradient id="paint8_linear" x1="90.408" y1="-12.4598" x2="269.346" y2="-5.22746" gradientUnits="userSpaceOnUse">
<stop stop-color="#133983"/>
<stop offset="1" stop-color="#71BC6F"/>
</linearGradient>
<clipPath id="clip0">
<rect width="308" height="217" fill="white"/>
</clipPath>
<clipPath id="clip1">
<rect width="49.1014" height="48.9641" fill="white" transform="translate(135.029 61.9547)"/>
</clipPath>
</defs>
</svg>
