<svg width="315" height="348" viewBox="0 0 315 348" fill="none" xmlns="http://www.w3.org/2000/svg">
<g opacity="0.05" filter="url(#filter0_f)">
<path d="M157.5 286.616C210.795 286.616 254 236.11 254 173.808C254 111.506 210.795 61 157.5 61C104.205 61 61 111.506 61 173.808C61 236.11 104.205 286.616 157.5 286.616Z" fill="url(#paint0_linear)"/>
</g>
<path opacity="0.1" d="M158.17 319.937C227.852 319.937 284.341 304.759 284.341 286.035C284.341 267.312 227.852 252.134 158.17 252.134C88.4884 252.134 32 267.312 32 286.035C32 304.759 88.4884 319.937 158.17 319.937Z" fill="#9B7333"/>
<path d="M175.739 110.605C175.783 110.459 177.008 108.41 178.586 106.172C185.904 95.7796 196.764 85.7654 209.497 86.1433L209.511 86.0706C203.757 85.4457 198.121 86.9572 193.164 89.6461C184.99 93.9773 177.037 102.247 172.685 108.599L175.739 110.605Z" fill="#F7CC7F"/>
<path d="M206.678 91.8989L207.534 86.056L203.137 82.0445C202.635 81.594 202.886 80.7655 203.55 80.6492L209.452 79.6464L211.96 74.2832C212.241 73.6727 213.126 73.6437 213.436 74.2396L216.224 79.472L222.17 80.1696C222.849 80.2423 223.144 81.0562 222.657 81.5358L218.467 85.7654L219.632 91.5646C219.765 92.2186 219.072 92.7419 218.467 92.4512L213.096 89.835L207.859 92.7128C207.298 93.0471 206.575 92.5529 206.678 91.8989Z" fill="#F7CC7F"/>
<path d="M130.584 81.2011L129.802 84.0644L132.148 86.012L131.041 89.1514L134.184 90.4595L133.092 94.0786L135.851 95.6483L135.364 99.2819L133.963 99.1074L134.317 96.3895L131.425 94.7326L132.473 91.2589L129.271 89.9217L130.496 86.448L128.194 84.5585L128.932 81.8987L127.161 80.9685L127.825 79.7331L130.584 81.2011Z" fill="#9BC1F9"/>
<path d="M64.2487 248.771C67.6422 252.506 67.3324 258.233 63.5405 261.59C59.7487 264.933 53.9207 264.613 50.5273 260.892C47.1338 257.157 47.4436 251.431 51.2355 248.073C55.0273 244.73 60.8552 245.05 64.2487 248.771Z" fill="#F7CC7F"/>
<path d="M54.7026 259.134C56.5174 261.125 59.6306 261.3 61.6519 259.512C63.6732 257.724 63.8503 254.658 62.0355 252.666L54.7026 259.134Z" fill="#EFEFEF"/>
<path d="M54.2308 226.054L51.8258 224.702C51.1619 225.748 50.3504 226.679 49.5684 227.391C48.9192 227.987 47.9012 227.972 47.2667 227.362L47.193 227.289C46.4848 226.621 46.4995 225.501 47.2372 224.862C47.9897 224.208 48.7127 223.394 49.2733 222.42C50.0996 220.996 50.0996 219.717 49.0815 219.15C48.1225 218.612 47.0454 219.077 45.3487 220.56C42.8995 222.725 40.5831 223.83 38.1191 222.464C35.8912 221.214 35.0354 218.699 36.0387 215.72L33.6338 214.368L35.0354 211.926L37.2633 213.176C37.824 212.29 38.3847 211.621 38.9011 211.083C39.5503 210.429 40.5978 210.429 41.2618 211.054C41.9405 211.708 41.9552 212.784 41.2618 213.438C40.7454 213.932 40.1847 214.572 39.683 215.458C38.7535 217.086 39.1519 218.002 39.8601 218.394C40.7011 218.859 41.7339 218.278 43.77 216.621C46.5438 214.252 48.6241 213.83 50.9111 215.095C53.1685 216.359 54.1865 219.005 53.0357 222.158L55.6177 223.597L54.2308 226.054Z" fill="#FAE0B2"/>
<path d="M251.192 125.926L249.599 129.835L242.915 128.004L239.876 133.44L234.653 132.873L234.357 135.475L241.351 136.231L244.228 131.085L251.177 132.989L253.567 127.103L251.192 125.926Z" fill="#466EB6"/>
<path d="M239.64 264.497L241.041 261.082C239.507 260.384 238.091 259.483 236.984 258.582C236.069 257.826 235.907 256.489 236.615 255.529L236.704 255.413C237.486 254.367 239.02 254.178 240.009 255.035C241.027 255.907 242.266 256.707 243.697 257.273C245.778 258.102 247.533 257.869 248.109 256.431C248.669 255.064 247.858 253.742 245.512 251.765C242.133 248.916 240.201 246.067 241.632 242.579C242.93 239.411 246.205 237.827 250.425 238.626L251.827 235.21L255.412 236.635L254.114 239.803C255.412 240.385 256.43 240.995 257.256 241.605C258.245 242.347 258.452 243.727 257.714 244.716C256.947 245.733 255.486 245.937 254.468 245.152C253.715 244.556 252.727 243.945 251.443 243.437C249.068 242.492 247.887 243.204 247.474 244.207C246.987 245.399 247.961 246.663 250.588 249.047C254.32 252.288 255.265 254.963 253.937 258.189C252.624 261.387 249.215 263.218 244.715 262.259L243.21 265.921L239.64 264.497Z" fill="#96D9C9"/>
<path d="M84.6246 146.289C84.9787 146.754 84.9492 147.394 84.5656 147.83C83.7983 148.673 82.5442 149.69 80.9655 150.446C78.6638 151.55 76.0228 151.885 73.5294 151.042C71.9802 150.518 70.49 149.443 69.3834 147.975L68.026 148.629C67.5686 148.847 67.008 148.658 66.7866 148.207L66.7719 148.178C66.5506 147.728 66.7424 147.176 67.1998 146.958L68.3211 146.42C68.0998 146.056 67.9522 145.838 67.849 145.635C67.6719 145.286 67.5096 144.865 67.3621 144.385L66.2112 144.937C65.7538 145.155 65.1932 144.966 64.9719 144.516C64.7506 144.065 64.9424 143.513 65.3997 143.295L66.8014 142.626C66.403 140.868 66.4768 139.08 67.008 137.554C67.9227 134.952 69.9146 132.961 72.3343 131.813C73.7359 131.144 74.9163 130.868 75.89 130.766C76.5687 130.694 77.1737 131.159 77.2622 131.827V131.842C77.3655 132.525 76.8786 133.15 76.1704 133.237C75.3736 133.339 74.4589 133.586 73.4113 134.095C71.8769 134.836 70.5785 136.042 69.9293 137.801C69.5752 138.818 69.4719 140.025 69.826 141.173L77.6753 137.408C78.1327 137.19 78.6934 137.379 78.9147 137.83C79.136 138.28 78.9442 138.833 78.4868 139.051L70.2834 142.99C70.431 143.382 70.5932 143.774 70.7113 144.022C70.8588 144.327 71.0211 144.647 71.2572 145.039L79.4753 141.1C79.9475 140.868 80.5229 141.071 80.7442 141.536C80.9803 142.001 80.7737 142.568 80.3016 142.786L72.4375 146.565C73.1753 147.437 74.09 148.062 75.0195 148.382C76.8638 148.978 78.5016 148.789 80.2426 147.96C81.3049 147.452 82.1754 146.812 82.8098 146.202C83.341 145.649 84.182 145.708 84.6246 146.289Z" fill="#86B1F2"/>
<path d="M59.2471 170.721L55.1896 171.128L53.8027 164.762L47.783 164.631L45.9535 160.038L43.5928 160.954L46.042 167.102L51.7371 167.218L53.1831 173.846L59.2913 173.236L59.2471 170.721Z" fill="#50BFA5"/>
<path d="M210.14 127.043L212.692 127.872C212.692 127.872 216.735 126.578 217.133 125.764C217.532 124.95 217.65 122.988 218.225 122.93C218.801 122.872 219.907 123.061 220.173 124.412C220.365 125.386 218.904 128.22 219.14 128.526C219.287 128.715 220.733 129.238 221.796 129.587C222.504 129.819 223.006 130.43 223.109 131.171C223.183 131.665 222.902 132.145 222.43 132.334L221.692 132.61L221.929 133.351C222.106 133.903 221.796 134.499 221.235 134.688L220.674 134.877L220.851 135.328C221.088 135.909 220.763 136.578 220.143 136.752L219.642 136.897L219.656 137.028C219.745 137.566 219.391 138.089 218.86 138.235L218.373 138.365L211.586 136.156C210.951 135.953 210.361 135.618 209.859 135.168L207.602 133.991C207.366 133.86 207.248 133.584 207.337 133.322L209.432 127.392C209.55 127.101 209.86 126.941 210.14 127.043Z" fill="#FAE0B2"/>
<path d="M109.95 128.392C109.891 128.232 108.534 125.935 106.778 123.45C98.6041 111.852 86.4908 100.675 72.2677 101.096L72.2529 101.009C78.6858 100.311 84.9711 101.997 90.504 105.006C99.6221 109.846 108.504 119.075 113.373 126.168L109.95 128.392Z" fill="#F7CC7F"/>
<path d="M75.4247 107.521L74.4657 100.995L79.3788 96.5184C79.9395 96.0097 79.6592 95.0941 78.9067 94.9633L72.3115 93.8441L69.5082 87.856C69.1836 87.1728 68.2098 87.1438 67.8557 87.8124L64.7426 93.6406L58.1031 94.4255C57.3507 94.5127 57.0261 95.4138 57.5572 95.9516L62.2343 100.675L60.936 107.143C60.7884 107.884 61.5556 108.466 62.2491 108.131L68.2541 105.21L74.0968 108.422C74.7312 108.8 75.528 108.262 75.4247 107.521Z" fill="#F7CC7F"/>
<path d="M245.453 224.425L245.91 222.884C248.344 222.434 250.44 220.821 251.133 218.495C251.354 217.754 251.502 217.129 251.62 216.286L248.359 215.356L248.935 213.408L251.886 214.251C252.004 213.277 252.166 212.013 252.535 210.806C253.627 207.158 256.902 205.501 260.414 206.504C261.417 206.795 262.199 207.158 262.774 207.536C263.291 207.885 263.438 208.568 263.084 209.091C262.745 209.615 262.036 209.76 261.491 209.44C261.048 209.164 260.473 208.917 259.75 208.713C257.271 208.016 255.766 209.397 255.117 211.591C254.718 212.914 254.615 213.96 254.512 215.007L259.071 216.3L258.495 218.248L254.187 217.027C253.936 218.233 253.641 219.425 253.022 220.457C252.269 221.693 251.177 222.579 249.835 223.175L249.82 223.233L258.156 225.602C258.776 225.777 259.13 226.402 258.953 227.012L258.923 227.099C258.746 227.695 258.097 228.044 257.477 227.87L245.453 224.425Z" fill="#F7CC7F"/>
<path d="M34.8145 133.44L36.3637 130.853L35.0801 128.135C34.9325 127.83 35.2129 127.481 35.5522 127.554L38.5178 128.208L40.7457 126.173C40.9965 125.941 41.4097 126.1 41.4392 126.435L41.7195 129.414L44.3753 130.882C44.6851 131.042 44.6556 131.478 44.331 131.624L41.5425 132.815L40.9523 135.751C40.8785 136.086 40.4506 136.202 40.2293 135.94L38.2227 133.687L35.1981 134.051C34.8735 134.094 34.6374 133.731 34.8145 133.44Z" fill="#466EB6"/>
<path d="M281.423 174.893L277.705 174.587L277.189 177.988L273.515 177.843L272.63 181.026L269.856 181.375L270.033 182.756L273.736 182.291L274.577 179.282L278.413 179.413L278.9 176.084L282.279 176.346L281.423 174.893Z" fill="#F48C7F"/>
<path d="M122.056 102.931L121.835 99.2536L118.353 99.2391L117.97 95.6346L114.65 95.2131L113.912 92.5678L112.555 92.9312L113.528 96.4775L116.686 96.87L117.084 100.62L120.507 100.634L120.714 103.963L122.056 102.931Z" fill="#F48C7F"/>
<path d="M41.4389 200.923L44.2422 201.97L46.4553 199.877L49.5095 201.272L51.1619 198.322L54.703 199.76L56.5473 197.217L60.1916 198.06L59.867 199.412L57.1522 198.787L55.1899 201.461L51.7964 200.08L50.1144 203.089L46.7357 201.534L44.5815 203.598L41.97 202.609L40.8487 204.252L39.6831 203.481L41.4389 200.923Z" fill="#F7CC7F"/>
<path d="M171.298 94.5294L171.121 96.7677L167.432 96.8695L166.768 100.111L164.024 100.634L164.29 102L167.963 101.288L168.598 98.2357L172.419 98.1194L172.699 94.762L171.298 94.5294Z" fill="#50BFA5"/>
<path d="M245.925 94.8925C250.174 98.904 250.307 105.546 246.235 109.718C242.163 113.903 235.42 114.034 231.185 110.023C226.936 106.011 226.803 99.3691 230.876 95.1977C234.948 91.0264 241.69 90.881 245.925 94.8925Z" fill="#FFF3D9"/>
<path d="M245.748 103.671L241.218 105.038L239.802 109.485C239.684 109.849 239.197 109.921 238.99 109.616L236.261 105.793L231.525 105.837C231.141 105.837 230.92 105.416 231.156 105.11L234.003 101.375L232.498 96.942C232.38 96.5786 232.72 96.2443 233.089 96.3606L237.574 97.8722L241.381 95.0961C241.69 94.8781 242.118 95.0961 242.118 95.474L242.044 100.14L245.91 102.843C246.19 103.075 246.117 103.555 245.748 103.671Z" fill="#FED333"/>
<path d="M276.098 138.644L278.591 138.498C278.857 138.484 279.004 138.135 278.827 137.917L277.234 135.868L277.912 133.251C277.986 132.975 277.735 132.728 277.485 132.83L275.153 133.862L273.073 132.394C272.852 132.234 272.542 132.423 272.571 132.714L272.719 135.402L270.757 137.103C270.55 137.292 270.609 137.655 270.875 137.713L273.294 138.338L274.15 140.853C274.239 141.129 274.593 141.158 274.725 140.911L276.098 138.644Z" fill="#F47458"/>
<path d="M206.339 271.488C206.339 271.488 212.477 275.848 213.436 277.142C214.823 279.017 203.049 282.519 204.333 280.325C204.628 279.816 205.484 278.13 205.513 277.956C205.705 277.069 203.211 274.656 203.211 274.656L206.339 271.488Z" fill="#F7A491"/>
<path d="M201.146 283.988L205.306 278.189C205.306 278.189 207.903 277.593 210.574 274.642C210.574 274.642 212.979 275.543 214.454 277.505C214.454 277.505 211.666 280.47 207.372 283.799C207.372 283.799 204.82 286.023 201.308 287.185C197.796 288.348 201.146 283.988 201.146 283.988Z" fill="#F7CC7F"/>
<path d="M256.415 164.035C256.415 164.035 254.836 166.608 254.659 166.448C254.526 166.331 255.471 164.965 256.149 163.323C256.326 162.901 256.489 162.48 256.651 162.102C257.049 161.084 256.562 160.561 255.972 161.564C255.766 161.913 255.441 162.509 255.264 162.959C255.072 163.454 254.748 163.846 254.526 164.224C254.084 164.994 253.774 165.561 253.759 165.532C253.73 165.488 253.538 165.576 253.715 165.125C253.921 164.573 254.6 163.512 254.851 162.683C254.984 162.218 255.323 161.259 255.323 161.259C255.323 161.259 255.574 159.718 255.485 159.675C255.028 159.442 254.571 160.459 254.467 161.114C254.187 161.506 253.862 162.523 253.862 162.523C253.862 162.523 252.741 164.442 252.461 164.297C252.343 164.238 252.903 162.974 253.257 161.651C253.582 160.43 253.715 159.137 253.494 159.05C253.11 158.89 252.594 160.212 252.594 160.212C252.594 160.212 252.284 161.157 252.166 161.462C252.018 161.826 251.502 162.872 251.502 162.872C251.502 162.872 249.466 166.404 249.23 166.23C248.993 166.07 248.595 165.401 248.639 165.14C248.684 164.878 249.023 164.442 249.067 164.18C249.112 163.919 248.964 163.541 248.639 163.468C248.33 163.395 247.621 164.573 247.621 164.573C247.621 164.573 247.046 165.532 247.031 166.317C246.972 168.991 247.415 168.889 247.4 169.224C247.385 169.631 244.243 174.093 244.243 174.093C244.243 174.093 244.228 174.122 244.184 174.165L247.916 176.84C249.156 174.849 250.13 173.279 250.41 172.799C250.41 172.799 252.284 171.229 253.42 170.198C254.556 169.166 255.205 167.683 255.485 167.349C255.53 167.305 256.385 166.113 257.079 164.384C257.654 162.872 256.415 164.035 256.415 164.035Z" fill="#F8A492"/>
<path d="M215.723 226.722L214.749 231.445L190.36 253.291L207.815 270.688L203.108 275.426C203.108 275.426 177.332 256.779 176.403 254.337C174.972 250.573 194.89 225.646 194.89 225.646L215.723 226.722Z" fill="#B75742"/>
<path d="M233.679 284.554C233.679 284.554 239.816 288.914 240.776 290.208C242.162 292.083 230.388 295.586 231.672 293.391C231.967 292.882 232.823 291.196 232.852 291.022C233.044 290.135 230.551 287.723 230.551 287.723L233.679 284.554Z" fill="#F7A491"/>
<path d="M228.485 297.083L232.646 291.283C232.646 291.283 235.42 290.789 238.075 287.839C238.075 287.839 240.303 288.638 241.779 290.586C241.779 290.586 238.99 293.551 234.697 296.879C234.697 296.879 232.144 299.103 228.633 300.266C225.121 301.443 228.485 297.083 228.485 297.083Z" fill="#F7CC7F"/>
<path d="M214.882 228.917L215.265 259.977L234.638 283.915L230.079 288.9C230.079 288.9 206.088 269.25 203.462 263.61C201.839 260.108 195.893 227.042 195.893 227.042L214.882 228.917Z" fill="#F47458"/>
<path d="M195.214 226.475C197.191 222.071 196.97 190.459 204.686 183.047C207.401 183.497 209.334 183.759 209.791 183.875C210.19 187.131 210.632 199.078 210.913 210.037C211.09 217.333 210.913 224.978 211.813 229.019C212.388 231.504 193.399 230.501 195.214 226.475Z" fill="#FAE0B2"/>
<path d="M162.534 201.185C158.019 201.447 156.115 202.144 154.728 201.883C153.342 201.621 149.638 200.328 149.712 198.947C154.669 197.973 163.315 199.485 163.315 199.485C162.725 202.333 162.534 201.185 162.534 201.185Z" fill="#F7A491"/>
<path d="M201.396 184.049C201.396 184.049 199.39 193.744 197.058 195.401C194.727 197.072 182.894 202.929 182.171 202.886C178.601 202.682 161.486 201.999 161.486 201.999L162.017 196.592L181.301 195.052C181.301 195.052 195.258 186.04 197.147 184.616C198.46 183.788 201.396 184.049 201.396 184.049Z" fill="#466EB6"/>
<path d="M194.447 228.583C192.706 228.583 192.071 228.35 190.921 228.001C190.921 228.001 190.168 215.313 193.857 196.505C195.244 189.413 195.288 185.11 198.135 184.02C200.703 183.032 203.845 182.901 204.701 183.046C197.147 204.121 197.117 220.342 196.04 225.051C195.494 227.405 195.022 228.597 194.447 228.583Z" fill="#466EB6"/>
<path d="M205.484 179.863L204.687 183.046C204.687 183.046 204.51 185.823 205.808 186.07C207.387 186.375 209.718 184.049 209.718 184.049L211.075 175.067L205.484 179.863Z" fill="#F7A491"/>
<path d="M205.484 179.863L204.687 183.046C204.687 183.046 204.51 185.823 205.808 186.07C207.387 186.375 209.718 184.049 209.718 184.049L211.075 175.067L205.484 179.863Z" fill="#F7A491"/>
<path d="M211.075 175.111L205.483 179.863L204.893 182.247C207.032 181.738 210.087 179.413 211.075 175.111Z" fill="#F47458"/>
<path d="M205.468 166.84C204.111 166.84 202.901 167.756 202.429 169.093C202.031 170.198 201.529 171.826 201.204 173.701C200.614 177.16 202.606 180.314 204.347 180.561C206.088 180.808 210.219 179.674 211.134 174.791C211.533 172.698 212.049 169.951 210.293 168.497C208.936 167.378 207.018 166.855 205.468 166.84Z" fill="#F7A491"/>
<path d="M210.574 178.526C210.574 178.526 216.697 173.148 216.962 168.948C217.228 164.748 213.289 162.495 209.925 162.378C208.405 162.32 207.372 162.393 205.808 162.582C202.429 163.003 200.246 164.471 201.013 167.189C202.046 170.837 209.039 167.756 210.471 168.89C211.651 169.82 209.733 172.073 210.884 172.93C211.961 173.744 211.415 173.468 211.061 174.994C210.707 176.564 210.574 178.526 210.574 178.526Z" fill="#030303"/>
<path d="M212.934 173.657C212.787 174.66 212.152 175.401 211.533 175.314C210.913 175.227 210.529 174.34 210.692 173.323C210.839 172.32 211.474 171.579 212.093 171.666C212.713 171.753 213.082 172.654 212.934 173.657Z" fill="#F7A491"/>
<path d="M249.598 175.314L245.423 171.244C245.423 171.244 237.5 182.45 233.487 184.383C229.577 186.273 216.578 185.59 216.121 185.488C214.557 185.139 209.762 183.845 209.762 183.845C209.762 183.845 205.749 217.827 210.972 229.643C212.683 233.495 223.306 230.937 223.306 230.937C223.306 230.937 220.031 216.78 219.854 214.934C219.691 213.161 218.777 199.121 218.924 198.99C219.308 198.612 233.811 195.502 237.78 192.522C241.985 189.398 249.598 175.314 249.598 175.314Z" fill="#466EB6"/>
<path d="M86.8968 206.156C94.0527 213.496 100.323 206.999 100.013 207.1C100.264 206.999 101.828 206.999 102.846 206.97C107.11 206.81 110.991 203.801 112.673 199.819C119.046 198.99 123.222 193.191 121.348 188.177C124.166 184.717 123.296 179.209 120.625 175.677C120.005 169.892 112.333 168.904 107.036 170.939C104.351 171.971 102.079 174.195 100.899 176.883C95.8084 176.767 91.4559 180.459 90.3198 185.59C82.4263 187.755 79.5935 198.671 86.8968 206.156Z" fill="#030303"/>
<path d="M132.842 277.302C132.104 281.27 130.82 284.758 130.658 285.165C130.569 285.368 129.773 286.081 129.684 286.284C130.112 291.124 133.24 293.987 136.176 296.037C135.542 293.595 134.125 290.804 134.302 290.266C134.597 289.409 135.733 285.47 138.153 280.514C135.689 280.238 134.819 278.77 132.842 277.302Z" fill="#F7A491"/>
<path d="M123.901 219.775L106.933 231.184C106.933 231.184 115.196 236.475 118.028 239.134C120.861 241.794 136.029 253.858 136.265 254.468C136.442 254.919 134.863 260.645 131.219 278.959C132.827 280.586 136.383 282.171 138.478 282.694C142.889 272.927 147.862 252.593 147.301 250.355C146.445 246.896 123.901 219.775 123.901 219.775Z" fill="#355389"/>
<path d="M80.9363 242.753C81.4379 243.233 84.7429 249.584 86.0118 252.985C87.8561 251.837 88.9774 250.485 91.0282 249.715C89.4053 247.404 86.2331 241.823 85.9675 240.5C85.3478 237.346 84.6249 236.881 84.6249 236.881C84.6249 236.881 73.9133 240.457 73.1903 241.459C72.4821 242.448 78.9297 240.82 80.9363 242.753Z" fill="#F7A491"/>
<path d="M86.0855 241.183C86.9117 241.183 86.0117 237.477 85.8199 236.634C85.5986 235.675 85.0379 235.384 84.9051 235.355C84.5215 235.268 72.6148 239.235 70.6082 240.66C70.4754 240.762 70.2246 241.067 70.1951 241.125C69.0885 243.145 78.9149 243.538 80.3165 242.651C81.5707 241.866 82.3526 241.169 86.0855 241.183Z" fill="#3C8F7C"/>
<path d="M126.984 223.35C126.984 223.35 112.614 217.769 112.422 218.365C110.932 223.089 106.299 221.562 103.555 229.876C102.404 233.364 101.504 242.55 100.722 249.367C100.191 254.047 99.4382 257.811 99.4382 257.811C99.4382 257.811 96.1037 252.957 89.8479 246.009C89.361 245.471 84.3003 250.21 84.3003 250.21C94.2742 269.7 101.548 272.447 103.142 271.924C110.356 269.526 119.902 236.853 119.888 236.867C121.068 234.629 126.984 223.35 126.984 223.35Z" fill="#466EB6"/>
<path d="M104.794 190.342C104.794 190.342 87.6345 190.328 83.9607 190.11C80.641 189.921 67.4507 190.255 66.9343 190.197C66.4179 190.139 63.0096 184.456 62.449 185.066C61.8883 185.677 64.3523 187.886 63.585 188.453C62.8178 189.02 54.6439 187.741 54.7472 188.337C54.9538 189.456 59.7194 189.31 59.7194 189.848C59.7194 190.386 54.7177 189.543 54.3784 190.444C54.039 191.345 59.1883 190.807 59.3801 191.214C59.5866 191.607 54.6144 192.348 55.1161 193.177C55.3964 193.627 59.5276 192.421 59.4981 193.031C59.4833 193.642 56.4587 195.052 56.8276 195.531C57.1964 196.011 59.1883 194.02 60.944 194.005C62.6998 193.976 63.9391 193.075 66.7425 193.831C68.1146 194.209 78.6492 195.473 87.5312 196.214C96.6494 196.985 104.115 197.232 104.115 197.232L104.794 190.342Z" fill="#F7A491"/>
<path d="M122.91 188.986C122.91 188.986 132.008 174.653 133.771 171.47C135.371 168.598 142.662 157.763 142.887 157.301C143.111 156.839 140.032 150.976 140.855 150.832C141.678 150.688 142.27 153.918 143.165 153.579C144.06 153.239 147.3 145.736 147.757 146.139C148.61 146.905 145.955 150.807 146.417 151.092C146.88 151.378 148.81 146.754 149.766 146.95C150.721 147.145 147.524 151.158 147.773 151.534C148 151.915 151.278 148.158 151.724 149.016C151.963 149.49 148.732 152.298 149.273 152.598C149.805 152.909 152.624 151.133 152.841 151.695C153.057 152.258 150.287 152.864 149.342 154.322C148.385 155.772 146.952 156.328 146.114 159.07C145.71 160.416 141.204 169.883 137.126 177.692C132.947 185.713 129.196 192.077 129.196 192.077L122.91 188.986Z" fill="#F7A491"/>
<path d="M130.245 205.356C130.466 202.638 129.935 197.479 129.802 196.578C130.629 193.758 132.414 187.741 133.048 186.563C133.048 186.563 130.068 180.91 126.999 180.953C126.999 180.953 123.871 187.886 121.466 189.136C121.437 189.121 120.611 189.499 120.256 189.499C117.925 189.485 109.781 189.238 108.261 189.209L109.117 200.589C112.333 208.975 111.743 216.403 111.183 218.99C110.873 220.429 125.022 224.745 127.191 223.365C127.25 223.306 129.773 210.85 130.245 205.356Z" fill="#FAE0B2"/>
<path d="M112.392 189.63C110.887 188.918 100.013 189.281 100.013 189.281C100.013 189.281 98.4937 196.737 99.7183 198.54C99.7183 198.54 109.441 199.964 109.161 200.749L112.392 189.63Z" fill="#FAE0B2"/>
<path d="M114.281 184.412C114.281 184.412 115.417 188.336 115.623 190.022C115.83 191.723 118.441 196.984 122.012 196.243C125.583 195.487 121.864 190.56 121.156 189.005C120.463 187.45 118.574 181.185 118.574 181.185L114.281 184.412Z" fill="#F7A491"/>
<path d="M119.356 183.758C118.914 182.334 118.56 181.185 118.56 181.185L114.266 184.412C114.266 184.412 114.473 185.139 114.723 186.083C117.01 186.389 118.56 185.313 119.356 183.758Z" fill="#F47257"/>
<path d="M111.168 172.669C111.168 172.669 109.294 173.73 108.645 175.968C107.996 178.207 108.851 183.962 113.75 185.27C118.633 186.593 120.684 182 119.622 178.454C118.574 174.907 116.317 170.431 111.168 172.669Z" fill="#F7A491"/>
<path d="M120.212 177.072C120.138 178.032 119.607 178.773 119.032 178.729C118.471 178.686 118.073 177.872 118.146 176.912C118.22 175.953 118.751 175.212 119.327 175.255C119.902 175.299 120.286 176.113 120.212 177.072Z" fill="#F7A491"/>
<path d="M130.613 285.28C130.304 284.525 127.205 286.937 126.468 287.431C125.641 287.984 125.582 288.609 125.597 288.754C125.656 289.132 133.55 298.71 135.866 300.033C136.087 300.164 136.545 300.164 136.677 300.105C137.961 299.611 135.866 291.777 134.184 290.222C133.092 289.234 132 288.71 130.613 285.28Z" fill="#3C8F7C"/>
<path d="M111.743 172.378C111.743 172.378 110.961 178.816 108.866 180.008C106.771 181.2 107.701 184.034 107.701 184.034C107.701 184.034 105.694 177.45 107.332 175.299C108.955 173.133 111.743 172.378 111.743 172.378Z" fill="#030303"/>
<path d="M110.12 180.909C110.71 181.738 110.71 182.726 110.15 183.119C109.574 183.511 108.645 183.148 108.069 182.319C107.479 181.491 107.479 180.502 108.04 180.11C108.601 179.717 109.545 180.081 110.12 180.909Z" fill="#F7A491"/>
<defs>
<filter id="filter0_f" x="0" y="0" width="315" height="347.616" filterUnits="userSpaceOnUse" color-interpolation-filters="sRGB">
<feFlood flood-opacity="0" result="BackgroundImageFix"/>
<feBlend mode="normal" in="SourceGraphic" in2="BackgroundImageFix" result="shape"/>
<feGaussianBlur stdDeviation="30.5" result="effect1_foregroundBlur"/>
</filter>
<linearGradient id="paint0_linear" x1="65.1239" y1="73.5342" x2="260.723" y2="83.7675" gradientUnits="userSpaceOnUse">
<stop stop-color="#D9A410"/>
<stop offset="0.546875" stop-color="#EAD15A"/>
<stop offset="1" stop-color="#DDA91D"/>
</linearGradient>
</defs>
</svg>
