<svg width="23" height="23" viewBox="0 0 23 23" fill="none" xmlns="http://www.w3.org/2000/svg">
<path d="M22.629 9.27419H20.8855C20.6487 8.27142 20.2512 7.31354 19.7084 6.43777L20.9419 5.20431C21.0867 5.05944 21.0867 4.82462 20.9419 4.67976L18.3202 2.05665C18.1754 1.91183 17.9406 1.91183 17.7957 2.05665L16.5619 3.29011C15.6862 2.74771 14.7284 2.35068 13.7258 2.11452V0.370968C13.7258 0.166101 13.5597 0 13.3548 0H9.64516C9.44029 0 9.27419 0.166101 9.27419 0.370968V2.11452C8.27147 2.35115 7.31372 2.74864 6.43815 3.2916L5.20431 2.05665C5.05944 1.91183 4.82462 1.91183 4.67976 2.05665L2.05665 4.67976C1.91183 4.82462 1.91183 5.05944 2.05665 5.20431L3.29011 6.43777C2.7478 7.31363 2.35082 8.27151 2.11452 9.27419H0.370968C0.166101 9.27419 0 9.44029 0 9.64516V13.3548C0 13.5597 0.166101 13.7258 0.370968 13.7258H2.11452C2.35129 14.7286 2.74878 15.6865 3.2916 16.5622L2.05665 17.7957C1.91183 17.9406 1.91183 18.1754 2.05665 18.3202L4.67976 20.9434C4.82694 21.0825 5.05713 21.0825 5.20431 20.9434L6.43777 19.7099C7.31363 20.2522 8.27151 20.6492 9.27419 20.8855V22.629C9.27419 22.8339 9.44029 23 9.64516 23H13.3548C13.5597 23 13.7258 22.8339 13.7258 22.629V20.8855C14.7286 20.6487 15.6865 20.2512 16.5622 19.7084L17.7957 20.9419C17.9406 21.0867 18.1754 21.0867 18.3202 20.9419L20.9434 18.3188C21.0882 18.1739 21.0882 17.9391 20.9434 17.7942L19.7099 16.5607C20.2521 15.6854 20.649 14.728 20.8855 13.7258H22.629C22.8339 13.7258 23 13.5597 23 13.3548V9.64516C23 9.44029 22.8339 9.27419 22.629 9.27419ZM22.2581 12.9839H20.5887C20.4124 12.9838 20.2604 13.1079 20.2252 13.2806C19.9985 14.3972 19.5577 15.4592 18.9268 16.4079C18.8292 16.555 18.8487 16.7505 18.9735 16.8753L20.1562 18.0576L18.0576 20.1562L16.8753 18.9735C16.7505 18.8487 16.555 18.8292 16.4079 18.9268C15.4592 19.5577 14.3972 19.9985 13.2806 20.2252C13.1079 20.2604 12.9838 20.4124 12.9839 20.5887V22.2581H10.0161V20.5887C10.0162 20.4124 9.89209 20.2604 9.71936 20.2252C8.60283 19.9985 7.5408 19.5577 6.5921 18.9268C6.44501 18.8292 6.24951 18.8487 6.12468 18.9735L4.9424 20.1562L2.84347 18.058L4.02611 16.8757C4.15094 16.7509 4.17047 16.5554 4.07285 16.4083C3.44198 15.4596 3.00108 14.3975 2.77447 13.281C2.73936 13.1082 2.58759 12.9841 2.41129 12.9839H0.741935V10.0161H2.41129C2.58759 10.0162 2.7396 9.89209 2.77484 9.71936C3.00145 8.60283 3.44235 7.5408 4.07323 6.5921C4.17084 6.44501 4.15127 6.24951 4.02648 6.12468L2.84347 4.94203L4.94203 2.84347L6.12468 4.02611C6.24951 4.15094 6.44501 4.17047 6.5921 4.07285C7.54071 3.44212 8.6026 3.00118 9.71898 2.77447C9.89176 2.73936 10.0159 2.58759 10.0161 2.41129V0.741935H12.9839V2.41129C12.9838 2.58759 13.1079 2.7396 13.2806 2.77484C14.397 3.00155 15.4589 3.44249 16.4075 4.07323C16.5546 4.17084 16.7501 4.15131 16.875 4.02648L18.0576 2.84384L20.1562 4.9424L18.9735 6.12468C18.8487 6.24951 18.8292 6.44501 18.9268 6.5921C19.5577 7.5408 19.9985 8.60283 20.2252 9.71936C20.2604 9.89209 20.4124 10.0162 20.5887 10.0161H22.2581V12.9839Z" fill="url(#paint0_linear)"/>
<path d="M11.5 7.41931C9.24628 7.41931 7.41931 9.24628 7.41931 11.5C7.41931 13.7536 9.24628 15.5806 11.5 15.5806C13.7536 15.5806 15.5806 13.7536 15.5806 11.5C15.578 9.24739 13.7525 7.42195 11.5 7.41931ZM11.5 14.8387C9.65606 14.8387 8.16125 13.3439 8.16125 11.5C8.16125 9.65601 9.65606 8.16125 11.5 8.16125C13.3439 8.16125 14.8387 9.65601 14.8387 11.5C14.8366 13.343 13.343 14.8366 11.5 14.8387Z" fill="url(#paint1_linear)"/>
<defs>
<linearGradient id="paint0_linear" x1="-2.75" y1="-3.53846" x2="33.2224" y2="-1.02143" gradientUnits="userSpaceOnUse">
<stop stop-color="#133983"/>
<stop offset="1" stop-color="#71BC6F"/>
</linearGradient>
<linearGradient id="paint1_linear" x1="6.44351" y1="6.16373" x2="19.2079" y2="7.05687" gradientUnits="userSpaceOnUse">
<stop stop-color="#133983"/>
<stop offset="1" stop-color="#71BC6F"/>
</linearGradient>
</defs>
</svg>
