<svg width="76" height="84" viewBox="0 0 76 84" fill="none" xmlns="http://www.w3.org/2000/svg">
<path fill-rule="evenodd" clip-rule="evenodd" d="M38.0008 0.333252C34.3127 0.333252 28.1547 1.7067 22.3528 3.22907C17.1778 4.60683 12.0364 6.10573 6.93283 7.72449C5.47577 8.17952 4.17846 9.03439 3.19104 10.1902C2.20363 11.3459 1.5665 12.7553 1.35338 14.2553C-1.83408 37.4053 5.55326 54.5596 14.526 65.9112C18.3433 70.7824 22.8754 75.0587 27.9712 78.5977C29.7433 79.8296 31.6172 80.9109 33.5729 81.83C35.0748 82.5139 36.6769 83.071 38.0008 83.071C39.3248 83.071 40.9268 82.5139 42.4288 81.83C44.384 80.9101 46.2579 79.8289 48.0305 78.5977C53.1283 75.0592 57.6623 70.7829 61.4812 65.9112C70.4428 54.5596 77.8357 37.4053 74.6483 14.2553C74.2199 11.1609 72.006 8.65116 69.0688 7.72449C63.9653 6.10569 58.8239 4.6068 53.6488 3.22907C47.8469 1.7067 41.6834 0.333252 38.0008 0.333252ZM58.454 31.6043C59.929 30.2196 59.9927 27.9114 58.5962 26.4488C57.1997 24.9862 54.8719 24.923 53.3969 26.3077L35.5988 43.0159L27.1823 35.1148C25.7073 33.7301 23.3794 33.7932 21.983 35.2558C20.5865 36.7184 20.6502 39.0266 22.1252 40.4113L33.0703 50.6861C34.4886 52.0176 36.7091 52.0176 38.1274 50.6861L58.454 31.6043Z" fill="url(#paint0_linear)"/>
<defs>
<linearGradient id="paint0_linear" x1="-8.34533" y1="-12.3956" x2="108.754" y2="-4.98776" gradientUnits="userSpaceOnUse">
<stop stop-color="#133983"/>
<stop offset="1" stop-color="#71BC6F"/>
</linearGradient>
</defs>
</svg>
