<svg width="202" height="218" viewBox="0 0 202 218" fill="none" xmlns="http://www.w3.org/2000/svg">
<path d="M101 15.2142C81.0241 15.2142 61.4968 21.1378 44.8874 32.2358C28.278 43.3338 15.3326 59.1079 7.68817 77.5632C0.0437164 96.0185 -1.95642 116.326 1.94069 135.918C5.83779 155.51 15.4571 173.507 29.5822 187.632C43.7073 201.757 61.7038 211.376 81.2959 215.274C100.888 219.171 121.196 217.171 139.651 209.526C158.106 201.882 173.88 188.936 184.978 172.327C196.076 155.717 202 136.19 202 116.214H189.976C189.976 133.812 184.757 151.014 174.981 165.646C165.204 180.278 151.308 191.683 135.05 198.417C118.791 205.151 100.901 206.913 83.6417 203.48C66.3821 200.047 50.5282 191.573 38.0847 179.13C25.6412 166.686 17.1671 150.832 13.734 133.573C10.3008 116.313 12.0629 98.4229 18.7972 82.1647C25.5316 65.9065 36.9358 52.0104 51.5678 42.2337C66.1997 32.4569 83.4023 27.2386 101 27.2386V15.2142Z" fill="url(#paint0_radial)"/>
<path d="M134.667 24.2321L101 0.785645V47.6785L134.667 24.2321Z" fill="#669A84"/>
<defs>
<radialGradient id="paint0_radial" cx="0" cy="0" r="1" gradientUnits="userSpaceOnUse" gradientTransform="translate(101 32.4134) rotate(75.2197) scale(191.124 296.755)">
<stop stop-color="#669A84"/>
<stop offset="1" stop-color="#4E7789" stop-opacity="0"/>
</radialGradient>
</defs>
</svg>
