<svg width="22" height="22" viewBox="0 0 22 22" fill="none" xmlns="http://www.w3.org/2000/svg">
<path d="M15.6235 13.5131C15.4264 13.3366 15.1237 13.3538 14.9482 13.5504C13.9505 14.6652 12.5119 15.3042 11.0001 15.3042C9.48884 15.3042 8.04975 14.6652 7.0521 13.5504C6.87562 13.3538 6.57384 13.3366 6.37679 13.5131C6.17975 13.6891 6.16349 13.9914 6.33949 14.1884C7.5184 15.5055 9.21718 16.2607 11.0001 16.2607C12.7836 16.2607 14.4824 15.5051 15.6608 14.1884C15.8368 13.9914 15.8201 13.6891 15.6235 13.5131Z" fill="#4F4F4F"/>
<path d="M11 0C4.9347 0 0 4.9347 0 11C0 17.0653 4.9347 22 11 22C17.0653 22 22 17.0653 22 11C22 4.9347 17.0653 0 11 0ZM11 21.0435C5.46174 21.0435 0.956522 16.5383 0.956522 11C0.956522 5.46174 5.46174 0.956522 11 0.956522C16.5383 0.956522 21.0435 5.46174 21.0435 11C21.0435 16.5383 16.5383 21.0435 11 21.0435Z" fill="#4F4F4F"/>
<path d="M14.8261 7.6521C13.5076 7.6521 12.4348 8.72484 12.4348 10.0434C12.4348 10.3074 12.6491 10.5217 12.9131 10.5217C13.1771 10.5217 13.3913 10.3074 13.3913 10.0434C13.3913 9.25236 14.0351 8.60862 14.8261 8.60862C15.6172 8.60862 16.2609 9.25236 16.2609 10.0434C16.2609 10.3074 16.4752 10.5217 16.7392 10.5217C17.0032 10.5217 17.2174 10.3074 17.2174 10.0434C17.2174 8.72484 16.1447 7.6521 14.8261 7.6521Z" fill="#4F4F4F"/>
<path d="M8.6088 10.0434C8.6088 10.3074 8.82306 10.5217 9.08706 10.5217C9.35106 10.5217 9.56532 10.3074 9.56532 10.0434C9.56532 8.72484 8.49258 7.6521 7.17402 7.6521C5.85545 7.6521 4.78271 8.72484 4.78271 10.0434C4.78271 10.3074 4.99698 10.5217 5.26098 10.5217C5.52498 10.5217 5.73924 10.3074 5.73924 10.0434C5.73924 9.25236 6.38297 8.60862 7.17402 8.60862C7.96506 8.60862 8.6088 9.25236 8.6088 10.0434Z" fill="#4F4F4F"/>
</svg>
