<svg width="33" height="28" viewBox="0 0 33 28" fill="none" xmlns="http://www.w3.org/2000/svg">
<path d="M21.2735 5.7428C19.467 2.28565 15.688 0 11.4492 0C5.3839 0 0.449456 4.59842 0.449456 10.2506C0.449456 11.7867 0.801323 13.259 1.49581 14.6317L0.467643 19.4503C0.336771 20.0637 0.914133 20.6059 1.56874 20.4845L6.77356 19.5201C7.47435 19.8316 8.19934 20.0686 8.94426 20.2318C7.27448 12.8197 13.2691 5.86218 21.2735 5.7428Z" fill="url(#paint0_linear)"/>
<path d="M31.4024 22.1293C31.582 21.7743 31.7382 21.4125 31.8718 21.0448H31.8375C34.1779 14.6064 29.256 7.83964 21.9898 7.51016L21.9894 7.50911C15.7373 7.23907 10.543 11.9307 10.543 17.7482C10.543 23.3957 15.4404 27.9905 21.4641 27.9987C23.098 27.9966 24.6641 27.6669 26.1245 27.0177C31.8248 28.0739 31.3803 27.9988 31.5112 27.9988C32.1036 27.9988 32.5462 27.4901 32.4305 26.9479L31.4024 22.1293Z" fill="url(#paint1_linear)"/>
<defs>
<linearGradient id="paint0_linear" x1="-3.37711" y1="-4.30768" x2="46.5968" y2="-0.311417" gradientUnits="userSpaceOnUse">
<stop stop-color="#133983"/>
<stop offset="1" stop-color="#71BC6F"/>
</linearGradient>
<linearGradient id="paint1_linear" x1="-3.37711" y1="-4.30768" x2="46.5968" y2="-0.311417" gradientUnits="userSpaceOnUse">
<stop stop-color="#133983"/>
<stop offset="1" stop-color="#71BC6F"/>
</linearGradient>
</defs>
</svg>
