<svg width="23" height="31" viewBox="0 0 23 31" fill="none" xmlns="http://www.w3.org/2000/svg">
<path d="M8.8059 0.270095C8.91665 0.0321969 9.19179 -0.0672496 9.42044 0.0479748C9.64909 0.163199 9.74467 0.449461 9.63392 0.687359L9.01997 2.00621C10.6839 1.75255 12.8884 1.62462 15.0906 1.90573C17.5579 2.22069 20.097 3.05945 21.8381 4.89152L21.3979 2.85347C21.3422 2.59557 21.4979 2.33952 21.7458 2.28156C21.9937 2.2236 22.2398 2.38568 22.2955 2.64358L22.9887 5.85281C23.0444 6.11071 22.8886 6.36677 22.6408 6.42473L19.525 7.15329C19.2771 7.21125 19.031 7.04916 18.9753 6.79126C18.9196 6.53336 19.0753 6.27731 19.3232 6.21935L21.3495 5.74555C19.8215 4.01411 17.4483 3.17112 14.9785 2.85584C12.6161 2.55427 10.2388 2.74572 8.60549 3.04507L10.2861 3.892C10.5148 4.00722 10.6104 4.29348 10.4996 4.53138C10.3889 4.76928 10.1137 4.86872 9.88509 4.7535L7.73445 3.66972C7.5058 3.5545 7.41021 3.26824 7.52096 3.03034L8.8059 0.270095Z" fill="url(#paint0_linear)"/>
<path d="M13.4318 24.0903L17.3276 23.1704C18.2107 22.9618 19.092 23.5396 19.2925 24.4583C19.3485 24.7151 19.3464 24.9867 19.2863 25.2436L19.0962 26.0488C19.065 26.1805 18.9839 26.293 18.8711 26.3611L12.7387 30.0658C12.157 30.4174 11.5293 30.6745 10.8731 30.8294C9.87231 31.0658 8.81653 31.0565 7.82051 30.8019L2.9288 29.5541C1.50509 29.1913 0.41928 28.0413 0.0947893 26.5538C-0.0365384 25.9517 -0.0312809 25.3159 0.1098 24.7155L1.47119 18.9411C1.6557 18.1571 2.19686 17.5121 2.91828 17.2159L7.71252 15.2476C8.70467 14.842 9.85373 15.1294 10.5582 15.959L12.1538 9.18828C12.3317 8.43333 12.8951 7.85741 13.6239 7.68532C14.6776 7.4365 15.7297 8.12617 15.988 9.31031C16.0551 9.61798 16.0524 9.94214 15.9803 10.2472L12.8603 23.4854C12.8027 23.7291 12.9274 23.8939 12.984 23.9534C13.0402 24.013 13.1964 24.1459 13.4318 24.0903Z" fill="url(#paint1_linear)"/>
<defs>
<linearGradient id="paint0_linear" x1="-2.75" y1="-4.76922" x2="33.3013" y2="-2.89765" gradientUnits="userSpaceOnUse">
<stop stop-color="#133983"/>
<stop offset="1" stop-color="#71BC6F"/>
</linearGradient>
<linearGradient id="paint1_linear" x1="-2.75" y1="-4.76922" x2="33.3013" y2="-2.89765" gradientUnits="userSpaceOnUse">
<stop stop-color="#133983"/>
<stop offset="1" stop-color="#71BC6F"/>
</linearGradient>
</defs>
</svg>
