<svg width="27" height="27" viewBox="0 0 27 27" fill="none" xmlns="http://www.w3.org/2000/svg">
<path d="M2.05604 0.32251C2.05604 0.32251 0.0128784 0.32251 0.0128784 2.36567V12.9043C0.0128784 16.439 0.736159 20.7542 7.16395 20.7542H8.18554V14.6247L3.07762 16.6678C3.07762 16.6678 3.07762 11.5599 8.18554 11.5599V8.49517C8.18554 7.04861 8.36329 5.79819 9.20712 4.86855C9.98556 4.01042 11.2605 2.29825 14.6338 3.90622L16.3582 5.02792V2.36567C16.3582 2.36567 16.3582 0.32251 14.315 0.32251C12.8685 0.32251 10.2736 2.36567 8.18554 2.36567C6.09742 2.36567 3.66401 0.32251 2.05604 0.32251ZM4.09921 4.40884C4.64109 4.40884 5.16077 4.6241 5.54394 5.00727C5.92711 5.39043 6.14237 5.91012 6.14237 6.452C6.14237 6.99388 5.92711 7.51357 5.54394 7.89674C5.16077 8.2799 4.64109 8.49517 4.09921 8.49517C3.55733 8.49517 3.03764 8.2799 2.65447 7.89674C2.2713 7.51357 2.05604 6.99388 2.05604 6.452C2.05604 5.91012 2.2713 5.39043 2.65447 5.00727C3.03764 4.6241 3.55733 4.40884 4.09921 4.40884ZM12.2719 6.452C12.2719 6.452 10.2287 6.452 10.2287 8.49517V18.711C10.2287 22.7973 12.2719 26.8836 18.4014 26.8836C24.5308 26.8836 26.574 22.7973 26.574 18.711V8.49517C26.574 6.452 24.5308 6.452 24.5308 6.452C23.0843 6.452 20.4895 8.49517 18.4014 8.49517C16.3132 8.49517 13.8798 6.452 12.2719 6.452ZM14.315 10.5383C14.8569 10.5383 15.3766 10.7536 15.7598 11.1368C16.1429 11.5199 16.3582 12.0396 16.3582 12.5815C16.3582 13.1234 16.1429 13.6431 15.7598 14.0262C15.3766 14.4094 14.8569 14.6247 14.315 14.6247C13.7731 14.6247 13.2535 14.4094 12.8703 14.0262C12.4871 13.6431 12.2719 13.1234 12.2719 12.5815C12.2719 12.0396 12.4871 11.5199 12.8703 11.1368C13.2535 10.7536 13.7731 10.5383 14.315 10.5383ZM22.4877 10.5383C23.0296 10.5383 23.5493 10.7536 23.9324 11.1368C24.3156 11.5199 24.5308 12.0396 24.5308 12.5815C24.5308 13.1234 24.3156 13.6431 23.9324 14.0262C23.5493 14.4094 23.0296 14.6247 22.4877 14.6247C21.9458 14.6247 21.4261 14.4094 21.0429 14.0262C20.6598 13.6431 20.4445 13.1234 20.4445 12.5815C20.4445 12.0396 20.6598 11.5199 21.0429 11.1368C21.4261 10.7536 21.9458 10.5383 22.4877 10.5383ZM13.2934 18.711H23.5093C23.5093 18.711 23.5093 23.8189 18.4014 23.8189C13.2934 23.8189 13.2934 18.711 13.2934 18.711Z" fill="#BC41E8"/>
</svg>
