<svg width="24" height="24" viewBox="0 0 24 24" fill="none" xmlns="http://www.w3.org/2000/svg">
<path fill-rule="evenodd" clip-rule="evenodd" d="M12 24C18.6274 24 24 18.6274 24 12C24 5.37258 18.6274 0 12 0C5.37258 0 0 5.37258 0 12C0 18.6274 5.37258 24 12 24ZM11.485 12.88L11.74 15.634H12.607L12.777 13.798C13.8197 13.6507 14.6697 13.2937 15.327 12.727C15.9843 12.149 16.313 11.3557 16.313 10.347V10.313C16.313 9.33833 15.9617 8.53367 15.259 7.899C14.5563 7.26433 13.6383 6.947 12.505 6.947C10.9297 6.947 9.598 7.60433 8.51 8.919L9.377 9.752C10.2837 8.68667 11.315 8.154 12.471 8.154C13.219 8.154 13.8197 8.36367 14.273 8.783C14.7263 9.20233 14.953 9.72933 14.953 10.364V10.398C14.953 11.1233 14.664 11.7013 14.086 12.132C13.508 12.5513 12.6693 12.7723 11.57 12.795L11.485 12.88ZM11.383 17.215V19H12.947V17.215H11.383Z" fill="url(#paint0_linear)"/>
<defs>
<linearGradient id="paint0_linear" x1="-2.86957" y1="-3.6923" x2="34.6668" y2="-1.06584" gradientUnits="userSpaceOnUse">
<stop stop-color="#133983"/>
<stop offset="1" stop-color="#71BC6F"/>
</linearGradient>
</defs>
</svg>
