<svg width="15" height="15" viewBox="0 0 15 15" fill="none" xmlns="http://www.w3.org/2000/svg">
<path fill-rule="evenodd" clip-rule="evenodd" d="M11.3095 2.7H13.6905C14.0197 2.7 14.2857 2.96813 14.2857 3.3V3.9C14.2857 3.9825 14.2188 4.05 14.1369 4.05H13.0134L12.5539 13.8563C12.5242 14.4975 12.0015 15 11.3653 15H2.92039C2.28609 15 1.76153 14.4956 1.73177 13.8563L1.27232 4.05H0.14881C0.0669643 4.05 0 3.9825 0 3.9V3.3C0 2.96813 0.265997 2.7 0.595238 2.7H2.97619V1.2C2.97619 0.538125 3.51004 0 4.16667 0H10.119C10.7757 0 11.3095 0.538125 11.3095 1.2V2.7ZM4.31548 2.7H9.97024V1.35H4.31548V2.7ZM4 5.35714V12.1429H6V5.35714H4ZM8.64286 5.35714V12.1429H10.6429V5.35714H8.64286Z" fill="#C24242"/>
</svg>
