<svg width="266" height="275" viewBox="0 0 266 275" fill="none" xmlns="http://www.w3.org/2000/svg">
<path opacity="0.1" d="M135.258 240.468C207.375 240.468 265.837 232.432 265.837 222.52C265.837 212.608 207.375 204.572 135.258 204.572C63.141 204.572 4.67871 212.608 4.67871 222.52C4.67871 232.432 63.141 240.468 135.258 240.468Z" fill="#9B7333"/>
<path d="M58.4694 185.349C57.4545 184.518 56.4397 183.798 55.4248 183.078L58.4694 185.349Z" fill="url(#paint0_linear)"/>
<path d="M61.3993 192.218L55.4228 183.022C50.3485 179.422 45.387 176.763 41.3839 175.046C40.9328 179.311 45.3306 187.675 45.3306 187.675C40.2563 179.422 39.4105 176.375 37.7755 173.716C31.6863 171.722 25.3716 173.217 19.8462 173.605C27.6268 181.97 29.0928 184.463 29.0928 184.463C24.8642 179.145 20.5792 176.541 17.4782 173.827C3.83393 175.433 0 181.139 0 181.139C2.76268 185.127 9.81035 193.104 12.4039 196.262C18.9441 196.76 27.0067 195.985 27.0067 195.985C23.4546 197.314 17.9856 197.979 14.0389 198.256C17.9293 202.743 17.3654 201.967 21.0866 205.014C27.796 205.79 39.0159 203.795 39.0159 203.795C34.8437 205.734 27.9651 206.842 24.1312 207.341C30.8406 212.16 37.4936 214.93 44.4285 216.647C49.9538 215.262 55.4228 213.157 55.4228 213.157C53.2803 214.708 50.2921 216.148 47.4167 217.312C55.3101 218.863 63.5981 219.195 72.7883 219.638L80.3998 217.478L75.7765 206.122C71.4915 197.591 65.1204 190.722 58.5802 185.571L61.3993 192.218Z" fill="url(#paint1_linear)"/>
<path d="M62.9782 205.624C65.6282 207.064 68.2217 208.56 70.8152 210.221C73.3524 211.883 75.8332 213.711 78.1448 215.927L78.0884 216.038C75.7768 213.933 73.296 212.16 70.7025 210.609C68.1089 209.058 65.5154 207.618 62.8091 206.344C57.5092 203.685 52.0966 201.303 46.684 198.976C41.2714 196.594 35.8024 194.434 30.4462 191.83C27.7963 190.501 25.09 189.171 22.4964 187.731C19.8465 186.291 17.253 184.74 14.7158 183.023L14.7722 182.856C20.1284 185.515 25.4847 187.953 30.8409 190.39C36.2535 192.772 41.5533 195.376 46.9659 197.868C52.3222 200.25 57.6784 202.799 62.9782 205.624Z" fill="#333333"/>
<path d="M65.7403 163.191C68.8976 152.666 70.871 148.4 71.1529 144.689C66.3041 138.429 60.384 133.665 54.4076 130.009C56.4373 143.415 52.6598 151.392 52.6598 151.392C54.8587 142.75 53.0545 133.278 51.8141 128.514C36.5347 120.038 21.3682 118.598 21.3682 118.598C21.3682 124.304 21.5937 129.511 21.9884 134.385C28.4158 139.648 37.3241 144.744 37.3241 144.744C32.6444 143.415 26.5552 140.036 22.2703 137.377C23.0596 144.412 24.3 150.561 26.0478 156.1C32.4189 161.695 45.4994 168.01 45.4994 168.01C39.7485 166.791 31.8551 162.803 27.5137 160.476C31.0094 169.838 35.9145 177.261 41.8346 183.853C48.544 186.623 55.7608 188.561 55.7608 188.561C52.4343 188.451 48.3184 187.62 44.4845 186.623C51.5322 193.824 59.8766 200.139 69.1231 207.23L78.5952 210.719L82.0345 196.815C85.361 175.488 81.2451 159.867 73.9156 148.566C70.3071 152.167 65.7403 163.191 65.7403 163.191Z" fill="#333333"/>
<path d="M77.1291 207.783C76.2834 204.127 74.9303 200.693 73.3516 197.369C71.8293 194.045 70.0815 190.832 68.2773 187.675C64.6689 181.36 60.7786 175.211 56.8883 169.118C52.9979 163.024 48.8821 156.986 45.2737 150.671C43.4695 147.514 41.6653 144.301 39.9739 141.032C38.2824 137.764 36.7037 134.441 35.3506 131.006L35.5197 130.895C39.1281 137.266 42.9057 143.414 46.7396 149.563C50.5735 155.712 54.2947 161.972 58.0723 168.231C61.8498 174.436 65.571 180.695 69.0666 187.176C70.7581 190.445 72.3931 193.713 73.859 197.147C75.3249 200.526 76.5653 204.072 77.2983 207.783H77.1291Z" fill="url(#paint2_linear)"/>
<path d="M216.39 210.997C223.776 215.706 226.539 218.143 229.414 219.14C235.729 216.703 241.198 213.157 245.821 209.335C234.714 208.061 229.471 203.408 229.471 203.408C235.672 206.953 243.622 207.563 247.738 207.673C258.845 197.647 264.314 186.236 264.314 186.236C259.86 185.017 255.688 184.075 251.741 183.355C245.765 187.177 239.168 193.049 239.168 193.049C241.593 189.725 245.99 185.737 249.317 182.967C243.566 182.081 238.322 181.749 233.53 181.859C227.272 185.571 218.533 194.379 218.533 194.379C221.126 190.224 226.595 184.906 229.64 182.081C221.239 182.801 214.022 184.962 207.087 188.174C202.971 192.772 199.363 197.924 199.363 197.924C200.378 195.376 202.295 192.329 204.155 189.615C196.487 193.548 189.102 198.644 180.813 204.294L175.288 210.886L185.211 216.481C201.054 223.627 214.473 223.793 225.524 220.525C223.776 216.924 216.39 210.997 216.39 210.997Z" fill="url(#paint3_linear)"/>
<path d="M178.049 210.277C181.15 210.388 184.251 210.056 187.295 209.613C190.34 209.114 193.384 208.505 196.373 207.785C202.405 206.344 208.325 204.683 214.302 202.965C220.222 201.248 226.142 199.365 232.175 197.924C235.219 197.204 238.207 196.484 241.252 195.875C244.297 195.265 247.398 194.767 250.499 194.435L250.555 194.545C244.522 195.986 238.546 197.592 232.569 199.254C226.593 200.916 220.616 202.467 214.64 204.018C208.664 205.624 202.631 207.175 196.542 208.449C193.497 209.059 190.452 209.613 187.351 210.056C184.251 210.444 181.15 210.665 177.992 210.444L178.049 210.277Z" fill="#333333"/>
<path d="M236.237 183.19C237.534 182.248 238.774 181.307 240.015 180.31L236.237 183.19Z" fill="#FFE7D6"/>
<path d="M227.272 183.909L240.071 180.309C246.103 175.489 251.009 170.282 254.504 165.962C249.825 163.524 238.548 165.518 238.548 165.518C249.881 162.638 253.659 162.97 257.38 162.028C261.947 155.16 262.68 146.518 264.258 139.317C251.798 145.521 248.359 146.296 248.359 146.296C256.083 143.194 260.65 138.929 264.878 136.215C268.205 118.211 263.074 110.788 263.074 110.788C257.492 112.561 245.652 117.99 241.085 119.928C238.041 128.016 235.898 138.596 235.898 138.596C235.673 133.5 237.026 126.299 238.21 121.147C231.613 124.138 232.685 123.695 227.836 127.13C224.397 135.273 222.48 150.396 222.48 150.396C221.803 144.247 223.156 135.051 224.002 129.955C215.939 136.381 210.245 143.637 205.734 151.67C205.227 159.259 205.622 167.125 205.622 167.125C204.663 163.746 204.156 159.314 203.874 155.16C199.138 164.466 195.642 174.88 191.695 186.347L191.301 196.983L206.073 196.096C217.462 194.379 227.667 189.283 236.068 183.245L227.272 183.909Z" fill="#333333"/>
<path d="M211.373 180.087C208.723 182.801 206.017 185.46 203.198 188.008C200.322 190.501 197.278 192.883 193.895 194.822L193.782 194.656C197.052 192.662 199.984 190.224 202.747 187.621C205.51 185.017 208.103 182.303 210.64 179.478C215.715 173.883 220.451 168.066 225.13 162.25C229.866 156.433 234.433 150.451 239.451 144.801C241.932 141.975 244.525 139.206 247.175 136.491C249.825 133.777 252.588 131.173 255.52 128.681L255.633 128.791C250.615 134.386 245.766 140.147 240.973 145.908C236.181 151.669 231.219 157.375 226.371 163.136C221.465 168.897 216.56 174.603 211.373 180.087Z" fill="url(#paint4_linear)"/>
<path d="M221.689 157.929C221.069 158.76 220.448 159.591 219.828 160.367L221.689 157.929ZM219.772 160.422C215.543 165.629 209.961 170.559 203.027 173.551L193.78 176.542L192.032 169.728C192.427 161.751 192.709 154.55 194.006 147.847C194.964 150.451 196.092 153.165 197.332 155.16C197.332 155.16 195.641 150.229 194.569 145.299C195.979 139.427 198.234 133.888 202.181 128.459C202.576 131.838 203.421 137.932 205 141.699C205 141.699 203.421 131.783 204.098 126.022C206.579 123.031 205.902 123.474 209.623 120.482C209.849 123.972 210.3 128.736 211.371 131.949C211.371 131.949 210.751 124.859 211.202 119.208C213.795 117.214 220.279 111.785 223.549 109.736C223.549 109.736 228.173 113.613 229.413 125.634C227.214 128.071 225.072 131.561 220.73 134.774C220.73 134.774 222.76 133.722 229.582 127.684C229.864 132.503 230.992 138.153 229.413 143.25C227.214 144.468 224.733 144.856 218.08 148.568C218.08 148.568 224.903 145.465 228.342 146.241C226.932 149.565 224.733 153.664 221.802 157.763L214.303 162.139L219.772 160.422Z" fill="url(#paint5_linear)"/>
<path d="M209.794 149.233C211.823 144.801 213.966 140.37 215.939 135.883C217.913 131.396 219.942 126.964 222.141 122.588L222.028 122.532C220.619 124.582 219.322 126.687 218.138 128.847C216.954 131.008 215.826 133.224 214.755 135.439C212.613 139.871 210.808 144.413 208.835 148.9C206.918 153.387 204.945 157.874 202.746 162.251C201.675 164.466 200.491 166.627 199.25 168.732C197.954 170.837 196.544 172.886 194.853 174.659L194.965 174.714C196.77 172.942 198.292 170.948 199.645 168.843C200.998 166.793 202.239 164.633 203.423 162.472C205.678 158.096 207.764 153.664 209.794 149.233Z" fill="#628AEC"/>
<path d="M175.629 0H167.961C178.786 0 187.525 8.64158 187.525 19.222V205.127C187.525 215.763 178.73 224.349 167.961 224.349H175.629C186.454 224.349 195.193 215.707 195.193 205.127V19.2774C195.193 8.64158 186.454 0 175.629 0Z" fill="#333333"/>
<path d="M167.96 224.405H87.8983C77.0731 224.405 68.334 215.763 68.334 205.183V19.2781C68.334 8.64234 77.1295 0.0561523 87.8983 0.0561523H167.96C178.785 0.0561523 187.524 8.69773 187.524 19.2781V205.183C187.524 215.819 178.729 224.405 167.96 224.405Z" fill="url(#paint6_linear)"/>
<path d="M177.095 199.033H78.7092C75.5518 199.033 73.0146 196.54 73.0146 193.438V19.4988C73.0146 16.3967 75.5518 13.9039 78.7092 13.9039H177.038C180.196 13.9039 182.733 16.3967 182.733 19.4988V193.438C182.789 196.485 180.196 199.033 177.095 199.033Z" fill="#333333"/>
<path d="M134.302 216.371H121.504C118.515 216.371 116.147 213.989 116.147 211.109C116.147 208.173 118.572 205.846 121.504 205.846H134.302C137.29 205.846 139.658 208.228 139.658 211.109C139.658 214.045 137.29 216.371 134.302 216.371Z" fill="#232323"/>
<path d="M73.0684 142.974V195.654C73.0684 197.538 75.6055 199.033 78.7629 199.033H177.092C180.249 199.033 182.786 197.538 182.786 195.654V142.974H73.0684Z" fill="#333333"/>
<path d="M152.006 155.714C143.436 155.714 136.444 162.583 136.444 171.003C136.444 179.423 143.436 186.292 152.006 186.292C160.576 186.292 167.567 179.423 167.567 171.003C167.567 162.527 160.632 155.714 152.006 155.714ZM159.392 176.875L157.813 178.426L151.836 172.554L145.86 178.426L144.281 176.875L150.258 171.003L144.281 165.131L145.86 163.58L151.836 169.452L157.813 163.58L159.392 165.131L153.415 171.003L159.392 176.875Z" fill="#ED1C24"/>
<path d="M104.138 155.714C95.5684 155.714 88.5771 162.583 88.5771 171.003C88.5771 179.423 95.5684 186.292 104.138 186.292C112.708 186.292 119.7 179.423 119.7 171.003C119.7 162.527 112.708 155.714 104.138 155.714ZM100.304 179.644L94.4408 173.883L96.0195 172.332L100.304 176.542L112.257 164.799L113.836 166.35L100.304 179.644Z" fill="#00A651"/>
<path d="M151.44 117.104L131.988 132.892L110.732 118.323L115.807 104.973L116.822 99.8765L118.908 89.7947L140.22 89.2407L141.122 92.8414L143.603 102.535L151.44 117.104Z" fill="#FFE7D6"/>
<path d="M149.581 63.4273C149.581 81.0982 140.729 95.4455 129.791 95.4455C118.853 95.4455 110.001 81.0982 110.001 63.4273C110.001 45.7564 118.853 40.4939 129.791 40.4939C140.672 40.5493 149.581 45.7564 149.581 63.4273Z" fill="#FFE7D6"/>
<path d="M151.608 48.3044C153.413 54.3424 148.62 81.2643 145.914 86.7484C143.208 92.2325 137.288 95.39 129.169 95.4454C118.794 95.5561 115.299 90.626 113.213 87.7455C111.127 84.865 110.957 79.3809 108.251 58.6632C105.545 38.001 122.628 35.1758 128.887 35.1758C135.145 35.1758 138.133 35.065 139.317 39.1089C148.338 38.6657 149.804 42.2664 151.608 48.3044ZM131.819 51.2957C126.124 53.8439 115.975 48.6922 112.085 52.9022C108.195 57.1122 110.619 70.4623 111.86 76.0572C112.367 78.273 118.907 76.5557 122.967 78.55C117.385 83.5909 122.967 87.9117 129.056 87.9117C134.863 87.9117 140.388 86.139 136.667 79.3255C139.486 76.3342 145.632 79.1593 146.816 76.6665C148.564 73.0659 147.605 56.1705 147.605 56.1705C145.181 55.4503 139.599 48.9691 139.599 44.0944C139.656 44.039 137.513 48.7476 131.819 51.2957Z" fill="#111111"/>
<path d="M163.684 149.891C163.059 150.066 162.49 150.301 162.036 150.477C162.32 153.114 162.661 159.327 162.945 165.129L163.002 165.774C163.115 167.357 163.172 168.939 163.286 170.346C163.456 172.983 163.627 175.152 163.797 176.383C164.309 179.431 164.764 182.596 165.105 185.526C165.957 193.028 166.298 199.241 166.298 199.241C164.877 199.183 95.5951 199.241 95.5951 199.241L95.9361 187.167L96.1634 179.196L96.3908 171.635L97.016 150.77C96.3908 150.535 95.3109 150.359 94.0037 150.125C88.9453 149.246 80.0222 148.308 76.6121 147.956C75.7596 147.839 75.248 147.839 75.248 147.839C75.248 147.839 82.9208 115.544 87.6381 110.445C96.2203 104.994 105.087 102.884 116.851 100.247C116.851 100.247 116.113 104.701 118.329 108.57C123.615 117.83 141.006 116.189 143.337 105.756C143.905 103.236 143.28 100.247 143.28 100.247C143.28 100.247 167.378 105.287 172.039 110.914C175.676 117.127 182.383 144.674 182.383 144.674C182.383 144.674 181.701 144.85 180.621 145.143C176.926 146.081 168.458 148.308 163.684 149.891Z" fill="#628AEC"/>
<path d="M156.794 128.791L161.643 147.404L162.601 161.862L156.794 146.739V128.791Z" fill="#111111"/>
<path d="M100.357 157.928L97.7638 168.564L96.2979 174.602L96.5234 167.456L97.1436 147.736L100.357 127.406V157.928Z" fill="#111111"/>
<path d="M177.792 142.852L179.831 156.88V199.242H166.665L162.912 161.648L161.976 147.346L177.792 142.852Z" fill="#FFE7D6"/>
<path d="M80.6228 145.301L78.875 157.045L82.9005 199.868H96.1841V161.864L97.1425 147.406L80.6228 145.301Z" fill="#FFE7D6"/>
<path d="M106.052 112.008H87.3331C86.5438 112.008 85.8672 111.343 85.8672 110.567V92.1763H88.799V109.127H106.052V112.008Z" fill="white"/>
<path d="M88.8 47.9167H85.8682V29.5256C85.8682 28.7501 86.5447 28.0853 87.3341 28.0853H106.053V30.9659H88.8V47.9167Z" fill="white"/>
<path d="M171.284 47.9163H168.352V30.9655H151.1V28.085H169.818C170.608 28.085 171.284 28.7497 171.284 29.5252V47.9163Z" fill="white"/>
<path d="M169.818 112.008H151.1V109.127H168.352V92.1763H171.284V110.567C171.284 111.398 170.664 112.008 169.818 112.008Z" fill="white"/>
<g opacity="0.1">
<path d="M96.8057 75.6691H158.6V105.028H96.8057V75.6691Z" fill="url(#paint7_linear)"/>
<path opacity="0.48" d="M96.8057 59.3822H158.6V68.9101H96.8057V59.3822Z" fill="url(#paint8_linear)"/>
<path opacity="0.23" d="M96.8057 47.4731H158.6V52.2371H96.8057V47.4731Z" fill="url(#paint9_linear)"/>
<path opacity="0.23" d="M96.8057 39.4956H158.6V42.6531H96.8057V39.4956Z" fill="url(#paint10_linear)"/>
<path opacity="0.23" d="M96.8066 31.4086H158.601V33.6244H96.8066V31.4086Z" fill="url(#paint11_linear)"/>
<path d="M167.959 105.029H89.0811V107.91H167.959V105.029Z" fill="#0F1D8F"/>
</g>
<ellipse opacity="0.8" cx="130.916" cy="191.591" rx="83.6402" ry="83.4093" fill="#4CB050"/>
<path d="M83.6406 193.404L109.611 225.778C109.984 226.242 110.676 226.28 111.097 225.86L175.766 161.37" stroke="white" stroke-width="7" stroke-linecap="round"/>
<defs>
<linearGradient id="paint0_linear" x1="55.0608" y1="182.728" x2="59.8041" y2="183.173" gradientUnits="userSpaceOnUse">
<stop stop-color="#133983"/>
<stop offset="1" stop-color="#71BC6F"/>
</linearGradient>
<linearGradient id="paint1_linear" x1="-9.61302" y1="165.481" x2="114.96" y2="180.412" gradientUnits="userSpaceOnUse">
<stop stop-color="#133983"/>
<stop offset="1" stop-color="#71BC6F"/>
</linearGradient>
<linearGradient id="paint2_linear" x1="30.3351" y1="119.066" x2="96.1672" y2="121.579" gradientUnits="userSpaceOnUse">
<stop stop-color="#133983"/>
<stop offset="1" stop-color="#71BC6F"/>
</linearGradient>
<linearGradient id="paint3_linear" x1="164.644" y1="175.572" x2="301.366" y2="196.481" gradientUnits="userSpaceOnUse">
<stop stop-color="#133983"/>
<stop offset="1" stop-color="#71BC6F"/>
</linearGradient>
<linearGradient id="paint4_linear" x1="186.387" y1="118.505" x2="283.181" y2="124.838" gradientUnits="userSpaceOnUse">
<stop stop-color="#133983"/>
<stop offset="1" stop-color="#71BC6F"/>
</linearGradient>
<linearGradient id="paint5_linear" x1="187.464" y1="99.458" x2="247.412" y2="101.857" gradientUnits="userSpaceOnUse">
<stop stop-color="#133983"/>
<stop offset="1" stop-color="#71BC6F"/>
</linearGradient>
<linearGradient id="paint6_linear" x1="54.083" y1="-34.459" x2="241.152" y2="-27.5049" gradientUnits="userSpaceOnUse">
<stop stop-color="#133983"/>
<stop offset="1" stop-color="#71BC6F"/>
</linearGradient>
<linearGradient id="paint7_linear" x1="127.707" y1="77.1766" x2="127.707" y2="102.621" gradientUnits="userSpaceOnUse">
<stop stop-color="white"/>
<stop offset="1" stop-color="#628AEC"/>
</linearGradient>
<linearGradient id="paint8_linear" x1="127.707" y1="59.1993" x2="127.707" y2="74.7322" gradientUnits="userSpaceOnUse">
<stop stop-color="white"/>
<stop offset="1" stop-color="#628AEC"/>
</linearGradient>
<linearGradient id="paint9_linear" x1="127.707" y1="46.5474" x2="127.707" y2="54.4167" gradientUnits="userSpaceOnUse">
<stop stop-color="white"/>
<stop offset="1" stop-color="#628AEC"/>
</linearGradient>
<linearGradient id="paint10_linear" x1="127.707" y1="40.0287" x2="127.707" y2="44.4545" gradientUnits="userSpaceOnUse">
<stop stop-color="white"/>
<stop offset="1" stop-color="#628AEC"/>
</linearGradient>
<linearGradient id="paint11_linear" x1="127.708" y1="30.8273" x2="127.708" y2="34.8577" gradientUnits="userSpaceOnUse">
<stop stop-color="white"/>
<stop offset="1" stop-color="#628AEC"/>
</linearGradient>
</defs>
</svg>
