<svg width="266" height="275" viewBox="0 0 266 275" fill="none" xmlns="http://www.w3.org/2000/svg">
<path opacity="0.1" d="M135.259 240.468C207.376 240.468 265.838 232.432 265.838 222.52C265.838 212.608 207.376 204.572 135.259 204.572C63.1413 204.572 4.67871 212.608 4.67871 222.52C4.67871 232.432 63.1413 240.468 135.259 240.468Z" fill="#9B7333"/>
<path d="M58.4704 185.349C57.4555 184.518 56.4406 183.798 55.4258 183.078L58.4704 185.349Z" fill="url(#paint0_linear)"/>
<path d="M61.3996 192.218L55.4231 183.023C50.3488 179.422 45.3872 176.763 41.3841 175.046C40.933 179.311 45.3308 187.676 45.3308 187.676C40.2565 179.422 39.4107 176.375 37.7757 173.716C31.6865 171.722 25.3717 173.218 19.8463 173.606C27.627 181.97 29.0929 184.463 29.0929 184.463C24.8643 179.145 20.5793 176.541 17.4783 173.827C3.83395 175.434 0 181.139 0 181.139C2.7627 185.128 9.8104 193.104 12.404 196.262C18.9442 196.76 27.0068 195.985 27.0068 195.985C23.4548 197.314 17.9857 197.979 14.039 198.256C17.9294 202.743 17.3655 201.968 21.0867 205.014C27.7961 205.79 39.0161 203.796 39.0161 203.796C34.8438 205.734 27.9653 206.842 24.1313 207.341C30.8407 212.16 37.4938 214.93 44.4287 216.647C49.9541 215.262 55.4231 213.157 55.4231 213.157C53.2806 214.708 50.2924 216.149 47.4169 217.312C55.3104 218.863 63.5985 219.195 72.7887 219.638L80.4002 217.478L75.7769 206.122C71.4919 197.591 65.1208 190.722 58.5805 185.571L61.3996 192.218Z" fill="url(#paint1_linear)"/>
<path d="M62.9795 205.624C65.6294 207.064 68.2229 208.56 70.8165 210.222C73.3537 211.884 75.8345 213.712 78.1461 215.927L78.0897 216.038C75.7781 213.933 73.2973 212.161 70.7037 210.609C68.1102 209.058 65.5166 207.618 62.8103 206.344C57.5104 203.685 52.0978 201.303 46.6852 198.977C41.2725 196.595 35.8035 194.434 30.4473 191.831C27.7973 190.501 25.091 189.172 22.4975 187.731C19.8475 186.291 17.254 184.74 14.7168 183.023L14.7732 182.857C20.1294 185.516 25.4857 187.953 30.8419 190.39C36.2546 192.772 41.5544 195.376 46.9671 197.869C52.3233 200.251 57.6796 202.799 62.9795 205.624Z" fill="#333333"/>
<path d="M65.7405 163.191C68.8979 152.666 70.8712 148.4 71.1531 144.689C66.3043 138.429 60.3842 133.665 54.4078 130.009C56.4375 143.415 52.66 151.392 52.66 151.392C54.8588 142.75 53.0546 133.278 51.8142 128.514C36.5348 120.038 21.3682 118.598 21.3682 118.598C21.3682 124.304 21.5937 129.511 21.9884 134.385C28.4159 139.648 37.3242 144.744 37.3242 144.744C32.6445 143.415 26.5553 140.036 22.2703 137.377C23.0596 144.412 24.3 150.561 26.0478 156.1C32.419 161.695 45.4995 168.01 45.4995 168.01C39.7486 166.791 31.8551 162.803 27.5138 160.476C31.0094 169.838 35.9146 177.261 41.8347 183.853C48.5441 186.623 55.7609 188.561 55.7609 188.561C52.4344 188.451 48.3186 187.62 44.4846 186.623C51.5323 193.824 59.8768 200.139 69.1234 207.23L78.5955 210.719L82.0348 196.815C85.3613 175.488 81.2454 159.867 73.9158 148.566C70.3074 152.167 65.7405 163.191 65.7405 163.191Z" fill="#333333"/>
<path d="M77.1294 207.783C76.2836 204.127 74.9305 200.693 73.3518 197.369C71.8295 194.046 70.0817 190.833 68.2774 187.675C64.669 181.36 60.7787 175.211 56.8884 169.118C52.998 163.024 48.8822 156.986 45.2737 150.671C43.4695 147.514 41.6653 144.301 39.9739 141.033C38.2824 137.764 36.7037 134.441 35.3506 131.006L35.5197 130.896C39.1281 137.266 42.9057 143.415 46.7397 149.564C50.5736 155.712 54.2948 161.972 58.0724 168.232C61.8499 174.436 65.5711 180.695 69.0668 187.177C70.7582 190.445 72.3933 193.713 73.8592 197.148C75.3251 200.527 76.5655 204.072 77.2985 207.783H77.1294Z" fill="url(#paint2_linear)"/>
<path d="M216.39 210.997C223.776 215.706 226.539 218.143 229.414 219.14C235.729 216.703 241.198 213.157 245.821 209.335C234.714 208.061 229.471 203.408 229.471 203.408C235.673 206.953 243.623 207.563 247.738 207.673C258.846 197.647 264.315 186.236 264.315 186.236C259.861 185.017 255.688 184.075 251.742 183.355C245.765 187.177 239.168 193.049 239.168 193.049C241.593 189.725 245.991 185.737 249.317 182.967C243.566 182.081 238.323 181.749 233.53 181.859C227.272 185.571 218.533 194.379 218.533 194.379C221.126 190.224 226.595 184.906 229.64 182.081C221.239 182.801 214.022 184.962 207.087 188.174C202.971 192.772 199.363 197.924 199.363 197.924C200.378 195.376 202.295 192.329 204.155 189.615C196.488 193.548 189.102 198.644 180.813 204.294L175.288 210.886L185.211 216.481C201.054 223.627 214.473 223.793 225.524 220.525C223.776 216.924 216.39 210.997 216.39 210.997Z" fill="url(#paint3_linear)"/>
<path d="M178.049 210.278C181.15 210.389 184.251 210.056 187.295 209.613C190.34 209.114 193.384 208.505 196.373 207.785C202.405 206.345 208.325 204.683 214.302 202.966C220.222 201.248 226.142 199.365 232.175 197.925C235.22 197.205 238.208 196.484 241.252 195.875C244.297 195.266 247.398 194.767 250.499 194.435L250.555 194.546C244.522 195.986 238.546 197.592 232.57 199.254C226.593 200.916 220.617 202.467 214.64 204.018C208.664 205.625 202.631 207.176 196.542 208.45C193.497 209.059 190.453 209.613 187.352 210.056C184.251 210.444 181.15 210.665 177.992 210.444L178.049 210.278Z" fill="#333333"/>
<path d="M236.237 183.19C237.534 182.249 238.774 181.307 240.015 180.31L236.237 183.19Z" fill="#FFE7D6"/>
<path d="M227.272 183.909L240.071 180.309C246.104 175.489 251.009 170.282 254.505 165.962C249.825 163.524 238.549 165.518 238.549 165.518C249.881 162.638 253.659 162.97 257.38 162.029C261.947 155.16 262.68 146.518 264.259 139.317C251.798 145.521 248.359 146.296 248.359 146.296C256.083 143.194 260.65 138.929 264.879 136.215C268.205 118.211 263.075 110.788 263.075 110.788C257.493 112.561 245.653 117.99 241.086 119.928C238.041 128.016 235.899 138.597 235.899 138.597C235.673 133.5 237.026 126.299 238.21 121.147C231.614 124.138 232.685 123.695 227.836 127.13C224.397 135.273 222.48 150.396 222.48 150.396C221.803 144.247 223.156 135.051 224.002 129.955C215.94 136.381 210.245 143.637 205.734 151.67C205.227 159.259 205.622 167.125 205.622 167.125C204.663 163.746 204.156 159.314 203.874 155.16C199.138 164.466 195.642 174.88 191.695 186.347L191.301 196.983L206.073 196.096C217.462 194.379 227.667 189.283 236.068 183.245L227.272 183.909Z" fill="#333333"/>
<path d="M211.373 180.087C208.723 182.802 206.017 185.461 203.198 188.009C200.322 190.501 197.278 192.883 193.895 194.822L193.782 194.656C197.052 192.662 199.984 190.224 202.747 187.621C205.51 185.017 208.103 182.303 210.64 179.478C215.715 173.883 220.451 168.067 225.13 162.25C229.866 156.434 234.433 150.451 239.451 144.801C241.932 141.976 244.526 139.206 247.176 136.492C249.826 133.777 252.588 131.174 255.52 128.681L255.633 128.792C250.615 134.387 245.766 140.148 240.974 145.909C236.181 151.67 231.22 157.375 226.371 163.136C221.466 168.897 216.56 174.603 211.373 180.087Z" fill="url(#paint4_linear)"/>
<path d="M221.689 157.929C221.069 158.76 220.449 159.591 219.828 160.367L221.689 157.929ZM219.772 160.422C215.543 165.629 209.962 170.559 203.027 173.551L193.78 176.542L192.032 169.728C192.427 161.752 192.709 154.55 194.006 147.847C194.964 150.451 196.092 153.165 197.332 155.16C197.332 155.16 195.641 150.229 194.569 145.299C195.979 139.427 198.234 133.888 202.181 128.459C202.576 131.838 203.421 137.932 205 141.699C205 141.699 203.421 131.783 204.098 126.022C206.579 123.031 205.902 123.474 209.623 120.482C209.849 123.972 210.3 128.736 211.371 131.949C211.371 131.949 210.751 124.859 211.202 119.208C213.796 117.214 220.279 111.785 223.55 109.736C223.55 109.736 228.173 113.613 229.413 125.634C227.214 128.071 225.072 131.561 220.73 134.774C220.73 134.774 222.76 133.722 229.582 127.684C229.864 132.503 230.992 138.153 229.413 143.25C227.214 144.468 224.734 144.856 218.081 148.568C218.081 148.568 224.903 145.465 228.342 146.241C226.932 149.565 224.734 153.664 221.802 157.763L214.303 162.139L219.772 160.422Z" fill="url(#paint5_linear)"/>
<path d="M209.794 149.233C211.823 144.801 213.966 140.37 215.939 135.883C217.913 131.396 219.942 126.964 222.141 122.588L222.028 122.532C220.619 124.582 219.322 126.687 218.138 128.847C216.954 131.008 215.826 133.224 214.755 135.439C212.613 139.871 210.809 144.413 208.835 148.9C206.918 153.387 204.945 157.874 202.746 162.251C201.675 164.466 200.491 166.627 199.25 168.732C197.954 170.837 196.544 172.886 194.853 174.659L194.965 174.714C196.77 172.942 198.292 170.948 199.645 168.843C200.998 166.793 202.239 164.633 203.423 162.472C205.678 158.096 207.764 153.664 209.794 149.233Z" fill="#628AEC"/>
<path d="M175.63 0H167.962C178.787 0 187.526 8.64158 187.526 19.222V205.127C187.526 215.763 178.731 224.349 167.962 224.349H175.63C186.455 224.349 195.194 215.707 195.194 205.127V19.2774C195.194 8.64158 186.455 0 175.63 0Z" fill="#333333"/>
<path d="M167.96 224.405H87.8984C77.0731 224.405 68.334 215.763 68.334 205.183V19.278C68.334 8.64222 77.1295 0.0560303 87.8984 0.0560303H167.96C178.786 0.0560303 187.525 8.69761 187.525 19.278V205.183C187.525 215.819 178.729 224.405 167.96 224.405Z" fill="url(#paint6_linear)"/>
<path d="M177.095 199.033H78.7092C75.5518 199.033 73.0146 196.54 73.0146 193.438V19.4988C73.0146 16.3967 75.5518 13.9039 78.7092 13.9039H177.039C180.196 13.9039 182.733 16.3967 182.733 19.4988V193.438C182.79 196.485 180.196 199.033 177.095 199.033Z" fill="#333333"/>
<path d="M134.303 216.371H121.505C118.516 216.371 116.148 213.989 116.148 211.109C116.148 208.173 118.573 205.846 121.505 205.846H134.303C137.292 205.846 139.66 208.228 139.66 211.109C139.66 214.045 137.292 216.371 134.303 216.371Z" fill="#232323"/>
<path d="M73.0693 142.974V195.654C73.0693 197.538 75.6065 199.033 78.7639 199.033H177.093C180.251 199.033 182.788 197.538 182.788 195.654V142.974H73.0693Z" fill="#333333"/>
<path d="M152.007 155.714C143.437 155.714 136.445 162.583 136.445 171.003C136.445 179.423 143.437 186.292 152.007 186.292C160.577 186.292 167.568 179.423 167.568 171.003C167.568 162.527 160.633 155.714 152.007 155.714ZM159.393 176.875L157.814 178.426L151.837 172.554L145.861 178.426L144.282 176.875L150.259 171.003L144.282 165.131L145.861 163.58L151.837 169.452L157.814 163.58L159.393 165.131L153.416 171.003L159.393 176.875Z" fill="#ED1C24"/>
<path d="M104.138 155.714C95.5685 155.714 88.5771 162.583 88.5771 171.003C88.5771 179.423 95.5685 186.292 104.138 186.292C112.708 186.292 119.7 179.423 119.7 171.003C119.7 162.527 112.708 155.714 104.138 155.714ZM100.305 179.644L94.4408 173.883L96.0195 172.332L100.305 176.542L112.257 164.799L113.836 166.35L100.305 179.644Z" fill="#00A651"/>
<path d="M151.44 117.105L131.988 132.892L110.732 118.323L115.807 104.973L116.822 99.8768L118.908 89.7949L140.22 89.241L141.122 92.8416L143.603 102.536L151.44 117.105Z" fill="#FFE7D6"/>
<path d="M149.58 63.4274C149.58 81.0984 140.728 95.4456 129.79 95.4456C118.852 95.4456 110 81.0984 110 63.4274C110 45.7565 118.852 40.494 129.79 40.494C140.672 40.5494 149.58 45.7565 149.58 63.4274Z" fill="#FFE7D6"/>
<path d="M151.609 48.3045C153.413 54.3426 148.62 81.2644 145.914 86.7485C143.208 92.2326 137.288 95.3901 129.169 95.4455C118.794 95.5563 115.299 90.6262 113.213 87.7456C111.127 84.8651 110.957 79.381 108.251 58.6634C105.545 38.0011 122.628 35.176 128.887 35.176C135.145 35.176 138.133 35.0652 139.317 39.109C148.338 38.6658 149.804 42.2665 151.609 48.3045ZM131.819 51.2958C126.124 53.844 115.975 48.6923 112.085 52.9023C108.195 57.1123 110.619 70.4624 111.86 76.0573C112.367 78.2731 118.907 76.5559 122.967 78.5501C117.385 83.591 122.967 87.9118 129.056 87.9118C134.863 87.9118 140.389 86.1392 136.667 79.3256C139.487 76.3343 145.632 79.1594 146.816 76.6667C148.564 73.066 147.605 56.1706 147.605 56.1706C145.181 55.4505 139.599 48.9693 139.599 44.0945C139.656 44.0391 137.513 48.7477 131.819 51.2958Z" fill="#111111"/>
<path d="M163.684 149.891C163.059 150.067 162.491 150.301 162.036 150.477C162.32 153.114 162.661 159.327 162.945 165.13L163.002 165.774C163.116 167.357 163.173 168.939 163.286 170.346C163.457 172.984 163.627 175.152 163.798 176.383C164.309 179.431 164.764 182.596 165.105 185.526C165.958 193.029 166.299 199.241 166.299 199.241C164.878 199.183 95.5952 199.241 95.5952 199.241L95.9362 187.167L96.1635 179.196L96.3909 171.636L97.0161 150.77C96.3909 150.535 95.311 150.36 94.0038 150.125C88.9454 149.246 80.0222 148.308 76.6121 147.957C75.7596 147.839 75.248 147.839 75.248 147.839C75.248 147.839 82.9208 115.545 87.6382 110.445C96.2204 104.995 105.087 102.885 116.852 100.247C116.852 100.247 116.113 104.702 118.329 108.57C123.615 117.83 141.007 116.189 143.337 105.757C143.905 103.236 143.28 100.247 143.28 100.247C143.28 100.247 167.379 105.288 172.039 110.914C175.676 117.127 182.383 144.674 182.383 144.674C182.383 144.674 181.701 144.85 180.621 145.143C176.927 146.081 168.458 148.308 163.684 149.891Z" fill="#628AEC"/>
<path d="M156.794 128.791L161.643 147.404L162.601 161.862L156.794 146.739V128.791Z" fill="#111111"/>
<path d="M100.356 157.928L97.7628 168.564L96.2969 174.602L96.5224 167.456L97.1426 147.736L100.356 127.406V157.928Z" fill="#111111"/>
<path d="M177.792 142.852L179.831 156.88V199.242H166.665L162.912 161.648L161.976 147.346L177.792 142.852Z" fill="#FFE7D6"/>
<path d="M80.6228 145.301L78.875 157.045L82.9005 199.868H96.1842V161.864L97.1426 147.406L80.6228 145.301Z" fill="#FFE7D6"/>
<path d="M106.053 112.008H87.3341C86.5447 112.008 85.8682 111.343 85.8682 110.567V92.1763H88.8V109.127H106.053V112.008Z" fill="white"/>
<path d="M88.8 47.9167H85.8682V29.5256C85.8682 28.7501 86.5447 28.0853 87.3341 28.0853H106.053V30.9659H88.8V47.9167Z" fill="white"/>
<path d="M171.284 47.9163H168.352V30.9655H151.1V28.085H169.818C170.608 28.085 171.284 28.7497 171.284 29.5252V47.9163Z" fill="white"/>
<path d="M169.818 112.008H151.1V109.127H168.352V92.1763H171.284V110.567C171.284 111.398 170.664 112.008 169.818 112.008Z" fill="white"/>
<g opacity="0.1">
<path d="M96.8066 75.6692H158.601V105.028H96.8066V75.6692Z" fill="url(#paint7_linear)"/>
<path opacity="0.48" d="M96.8066 59.3824H158.601V68.9103H96.8066V59.3824Z" fill="url(#paint8_linear)"/>
<path opacity="0.23" d="M96.8066 47.4733H158.601V52.2372H96.8066V47.4733Z" fill="url(#paint9_linear)"/>
<path opacity="0.23" d="M96.8066 39.4958H158.601V42.6533H96.8066V39.4958Z" fill="url(#paint10_linear)"/>
<path opacity="0.23" d="M96.8076 31.4087H158.602V33.6245H96.8076V31.4087Z" fill="url(#paint11_linear)"/>
<path d="M167.959 105.029H89.0811V107.91H167.959V105.029Z" fill="#0F1D8F"/>
</g>
<ellipse opacity="0.8" cx="130.916" cy="191.591" rx="83.6406" ry="83.4093" fill="#BC2D36"/>
<path d="M98.1865 161.37L163.644 226.647M163.644 161.37L98.1865 226.647" stroke="white" stroke-width="7" stroke-linecap="round"/>
<defs>
<linearGradient id="paint0_linear" x1="55.0618" y1="182.729" x2="59.8051" y2="183.174" gradientUnits="userSpaceOnUse">
<stop stop-color="#133983"/>
<stop offset="1" stop-color="#71BC6F"/>
</linearGradient>
<linearGradient id="paint1_linear" x1="-9.61307" y1="165.481" x2="114.96" y2="180.413" gradientUnits="userSpaceOnUse">
<stop stop-color="#133983"/>
<stop offset="1" stop-color="#71BC6F"/>
</linearGradient>
<linearGradient id="paint2_linear" x1="30.3351" y1="119.067" x2="96.1675" y2="121.58" gradientUnits="userSpaceOnUse">
<stop stop-color="#133983"/>
<stop offset="1" stop-color="#71BC6F"/>
</linearGradient>
<linearGradient id="paint3_linear" x1="164.644" y1="175.572" x2="301.367" y2="196.481" gradientUnits="userSpaceOnUse">
<stop stop-color="#133983"/>
<stop offset="1" stop-color="#71BC6F"/>
</linearGradient>
<linearGradient id="paint4_linear" x1="186.387" y1="118.505" x2="283.182" y2="124.839" gradientUnits="userSpaceOnUse">
<stop stop-color="#133983"/>
<stop offset="1" stop-color="#71BC6F"/>
</linearGradient>
<linearGradient id="paint5_linear" x1="187.464" y1="99.458" x2="247.412" y2="101.857" gradientUnits="userSpaceOnUse">
<stop stop-color="#133983"/>
<stop offset="1" stop-color="#71BC6F"/>
</linearGradient>
<linearGradient id="paint6_linear" x1="54.0829" y1="-34.4591" x2="241.153" y2="-27.505" gradientUnits="userSpaceOnUse">
<stop stop-color="#133983"/>
<stop offset="1" stop-color="#71BC6F"/>
</linearGradient>
<linearGradient id="paint7_linear" x1="127.708" y1="77.1767" x2="127.708" y2="102.621" gradientUnits="userSpaceOnUse">
<stop stop-color="white"/>
<stop offset="1" stop-color="#628AEC"/>
</linearGradient>
<linearGradient id="paint8_linear" x1="127.708" y1="59.1995" x2="127.708" y2="74.7325" gradientUnits="userSpaceOnUse">
<stop stop-color="white"/>
<stop offset="1" stop-color="#628AEC"/>
</linearGradient>
<linearGradient id="paint9_linear" x1="127.708" y1="46.5476" x2="127.708" y2="54.4169" gradientUnits="userSpaceOnUse">
<stop stop-color="white"/>
<stop offset="1" stop-color="#628AEC"/>
</linearGradient>
<linearGradient id="paint10_linear" x1="127.708" y1="40.0289" x2="127.708" y2="44.4548" gradientUnits="userSpaceOnUse">
<stop stop-color="white"/>
<stop offset="1" stop-color="#628AEC"/>
</linearGradient>
<linearGradient id="paint11_linear" x1="127.709" y1="30.8274" x2="127.709" y2="34.8578" gradientUnits="userSpaceOnUse">
<stop stop-color="white"/>
<stop offset="1" stop-color="#628AEC"/>
</linearGradient>
</defs>
</svg>
