<svg width="26" height="26" viewBox="0 0 26 26" fill="none" xmlns="http://www.w3.org/2000/svg">
<path d="M17.0071 7.4946L12.0599 13.7978L9.45628 11.1929L9.44372 11.1804L9.43072 11.1683C9.01012 10.7763 8.45382 10.563 7.87901 10.5731C7.3042 10.5833 6.75577 10.8161 6.34926 11.2226C5.94274 11.6291 5.70989 12.1776 5.69975 12.7524C5.6896 13.3272 5.90297 13.8835 6.29489 14.3041L6.30685 14.3169L6.31926 14.3293L10.619 18.6307L10.6198 18.6315C10.8307 18.842 11.0818 19.0079 11.3581 19.1192C11.6345 19.2305 11.9305 19.2851 12.2284 19.2795C12.5263 19.274 12.82 19.2086 13.0921 19.0871C13.3641 18.9655 13.6089 18.7905 13.8118 18.5723L13.8372 18.545L13.8605 18.5159L20.3232 10.4375C20.7032 10.0234 20.9122 9.47983 20.9069 8.91653C20.9013 8.33576 20.6683 7.78031 20.2578 7.36945L19.9648 7.07625H19.893C19.7738 6.99919 19.6472 6.93355 19.5148 6.88042C19.238 6.76931 18.9415 6.71518 18.6433 6.72125C18.345 6.72733 18.051 6.79349 17.7789 6.91578C17.5068 7.03807 17.2622 7.21398 17.0596 7.43299L17.0321 7.46273L17.0071 7.4946ZM25 13C25 16.1826 23.7357 19.2348 21.4853 21.4853C19.2348 23.7357 16.1826 25 13 25C9.8174 25 6.76515 23.7357 4.51472 21.4853C2.26428 19.2348 1 16.1826 1 13C1 9.8174 2.26428 6.76516 4.51472 4.51472C6.76516 2.26428 9.8174 1 13 1C16.1826 1 19.2348 2.26428 21.4853 4.51472C23.7357 6.76515 25 9.8174 25 13Z" fill="url(#paint0_linear)" stroke="url(#paint1_linear)" stroke-width="2"/>
<defs>
<linearGradient id="paint0_linear" x1="-3.1087" y1="-3.99999" x2="37.5557" y2="-1.15466" gradientUnits="userSpaceOnUse">
<stop stop-color="#133983"/>
<stop offset="1" stop-color="#71BC6F"/>
</linearGradient>
<linearGradient id="paint1_linear" x1="-3.1087" y1="-3.99999" x2="37.5557" y2="-1.15466" gradientUnits="userSpaceOnUse">
<stop stop-color="#133983"/>
<stop offset="1" stop-color="#71BC6F"/>
</linearGradient>
</defs>
</svg>
