<svg width="33" height="23" viewBox="0 0 33 23" fill="none" xmlns="http://www.w3.org/2000/svg">
<path d="M4.34367 8.29424L3.63391 8.99868C3.07092 8.43144 2.91144 7.70633 2.8601 7.13763C2.8249 6.74776 2.8357 6.29562 2.84411 5.94385C2.84722 5.81366 2.85 5.69722 2.85 5.60278C2.85 5.09356 2.43421 4.67778 1.925 4.67778C1.41578 4.67778 1 5.09356 1 5.60278C1 5.96508 1.21091 6.28353 1.52321 6.43539C2.01252 6.67332 2.25318 7.11995 2.34206 7.47701C2.34209 7.47713 2.34211 7.47724 2.34214 7.47735L4.343 15.5111H16.3779H16.3779H16.3779H16.378H16.378H16.378H16.378H16.378H16.378H16.3781H16.3781H16.3781H16.3781H16.3781H16.3782H16.3782H16.3782H16.3782H16.3782H16.3783H16.3783H16.3783H16.3783H16.3783H16.3783H16.3784H16.3784H16.3784H16.3784H16.3784H16.3785H16.3785H16.3785H16.3785H16.3785H16.3785H16.3786H16.3786H16.3786H16.3786H16.3786H16.3787H16.3787H16.3787H16.3787H16.3787H16.3787H16.3788H16.3788H16.3788H16.3788H16.3788H16.3789H16.3789H16.3789H16.3789H16.3789H16.3789H16.379H16.379H16.379H16.379H16.379H16.3791H16.3791H16.3791H16.3791H16.3791H16.3791H16.3792H16.3792H16.3792H16.3792H16.3792H16.3793H16.3793H16.3793H16.3793H16.3793H16.3793H16.3794H16.3794H16.3794H16.3794H16.3794H16.3794H16.3795H16.3795H16.3795H16.3795H16.3795H16.3796H16.3796H16.3796H16.3796H16.3796H16.3796H16.3797H16.3797H16.3797H16.3797H16.3797H16.3798H16.3798H16.3798H16.3798H16.3798H16.3798H16.3799H16.3799H16.3799H16.3799H16.3799H16.38H16.38H16.38H16.38H16.38H16.38H16.3801H16.3801H16.3801H16.3801H16.3801H16.3801H16.3802H16.3802H16.3802H16.3802H16.3802H16.3803H16.3803H16.3803H16.3803H16.3803H16.3803H16.3804H16.3804H16.3804H16.3804H16.3804H16.3805H16.3805H16.3805H16.3805H16.3805H16.3805H16.3806H16.3806H16.3806H16.3806H16.3806H16.3807H16.3807H16.3807H16.3807H16.3807H16.3807H16.3808H16.3808H16.3808H16.3808H16.3808H16.3808H16.3809H16.3809H16.3809H16.3809H16.3809H16.381H16.381H16.381H16.381H16.381H16.381H16.3811H16.3811H16.3811H16.3811H16.3811H16.3812H16.3812H16.3812H16.3812H16.3812H16.3812H16.3813H16.3813H16.3813H16.3813H16.3813H16.3814H16.3814H16.3814H16.3814H16.3814H16.3814H16.3815H16.3815H16.3815H16.3815H16.3815H16.3816H16.3816H16.3816H16.3816H16.3816H16.3816H16.3817H16.3817H16.3817H16.3817H16.3817H16.3818H16.3818H16.3818H16.3818H16.3818H16.3818H16.3819H16.3819H16.3819H16.3819H16.3819H16.382H16.382H16.382H16.382H16.382H16.382H16.3821H16.3821H16.3821H16.3821H16.3821H16.3822H16.3822H16.3822H16.3822H16.3822H16.3822H16.3823H16.3823H16.3823H16.3823H16.3823H16.3824H16.3824H16.3824H16.3824H16.3824H16.3825H16.3825H16.3825H16.3825H16.3825H16.3825L28.4127 15.4503L30.4134 7.44768C30.4991 7.10288 30.726 6.66695 31.1957 6.42104M4.34367 8.29424L31.1957 6.42104M4.34367 8.29424L3.63391 8.99869L4.96229 10.3371C4.9623 10.3371 4.96231 10.3371 4.96233 10.3371C5.78827 11.1694 6.9293 11.6443 8.10162 11.6443C9.48588 11.6443 10.8029 10.9889 11.6354 9.88578C11.6354 9.88577 11.6354 9.88575 11.6354 9.88574L14.8743 5.59421C15.3129 5.0131 15.4187 4.34937 15.4438 3.82154C15.4566 3.55324 15.4494 3.2887 15.4409 3.05772C15.4389 3.00515 15.437 2.95482 15.4351 2.9063C15.4282 2.72919 15.4222 2.57609 15.4222 2.425C15.4222 1.91578 15.838 1.5 16.3472 1.5C16.8564 1.5 17.2722 1.91578 17.2722 2.425C17.2722 2.66839 17.1771 2.89083 17.0164 3.06003L17.0162 3.06014C16.6193 3.47811 16.7085 4.02265 16.9191 4.3266L16.9292 4.34131L16.94 4.35566L21.0593 9.86884C21.0593 9.86885 21.0593 9.86885 21.0593 9.86886C21.891 10.9819 23.2129 11.6444 24.6025 11.6444C25.7818 11.6444 26.8959 11.1831 27.7299 10.349C27.73 10.3489 27.73 10.3489 27.73 10.3489L29.0555 9.02344C29.6253 8.45356 29.785 7.72139 29.8359 7.1489C29.8706 6.7587 29.8594 6.30407 29.8507 5.95037C29.8474 5.81728 29.8444 5.69848 29.8444 5.60278C29.8444 5.09356 30.2602 4.67778 30.7694 4.67778C31.2787 4.67778 31.6944 5.09356 31.6944 5.60278C31.6944 5.9539 31.4957 6.26395 31.1957 6.42104M4.34367 8.29424L31.1957 6.42104M4.35875 15.5743L4.35872 15.5742L4.35875 15.5743ZM4.62597 19.4667H28.1704V21.5H4.62597V19.4667Z" fill="url(#paint0_linear)" stroke="url(#paint1_linear)" stroke-width="2"/>
<defs>
<linearGradient id="paint0_linear" x1="-3.90912" y1="-2.88461" x2="46.9262" y2="2.40149" gradientUnits="userSpaceOnUse">
<stop stop-color="#133983"/>
<stop offset="1" stop-color="#71BC6F"/>
</linearGradient>
<linearGradient id="paint1_linear" x1="-3.90912" y1="-2.88461" x2="46.9262" y2="2.40149" gradientUnits="userSpaceOnUse">
<stop stop-color="#133983"/>
<stop offset="1" stop-color="#71BC6F"/>
</linearGradient>
</defs>
</svg>
