<svg width="30" height="29" viewBox="0 0 30 29" fill="none" xmlns="http://www.w3.org/2000/svg">
<path d="M22.5 14C22.224 14 22 14.2235 22 14.5V17.5C22 21.36 18.86 24.5 15 24.5C11.14 24.5 8 21.36 8 17.5V14.5C8 14.2235 7.776 14 7.5 14C7.224 14 7 14.2235 7 14.5V17.5C7 21.7425 10.322 25.2145 14.5 25.4745V28H12C11.724 28 11.5 28.2235 11.5 28.5C11.5 28.7765 11.724 29 12 29H18C18.276 29 18.5 28.7765 18.5 28.5C18.5 28.2235 18.276 28 18 28H15.5V25.4745C19.678 25.2145 23 21.742 23 17.5V14.5C23 14.2235 22.776 14 22.5 14Z" fill="#4F4F4F"/>
<path d="M15 23C18.0325 23 20.5 20.5325 20.5 17.5V5.5C20.5 2.4675 18.0325 0 15 0C11.9675 0 9.5 2.4675 9.5 5.5V17.5C9.5 20.5325 11.9675 23 15 23ZM10.5 5.5C10.5 3.0185 12.519 1 15 1C17.481 1 19.5 3.0185 19.5 5.5V17.5C19.5 19.9815 17.481 22 15 22C12.519 22 10.5 19.9815 10.5 17.5V5.5Z" fill="#4F4F4F"/>
</svg>
